<?xml version="1.0" encoding="utf-8" standalone="no"?>
<!DOCTYPE svg PUBLIC "-//W3C//DTD SVG 1.1//EN"
  "http://www.w3.org/Graphics/SVG/1.1/DTD/svg11.dtd">
<svg xmlns:xlink="http://www.w3.org/1999/xlink" width="504pt" height="360pt" viewBox="0 0 504 360" xmlns="http://www.w3.org/2000/svg" version="1.1">
 <metadata>
  <rdf:RDF xmlns:dc="http://purl.org/dc/elements/1.1/" xmlns:cc="http://creativecommons.org/ns#" xmlns:rdf="http://www.w3.org/1999/02/22-rdf-syntax-ns#">
   <cc:Work>
    <dc:type rdf:resource="http://purl.org/dc/dcmitype/StillImage"/>
    <dc:date>2023-08-31T10:50:42.695509</dc:date>
    <dc:format>image/svg+xml</dc:format>
    <dc:creator>
     <cc:Agent>
      <dc:title>Matplotlib v3.7.1, https://matplotlib.org/</dc:title>
     </cc:Agent>
    </dc:creator>
   </cc:Work>
  </rdf:RDF>
 </metadata>
 <defs>
  <style type="text/css">*{stroke-linejoin: round; stroke-linecap: butt}</style>
 </defs>
 <g id="figure_1">
  <g id="patch_1">
   <path d="M 0 360 
L 504 360 
L 504 0 
L 0 0 
z
" style="fill: #ffffff"/>
  </g>
  <g id="axes_1">
   <g id="patch_2">
    <path d="M 63 320.4 
L 453.6 320.4 
L 453.6 43.2 
L 63 43.2 
z
" style="fill: #ffffff"/>
   </g>
   <g id="matplotlib.axis_1">
    <g id="xtick_1">
     <g id="line2d_1">
      <defs>
       <path id="m9499208139" d="M 0 0 
L 0 6 
" style="stroke: #262626; stroke-width: 1.25"/>
      </defs>
      <g>
       <use xlink:href="#m9499208139" x="116.964474" y="320.4" style="fill: #262626; stroke: #262626; stroke-width: 1.25"/>
      </g>
     </g>
     <g id="text_1">
      <!-- 10 -->
      <g style="fill: #262626" transform="translate(110.847442 337.773594) scale(0.11 -0.11)">
       <defs>
        <path id="ArialMT-31" d="M 2384 0 
L 1822 0 
L 1822 3584 
Q 1619 3391 1289 3197 
Q 959 3003 697 2906 
L 697 3450 
Q 1169 3672 1522 3987 
Q 1875 4303 2022 4600 
L 2384 4600 
L 2384 0 
z
" transform="scale(0.015625)"/>
        <path id="ArialMT-30" d="M 266 2259 
Q 266 3072 433 3567 
Q 600 4063 929 4331 
Q 1259 4600 1759 4600 
Q 2128 4600 2406 4451 
Q 2684 4303 2865 4023 
Q 3047 3744 3150 3342 
Q 3253 2941 3253 2259 
Q 3253 1453 3087 958 
Q 2922 463 2592 192 
Q 2263 -78 1759 -78 
Q 1097 -78 719 397 
Q 266 969 266 2259 
z
M 844 2259 
Q 844 1131 1108 757 
Q 1372 384 1759 384 
Q 2147 384 2411 759 
Q 2675 1134 2675 2259 
Q 2675 3391 2411 3762 
Q 2147 4134 1753 4134 
Q 1366 4134 1134 3806 
Q 844 3388 844 2259 
z
" transform="scale(0.015625)"/>
       </defs>
       <use xlink:href="#ArialMT-31"/>
       <use xlink:href="#ArialMT-30" x="55.615234"/>
      </g>
     </g>
    </g>
    <g id="xtick_2">
     <g id="line2d_2">
      <g>
       <use xlink:href="#m9499208139" x="168.359211" y="320.4" style="fill: #262626; stroke: #262626; stroke-width: 1.25"/>
      </g>
     </g>
     <g id="text_2">
      <!-- 20 -->
      <g style="fill: #262626" transform="translate(162.242179 337.773594) scale(0.11 -0.11)">
       <defs>
        <path id="ArialMT-32" d="M 3222 541 
L 3222 0 
L 194 0 
Q 188 203 259 391 
Q 375 700 629 1000 
Q 884 1300 1366 1694 
Q 2113 2306 2375 2664 
Q 2638 3022 2638 3341 
Q 2638 3675 2398 3904 
Q 2159 4134 1775 4134 
Q 1369 4134 1125 3890 
Q 881 3647 878 3216 
L 300 3275 
Q 359 3922 746 4261 
Q 1134 4600 1788 4600 
Q 2447 4600 2831 4234 
Q 3216 3869 3216 3328 
Q 3216 3053 3103 2787 
Q 2991 2522 2730 2228 
Q 2469 1934 1863 1422 
Q 1356 997 1212 845 
Q 1069 694 975 541 
L 3222 541 
z
" transform="scale(0.015625)"/>
       </defs>
       <use xlink:href="#ArialMT-32"/>
       <use xlink:href="#ArialMT-30" x="55.615234"/>
      </g>
     </g>
    </g>
    <g id="xtick_3">
     <g id="line2d_3">
      <g>
       <use xlink:href="#m9499208139" x="219.753947" y="320.4" style="fill: #262626; stroke: #262626; stroke-width: 1.25"/>
      </g>
     </g>
     <g id="text_3">
      <!-- 30 -->
      <g style="fill: #262626" transform="translate(213.636916 337.773594) scale(0.11 -0.11)">
       <defs>
        <path id="ArialMT-33" d="M 269 1209 
L 831 1284 
Q 928 806 1161 595 
Q 1394 384 1728 384 
Q 2125 384 2398 659 
Q 2672 934 2672 1341 
Q 2672 1728 2419 1979 
Q 2166 2231 1775 2231 
Q 1616 2231 1378 2169 
L 1441 2663 
Q 1497 2656 1531 2656 
Q 1891 2656 2178 2843 
Q 2466 3031 2466 3422 
Q 2466 3731 2256 3934 
Q 2047 4138 1716 4138 
Q 1388 4138 1169 3931 
Q 950 3725 888 3313 
L 325 3413 
Q 428 3978 793 4289 
Q 1159 4600 1703 4600 
Q 2078 4600 2393 4439 
Q 2709 4278 2876 4000 
Q 3044 3722 3044 3409 
Q 3044 3113 2884 2869 
Q 2725 2625 2413 2481 
Q 2819 2388 3044 2092 
Q 3269 1797 3269 1353 
Q 3269 753 2831 336 
Q 2394 -81 1725 -81 
Q 1122 -81 723 278 
Q 325 638 269 1209 
z
" transform="scale(0.015625)"/>
       </defs>
       <use xlink:href="#ArialMT-33"/>
       <use xlink:href="#ArialMT-30" x="55.615234"/>
      </g>
     </g>
    </g>
    <g id="xtick_4">
     <g id="line2d_4">
      <g>
       <use xlink:href="#m9499208139" x="271.148684" y="320.4" style="fill: #262626; stroke: #262626; stroke-width: 1.25"/>
      </g>
     </g>
     <g id="text_4">
      <!-- 40 -->
      <g style="fill: #262626" transform="translate(265.031653 337.773594) scale(0.11 -0.11)">
       <defs>
        <path id="ArialMT-34" d="M 2069 0 
L 2069 1097 
L 81 1097 
L 81 1613 
L 2172 4581 
L 2631 4581 
L 2631 1613 
L 3250 1613 
L 3250 1097 
L 2631 1097 
L 2631 0 
L 2069 0 
z
M 2069 1613 
L 2069 3678 
L 634 1613 
L 2069 1613 
z
" transform="scale(0.015625)"/>
       </defs>
       <use xlink:href="#ArialMT-34"/>
       <use xlink:href="#ArialMT-30" x="55.615234"/>
      </g>
     </g>
    </g>
    <g id="xtick_5">
     <g id="line2d_5">
      <g>
       <use xlink:href="#m9499208139" x="322.543421" y="320.4" style="fill: #262626; stroke: #262626; stroke-width: 1.25"/>
      </g>
     </g>
     <g id="text_5">
      <!-- 50 -->
      <g style="fill: #262626" transform="translate(316.42639 337.773594) scale(0.11 -0.11)">
       <defs>
        <path id="ArialMT-35" d="M 266 1200 
L 856 1250 
Q 922 819 1161 601 
Q 1400 384 1738 384 
Q 2144 384 2425 690 
Q 2706 997 2706 1503 
Q 2706 1984 2436 2262 
Q 2166 2541 1728 2541 
Q 1456 2541 1237 2417 
Q 1019 2294 894 2097 
L 366 2166 
L 809 4519 
L 3088 4519 
L 3088 3981 
L 1259 3981 
L 1013 2750 
Q 1425 3038 1878 3038 
Q 2478 3038 2890 2622 
Q 3303 2206 3303 1553 
Q 3303 931 2941 478 
Q 2500 -78 1738 -78 
Q 1113 -78 717 272 
Q 322 622 266 1200 
z
" transform="scale(0.015625)"/>
       </defs>
       <use xlink:href="#ArialMT-35"/>
       <use xlink:href="#ArialMT-30" x="55.615234"/>
      </g>
     </g>
    </g>
    <g id="xtick_6">
     <g id="line2d_6">
      <g>
       <use xlink:href="#m9499208139" x="373.938158" y="320.4" style="fill: #262626; stroke: #262626; stroke-width: 1.25"/>
      </g>
     </g>
     <g id="text_6">
      <!-- 60 -->
      <g style="fill: #262626" transform="translate(367.821127 337.773594) scale(0.11 -0.11)">
       <defs>
        <path id="ArialMT-36" d="M 3184 3459 
L 2625 3416 
Q 2550 3747 2413 3897 
Q 2184 4138 1850 4138 
Q 1581 4138 1378 3988 
Q 1113 3794 959 3422 
Q 806 3050 800 2363 
Q 1003 2672 1297 2822 
Q 1591 2972 1913 2972 
Q 2475 2972 2870 2558 
Q 3266 2144 3266 1488 
Q 3266 1056 3080 686 
Q 2894 316 2569 119 
Q 2244 -78 1831 -78 
Q 1128 -78 684 439 
Q 241 956 241 2144 
Q 241 3472 731 4075 
Q 1159 4600 1884 4600 
Q 2425 4600 2770 4297 
Q 3116 3994 3184 3459 
z
M 888 1484 
Q 888 1194 1011 928 
Q 1134 663 1356 523 
Q 1578 384 1822 384 
Q 2178 384 2434 671 
Q 2691 959 2691 1453 
Q 2691 1928 2437 2201 
Q 2184 2475 1800 2475 
Q 1419 2475 1153 2201 
Q 888 1928 888 1484 
z
" transform="scale(0.015625)"/>
       </defs>
       <use xlink:href="#ArialMT-36"/>
       <use xlink:href="#ArialMT-30" x="55.615234"/>
      </g>
     </g>
    </g>
    <g id="xtick_7">
     <g id="line2d_7">
      <g>
       <use xlink:href="#m9499208139" x="425.332895" y="320.4" style="fill: #262626; stroke: #262626; stroke-width: 1.25"/>
      </g>
     </g>
     <g id="text_7">
      <!-- 70 -->
      <g style="fill: #262626" transform="translate(419.215863 337.773594) scale(0.11 -0.11)">
       <defs>
        <path id="ArialMT-37" d="M 303 3981 
L 303 4522 
L 3269 4522 
L 3269 4084 
Q 2831 3619 2401 2847 
Q 1972 2075 1738 1259 
Q 1569 684 1522 0 
L 944 0 
Q 953 541 1156 1306 
Q 1359 2072 1739 2783 
Q 2119 3494 2547 3981 
L 303 3981 
z
" transform="scale(0.015625)"/>
       </defs>
       <use xlink:href="#ArialMT-37"/>
       <use xlink:href="#ArialMT-30" x="55.615234"/>
      </g>
     </g>
    </g>
    <g id="text_8">
     <!-- Link -->
     <g style="fill: #262626" transform="translate(247.29375 352.549219) scale(0.12 -0.12)">
      <defs>
       <path id="ArialMT-4c" d="M 469 0 
L 469 4581 
L 1075 4581 
L 1075 541 
L 3331 541 
L 3331 0 
L 469 0 
z
" transform="scale(0.015625)"/>
       <path id="ArialMT-69" d="M 425 3934 
L 425 4581 
L 988 4581 
L 988 3934 
L 425 3934 
z
M 425 0 
L 425 3319 
L 988 3319 
L 988 0 
L 425 0 
z
" transform="scale(0.015625)"/>
       <path id="ArialMT-6e" d="M 422 0 
L 422 3319 
L 928 3319 
L 928 2847 
Q 1294 3394 1984 3394 
Q 2284 3394 2536 3286 
Q 2788 3178 2913 3003 
Q 3038 2828 3088 2588 
Q 3119 2431 3119 2041 
L 3119 0 
L 2556 0 
L 2556 2019 
Q 2556 2363 2490 2533 
Q 2425 2703 2258 2804 
Q 2091 2906 1866 2906 
Q 1506 2906 1245 2678 
Q 984 2450 984 1813 
L 984 0 
L 422 0 
z
" transform="scale(0.015625)"/>
       <path id="ArialMT-6b" d="M 425 0 
L 425 4581 
L 988 4581 
L 988 1969 
L 2319 3319 
L 3047 3319 
L 1778 2088 
L 3175 0 
L 2481 0 
L 1384 1697 
L 988 1316 
L 988 0 
L 425 0 
z
" transform="scale(0.015625)"/>
      </defs>
      <use xlink:href="#ArialMT-4c"/>
      <use xlink:href="#ArialMT-69" x="55.615234"/>
      <use xlink:href="#ArialMT-6e" x="77.832031"/>
      <use xlink:href="#ArialMT-6b" x="133.447266"/>
     </g>
    </g>
   </g>
   <g id="matplotlib.axis_2">
    <g id="ytick_1">
     <g id="line2d_8">
      <defs>
       <path id="mfa50a4d9d7" d="M 0 0 
L -6 0 
" style="stroke: #262626; stroke-width: 1.25"/>
      </defs>
      <g>
       <use xlink:href="#mfa50a4d9d7" x="63" y="320.4" style="fill: #262626; stroke: #262626; stroke-width: 1.25"/>
      </g>
     </g>
     <g id="text_9">
      <!-- 0 -->
      <g style="fill: #262626" transform="translate(47.382969 324.336797) scale(0.11 -0.11)">
       <use xlink:href="#ArialMT-30"/>
      </g>
     </g>
    </g>
    <g id="ytick_2">
     <g id="line2d_9">
      <g>
       <use xlink:href="#mfa50a4d9d7" x="63" y="269.435144" style="fill: #262626; stroke: #262626; stroke-width: 1.25"/>
      </g>
     </g>
     <g id="text_10">
      <!-- 5000 -->
      <g style="fill: #262626" transform="translate(29.031875 273.371941) scale(0.11 -0.11)">
       <use xlink:href="#ArialMT-35"/>
       <use xlink:href="#ArialMT-30" x="55.615234"/>
       <use xlink:href="#ArialMT-30" x="111.230469"/>
       <use xlink:href="#ArialMT-30" x="166.845703"/>
      </g>
     </g>
    </g>
    <g id="ytick_3">
     <g id="line2d_10">
      <g>
       <use xlink:href="#mfa50a4d9d7" x="63" y="218.470288" style="fill: #262626; stroke: #262626; stroke-width: 1.25"/>
      </g>
     </g>
     <g id="text_11">
      <!-- 10000 -->
      <g style="fill: #262626" transform="translate(22.914844 222.407085) scale(0.11 -0.11)">
       <use xlink:href="#ArialMT-31"/>
       <use xlink:href="#ArialMT-30" x="55.615234"/>
       <use xlink:href="#ArialMT-30" x="111.230469"/>
       <use xlink:href="#ArialMT-30" x="166.845703"/>
       <use xlink:href="#ArialMT-30" x="222.460938"/>
      </g>
     </g>
    </g>
    <g id="ytick_4">
     <g id="line2d_11">
      <g>
       <use xlink:href="#mfa50a4d9d7" x="63" y="167.505432" style="fill: #262626; stroke: #262626; stroke-width: 1.25"/>
      </g>
     </g>
     <g id="text_12">
      <!-- 15000 -->
      <g style="fill: #262626" transform="translate(22.914844 171.442228) scale(0.11 -0.11)">
       <use xlink:href="#ArialMT-31"/>
       <use xlink:href="#ArialMT-35" x="55.615234"/>
       <use xlink:href="#ArialMT-30" x="111.230469"/>
       <use xlink:href="#ArialMT-30" x="166.845703"/>
       <use xlink:href="#ArialMT-30" x="222.460938"/>
      </g>
     </g>
    </g>
    <g id="ytick_5">
     <g id="line2d_12">
      <g>
       <use xlink:href="#mfa50a4d9d7" x="63" y="116.540575" style="fill: #262626; stroke: #262626; stroke-width: 1.25"/>
      </g>
     </g>
     <g id="text_13">
      <!-- 20000 -->
      <g style="fill: #262626" transform="translate(22.914844 120.477372) scale(0.11 -0.11)">
       <use xlink:href="#ArialMT-32"/>
       <use xlink:href="#ArialMT-30" x="55.615234"/>
       <use xlink:href="#ArialMT-30" x="111.230469"/>
       <use xlink:href="#ArialMT-30" x="166.845703"/>
       <use xlink:href="#ArialMT-30" x="222.460938"/>
      </g>
     </g>
    </g>
    <g id="ytick_6">
     <g id="line2d_13">
      <g>
       <use xlink:href="#mfa50a4d9d7" x="63" y="65.575719" style="fill: #262626; stroke: #262626; stroke-width: 1.25"/>
      </g>
     </g>
     <g id="text_14">
      <!-- 25000 -->
      <g style="fill: #262626" transform="translate(22.914844 69.512516) scale(0.11 -0.11)">
       <use xlink:href="#ArialMT-32"/>
       <use xlink:href="#ArialMT-35" x="55.615234"/>
       <use xlink:href="#ArialMT-30" x="111.230469"/>
       <use xlink:href="#ArialMT-30" x="166.845703"/>
       <use xlink:href="#ArialMT-30" x="222.460938"/>
      </g>
     </g>
    </g>
    <g id="text_15">
     <!-- Capacity -->
     <g style="fill: #262626" transform="translate(16.389219 205.142812) rotate(-90) scale(0.12 -0.12)">
      <defs>
       <path id="ArialMT-43" d="M 3763 1606 
L 4369 1453 
Q 4178 706 3683 314 
Q 3188 -78 2472 -78 
Q 1731 -78 1267 223 
Q 803 525 561 1097 
Q 319 1669 319 2325 
Q 319 3041 592 3573 
Q 866 4106 1370 4382 
Q 1875 4659 2481 4659 
Q 3169 4659 3637 4309 
Q 4106 3959 4291 3325 
L 3694 3184 
Q 3534 3684 3231 3912 
Q 2928 4141 2469 4141 
Q 1941 4141 1586 3887 
Q 1231 3634 1087 3207 
Q 944 2781 944 2328 
Q 944 1744 1114 1308 
Q 1284 872 1643 656 
Q 2003 441 2422 441 
Q 2931 441 3284 734 
Q 3638 1028 3763 1606 
z
" transform="scale(0.015625)"/>
       <path id="ArialMT-61" d="M 2588 409 
Q 2275 144 1986 34 
Q 1697 -75 1366 -75 
Q 819 -75 525 192 
Q 231 459 231 875 
Q 231 1119 342 1320 
Q 453 1522 633 1644 
Q 813 1766 1038 1828 
Q 1203 1872 1538 1913 
Q 2219 1994 2541 2106 
Q 2544 2222 2544 2253 
Q 2544 2597 2384 2738 
Q 2169 2928 1744 2928 
Q 1347 2928 1158 2789 
Q 969 2650 878 2297 
L 328 2372 
Q 403 2725 575 2942 
Q 747 3159 1072 3276 
Q 1397 3394 1825 3394 
Q 2250 3394 2515 3294 
Q 2781 3194 2906 3042 
Q 3031 2891 3081 2659 
Q 3109 2516 3109 2141 
L 3109 1391 
Q 3109 606 3145 398 
Q 3181 191 3288 0 
L 2700 0 
Q 2613 175 2588 409 
z
M 2541 1666 
Q 2234 1541 1622 1453 
Q 1275 1403 1131 1340 
Q 988 1278 909 1158 
Q 831 1038 831 891 
Q 831 666 1001 516 
Q 1172 366 1500 366 
Q 1825 366 2078 508 
Q 2331 650 2450 897 
Q 2541 1088 2541 1459 
L 2541 1666 
z
" transform="scale(0.015625)"/>
       <path id="ArialMT-70" d="M 422 -1272 
L 422 3319 
L 934 3319 
L 934 2888 
Q 1116 3141 1344 3267 
Q 1572 3394 1897 3394 
Q 2322 3394 2647 3175 
Q 2972 2956 3137 2557 
Q 3303 2159 3303 1684 
Q 3303 1175 3120 767 
Q 2938 359 2589 142 
Q 2241 -75 1856 -75 
Q 1575 -75 1351 44 
Q 1128 163 984 344 
L 984 -1272 
L 422 -1272 
z
M 931 1641 
Q 931 1000 1190 694 
Q 1450 388 1819 388 
Q 2194 388 2461 705 
Q 2728 1022 2728 1688 
Q 2728 2322 2467 2637 
Q 2206 2953 1844 2953 
Q 1484 2953 1207 2617 
Q 931 2281 931 1641 
z
" transform="scale(0.015625)"/>
       <path id="ArialMT-63" d="M 2588 1216 
L 3141 1144 
Q 3050 572 2676 248 
Q 2303 -75 1759 -75 
Q 1078 -75 664 370 
Q 250 816 250 1647 
Q 250 2184 428 2587 
Q 606 2991 970 3192 
Q 1334 3394 1763 3394 
Q 2303 3394 2647 3120 
Q 2991 2847 3088 2344 
L 2541 2259 
Q 2463 2594 2264 2762 
Q 2066 2931 1784 2931 
Q 1359 2931 1093 2626 
Q 828 2322 828 1663 
Q 828 994 1084 691 
Q 1341 388 1753 388 
Q 2084 388 2306 591 
Q 2528 794 2588 1216 
z
" transform="scale(0.015625)"/>
       <path id="ArialMT-74" d="M 1650 503 
L 1731 6 
Q 1494 -44 1306 -44 
Q 1000 -44 831 53 
Q 663 150 594 308 
Q 525 466 525 972 
L 525 2881 
L 113 2881 
L 113 3319 
L 525 3319 
L 525 4141 
L 1084 4478 
L 1084 3319 
L 1650 3319 
L 1650 2881 
L 1084 2881 
L 1084 941 
Q 1084 700 1114 631 
Q 1144 563 1211 522 
Q 1278 481 1403 481 
Q 1497 481 1650 503 
z
" transform="scale(0.015625)"/>
       <path id="ArialMT-79" d="M 397 -1278 
L 334 -750 
Q 519 -800 656 -800 
Q 844 -800 956 -737 
Q 1069 -675 1141 -563 
Q 1194 -478 1313 -144 
Q 1328 -97 1363 -6 
L 103 3319 
L 709 3319 
L 1400 1397 
Q 1534 1031 1641 628 
Q 1738 1016 1872 1384 
L 2581 3319 
L 3144 3319 
L 1881 -56 
Q 1678 -603 1566 -809 
Q 1416 -1088 1222 -1217 
Q 1028 -1347 759 -1347 
Q 597 -1347 397 -1278 
z
" transform="scale(0.015625)"/>
      </defs>
      <use xlink:href="#ArialMT-43"/>
      <use xlink:href="#ArialMT-61" x="72.216797"/>
      <use xlink:href="#ArialMT-70" x="127.832031"/>
      <use xlink:href="#ArialMT-61" x="183.447266"/>
      <use xlink:href="#ArialMT-63" x="239.0625"/>
      <use xlink:href="#ArialMT-69" x="289.0625"/>
      <use xlink:href="#ArialMT-74" x="311.279297"/>
      <use xlink:href="#ArialMT-79" x="339.0625"/>
     </g>
    </g>
   </g>
   <g id="patch_3">
    <path d="M 63.513947 320.4 
L 67.625526 320.4 
L 67.625526 56.4 
L 63.513947 56.4 
z
" clip-path="url(#pd4620ce47f)" style="fill: #857aab; stroke: #4c4c4c; stroke-linejoin: miter"/>
   </g>
   <g id="patch_4">
    <path d="M 68.653421 320.4 
L 72.765 320.4 
L 72.765 81.849071 
L 68.653421 81.849071 
z
" clip-path="url(#pd4620ce47f)" style="fill: #877cac; stroke: #4c4c4c; stroke-linejoin: miter"/>
   </g>
   <g id="patch_5">
    <path d="M 73.792895 320.4 
L 77.904474 320.4 
L 77.904474 56.4 
L 73.792895 56.4 
z
" clip-path="url(#pd4620ce47f)" style="fill: #887dad; stroke: #4c4c4c; stroke-linejoin: miter"/>
   </g>
   <g id="patch_6">
    <path d="M 78.932368 320.4 
L 83.043947 320.4 
L 83.043947 269.861404 
L 78.932368 269.861404 
z
" clip-path="url(#pd4620ce47f)" style="fill: #8a7fae; stroke: #4c4c4c; stroke-linejoin: miter"/>
   </g>
   <g id="patch_7">
    <path d="M 84.071842 320.4 
L 88.183421 320.4 
L 88.183421 81.849071 
L 84.071842 81.849071 
z
" clip-path="url(#pd4620ce47f)" style="fill: #8b80ae; stroke: #4c4c4c; stroke-linejoin: miter"/>
   </g>
   <g id="patch_8">
    <path d="M 89.211316 320.4 
L 93.322895 320.4 
L 93.322895 145.992924 
L 89.211316 145.992924 
z
" clip-path="url(#pd4620ce47f)" style="fill: #8d82b0; stroke: #4c4c4c; stroke-linejoin: miter"/>
   </g>
   <g id="patch_9">
    <path d="M 94.350789 320.4 
L 98.462368 320.4 
L 98.462368 81.849071 
L 94.350789 81.849071 
z
" clip-path="url(#pd4620ce47f)" style="fill: #8e83b0; stroke: #4c4c4c; stroke-linejoin: miter"/>
   </g>
   <g id="patch_10">
    <path d="M 99.490263 320.4 
L 103.601842 320.4 
L 103.601842 145.992924 
L 99.490263 145.992924 
z
" clip-path="url(#pd4620ce47f)" style="fill: #8f85b1; stroke: #4c4c4c; stroke-linejoin: miter"/>
   </g>
   <g id="patch_11">
    <path d="M 104.629737 320.4 
L 108.741316 320.4 
L 108.741316 139.140491 
L 104.629737 139.140491 
z
" clip-path="url(#pd4620ce47f)" style="fill: #9187b2; stroke: #4c4c4c; stroke-linejoin: miter"/>
   </g>
   <g id="patch_12">
    <path d="M 109.769211 320.4 
L 113.880789 320.4 
L 113.880789 270.36447 
L 109.769211 270.36447 
z
" clip-path="url(#pd4620ce47f)" style="fill: #9288b3; stroke: #4c4c4c; stroke-linejoin: miter"/>
   </g>
   <g id="patch_13">
    <path d="M 114.908684 320.4 
L 119.020263 320.4 
L 119.020263 139.140491 
L 114.908684 139.140491 
z
" clip-path="url(#pd4620ce47f)" style="fill: #948ab4; stroke: #4c4c4c; stroke-linejoin: miter"/>
   </g>
   <g id="patch_14">
    <path d="M 120.048158 320.4 
L 124.159737 320.4 
L 124.159737 269.965225 
L 120.048158 269.965225 
z
" clip-path="url(#pd4620ce47f)" style="fill: #958bb5; stroke: #4c4c4c; stroke-linejoin: miter"/>
   </g>
   <g id="patch_15">
    <path d="M 125.187632 320.4 
L 129.299211 320.4 
L 129.299211 218.470288 
L 125.187632 218.470288 
z
" clip-path="url(#pd4620ce47f)" style="fill: #968db6; stroke: #4c4c4c; stroke-linejoin: miter"/>
   </g>
   <g id="patch_16">
    <path d="M 130.327105 320.4 
L 134.438684 320.4 
L 134.438684 269.861404 
L 130.327105 269.861404 
z
" clip-path="url(#pd4620ce47f)" style="fill: #988fb7; stroke: #4c4c4c; stroke-linejoin: miter"/>
   </g>
   <g id="patch_17">
    <path d="M 135.466579 320.4 
L 139.578158 320.4 
L 139.578158 269.965225 
L 135.466579 269.965225 
z
" clip-path="url(#pd4620ce47f)" style="fill: #9990b8; stroke: #4c4c4c; stroke-linejoin: miter"/>
   </g>
   <g id="patch_18">
    <path d="M 140.606053 320.4 
L 144.717632 320.4 
L 144.717632 270.468837 
L 140.606053 270.468837 
z
" clip-path="url(#pd4620ce47f)" style="fill: #9b92b9; stroke: #4c4c4c; stroke-linejoin: miter"/>
   </g>
   <g id="patch_19">
    <path d="M 145.745526 320.4 
L 149.857105 320.4 
L 149.857105 240.468643 
L 145.745526 240.468643 
z
" clip-path="url(#pd4620ce47f)" style="fill: #9c93ba; stroke: #4c4c4c; stroke-linejoin: miter"/>
   </g>
   <g id="patch_20">
    <path d="M 150.885 320.4 
L 154.996579 320.4 
L 154.996579 81.849071 
L 150.885 81.849071 
z
" clip-path="url(#pd4620ce47f)" style="fill: #9e95bb; stroke: #4c4c4c; stroke-linejoin: miter"/>
   </g>
   <g id="patch_21">
    <path d="M 156.024474 320.4 
L 160.136053 320.4 
L 160.136053 270.468837 
L 156.024474 270.468837 
z
" clip-path="url(#pd4620ce47f)" style="fill: #9f96bc; stroke: #4c4c4c; stroke-linejoin: miter"/>
   </g>
   <g id="patch_22">
    <path d="M 161.163947 320.4 
L 165.275526 320.4 
L 165.275526 240.468643 
L 161.163947 240.468643 
z
" clip-path="url(#pd4620ce47f)" style="fill: #a098bd; stroke: #4c4c4c; stroke-linejoin: miter"/>
   </g>
   <g id="patch_23">
    <path d="M 166.303421 320.4 
L 170.415 320.4 
L 170.415 268.923526 
L 166.303421 268.923526 
z
" clip-path="url(#pd4620ce47f)" style="fill: #a29abe; stroke: #4c4c4c; stroke-linejoin: miter"/>
   </g>
   <g id="patch_24">
    <path d="M 171.442895 320.4 
L 175.554474 320.4 
L 175.554474 268.968076 
L 171.442895 268.968076 
z
" clip-path="url(#pd4620ce47f)" style="fill: #a39bbf; stroke: #4c4c4c; stroke-linejoin: miter"/>
   </g>
   <g id="patch_25">
    <path d="M 176.582368 320.4 
L 180.693947 320.4 
L 180.693947 218.470288 
L 176.582368 218.470288 
z
" clip-path="url(#pd4620ce47f)" style="fill: #a59dc0; stroke: #4c4c4c; stroke-linejoin: miter"/>
   </g>
   <g id="patch_26">
    <path d="M 181.721842 320.4 
L 185.833421 320.4 
L 185.833421 268.923526 
L 181.721842 268.923526 
z
" clip-path="url(#pd4620ce47f)" style="fill: #a69ec0; stroke: #4c4c4c; stroke-linejoin: miter"/>
   </g>
   <g id="patch_27">
    <path d="M 186.861316 320.4 
L 190.972895 320.4 
L 190.972895 178.556769 
L 186.861316 178.556769 
z
" clip-path="url(#pd4620ce47f)" style="fill: #a7a0c1; stroke: #4c4c4c; stroke-linejoin: miter"/>
   </g>
   <g id="patch_28">
    <path d="M 192.000789 320.4 
L 196.112368 320.4 
L 196.112368 178.556769 
L 192.000789 178.556769 
z
" clip-path="url(#pd4620ce47f)" style="fill: #a9a2c2; stroke: #4c4c4c; stroke-linejoin: miter"/>
   </g>
   <g id="patch_29">
    <path d="M 197.140263 320.4 
L 201.251842 320.4 
L 201.251842 218.470288 
L 197.140263 218.470288 
z
" clip-path="url(#pd4620ce47f)" style="fill: #aaa3c3; stroke: #4c4c4c; stroke-linejoin: miter"/>
   </g>
   <g id="patch_30">
    <path d="M 202.279737 320.4 
L 206.391316 320.4 
L 206.391316 182.672557 
L 202.279737 182.672557 
z
" clip-path="url(#pd4620ce47f)" style="fill: #aca5c4; stroke: #4c4c4c; stroke-linejoin: miter"/>
   </g>
   <g id="patch_31">
    <path d="M 207.419211 320.4 
L 211.530789 320.4 
L 211.530789 270.913963 
L 207.419211 270.913963 
z
" clip-path="url(#pd4620ce47f)" style="fill: #ada6c5; stroke: #4c4c4c; stroke-linejoin: miter"/>
   </g>
   <g id="patch_32">
    <path d="M 212.558684 320.4 
L 216.670263 320.4 
L 216.670263 269.501289 
L 212.558684 269.501289 
z
" clip-path="url(#pd4620ce47f)" style="fill: #afa8c6; stroke: #4c4c4c; stroke-linejoin: miter"/>
   </g>
   <g id="patch_33">
    <path d="M 217.698158 320.4 
L 221.809737 320.4 
L 221.809737 270.36447 
L 217.698158 270.36447 
z
" clip-path="url(#pd4620ce47f)" style="fill: #b0aac7; stroke: #4c4c4c; stroke-linejoin: miter"/>
   </g>
   <g id="patch_34">
    <path d="M 222.837632 320.4 
L 226.949211 320.4 
L 226.949211 218.470288 
L 222.837632 218.470288 
z
" clip-path="url(#pd4620ce47f)" style="fill: #b2abc8; stroke: #4c4c4c; stroke-linejoin: miter"/>
   </g>
   <g id="patch_35">
    <path d="M 227.977105 320.4 
L 232.088684 320.4 
L 232.088684 270.36447 
L 227.977105 270.36447 
z
" clip-path="url(#pd4620ce47f)" style="fill: #b3adc9; stroke: #4c4c4c; stroke-linejoin: miter"/>
   </g>
   <g id="patch_36">
    <path d="M 233.116579 320.4 
L 237.228158 320.4 
L 237.228158 270.693891 
L 233.116579 270.693891 
z
" clip-path="url(#pd4620ce47f)" style="fill: #b5aeca; stroke: #4c4c4c; stroke-linejoin: miter"/>
   </g>
   <g id="patch_37">
    <path d="M 238.256053 320.4 
L 242.367632 320.4 
L 242.367632 81.849071 
L 238.256053 81.849071 
z
" clip-path="url(#pd4620ce47f)" style="fill: #b6b0cb; stroke: #4c4c4c; stroke-linejoin: miter"/>
   </g>
   <g id="patch_38">
    <path d="M 243.395526 320.4 
L 247.507105 320.4 
L 247.507105 270.36447 
L 243.395526 270.36447 
z
" clip-path="url(#pd4620ce47f)" style="fill: #b7b1cc; stroke: #4c4c4c; stroke-linejoin: miter"/>
   </g>
   <g id="patch_39">
    <path d="M 248.535 320.4 
L 252.646579 320.4 
L 252.646579 56.4 
L 248.535 56.4 
z
" clip-path="url(#pd4620ce47f)" style="fill: #b9b3cd; stroke: #4c4c4c; stroke-linejoin: miter"/>
   </g>
   <g id="patch_40">
    <path d="M 253.674474 320.4 
L 257.786053 320.4 
L 257.786053 56.4 
L 253.674474 56.4 
z
" clip-path="url(#pd4620ce47f)" style="fill: #bab5ce; stroke: #4c4c4c; stroke-linejoin: miter"/>
   </g>
   <g id="patch_41">
    <path d="M 258.813947 320.4 
L 262.925526 320.4 
L 262.925526 268.504973 
L 258.813947 268.504973 
z
" clip-path="url(#pd4620ce47f)" style="fill: #bcb6cf; stroke: #4c4c4c; stroke-linejoin: miter"/>
   </g>
   <g id="patch_42">
    <path d="M 263.953421 320.4 
L 268.065 320.4 
L 268.065 270.693891 
L 263.953421 270.693891 
z
" clip-path="url(#pd4620ce47f)" style="fill: #bdb8d0; stroke: #4c4c4c; stroke-linejoin: miter"/>
   </g>
   <g id="patch_43">
    <path d="M 269.092895 320.4 
L 273.204474 320.4 
L 273.204474 268.135274 
L 269.092895 268.135274 
z
" clip-path="url(#pd4620ce47f)" style="fill: #bfb9d0; stroke: #4c4c4c; stroke-linejoin: miter"/>
   </g>
   <g id="patch_44">
    <path d="M 274.232368 320.4 
L 278.343947 320.4 
L 278.343947 270.201751 
L 274.232368 270.201751 
z
" clip-path="url(#pd4620ce47f)" style="fill: #c0bbd1; stroke: #4c4c4c; stroke-linejoin: miter"/>
   </g>
   <g id="patch_45">
    <path d="M 279.371842 320.4 
L 283.483421 320.4 
L 283.483421 182.672557 
L 279.371842 182.672557 
z
" clip-path="url(#pd4620ce47f)" style="fill: #c2bdd2; stroke: #4c4c4c; stroke-linejoin: miter"/>
   </g>
   <g id="patch_46">
    <path d="M 284.511316 320.4 
L 288.622895 320.4 
L 288.622895 268.135274 
L 284.511316 268.135274 
z
" clip-path="url(#pd4620ce47f)" style="fill: #c3bed3; stroke: #4c4c4c; stroke-linejoin: miter"/>
   </g>
   <g id="patch_47">
    <path d="M 289.650789 320.4 
L 293.762368 320.4 
L 293.762368 171.94189 
L 289.650789 171.94189 
z
" clip-path="url(#pd4620ce47f)" style="fill: #c5c0d4; stroke: #4c4c4c; stroke-linejoin: miter"/>
   </g>
   <g id="patch_48">
    <path d="M 294.790263 320.4 
L 298.901842 320.4 
L 298.901842 222.555829 
L 294.790263 222.555829 
z
" clip-path="url(#pd4620ce47f)" style="fill: #c6c1d5; stroke: #4c4c4c; stroke-linejoin: miter"/>
   </g>
   <g id="patch_49">
    <path d="M 299.929737 320.4 
L 304.041316 320.4 
L 304.041316 268.968076 
L 299.929737 268.968076 
z
" clip-path="url(#pd4620ce47f)" style="fill: #c7c3d6; stroke: #4c4c4c; stroke-linejoin: miter"/>
   </g>
   <g id="patch_50">
    <path d="M 305.069211 320.4 
L 309.180789 320.4 
L 309.180789 270.913963 
L 305.069211 270.913963 
z
" clip-path="url(#pd4620ce47f)" style="fill: #c9c4d7; stroke: #4c4c4c; stroke-linejoin: miter"/>
   </g>
   <g id="patch_51">
    <path d="M 310.208684 320.4 
L 314.320263 320.4 
L 314.320263 267.091677 
L 310.208684 267.091677 
z
" clip-path="url(#pd4620ce47f)" style="fill: #cac6d8; stroke: #4c4c4c; stroke-linejoin: miter"/>
   </g>
   <g id="patch_52">
    <path d="M 315.348158 320.4 
L 319.459737 320.4 
L 319.459737 119.803379 
L 315.348158 119.803379 
z
" clip-path="url(#pd4620ce47f)" style="fill: #ccc8d9; stroke: #4c4c4c; stroke-linejoin: miter"/>
   </g>
   <g id="patch_53">
    <path d="M 320.487632 320.4 
L 324.599211 320.4 
L 324.599211 269.501289 
L 320.487632 269.501289 
z
" clip-path="url(#pd4620ce47f)" style="fill: #cdc9da; stroke: #4c4c4c; stroke-linejoin: miter"/>
   </g>
   <g id="patch_54">
    <path d="M 325.627105 320.4 
L 329.738684 320.4 
L 329.738684 267.091677 
L 325.627105 267.091677 
z
" clip-path="url(#pd4620ce47f)" style="fill: #cfcbdb; stroke: #4c4c4c; stroke-linejoin: miter"/>
   </g>
   <g id="patch_55">
    <path d="M 330.766579 320.4 
L 334.878158 320.4 
L 334.878158 271.229608 
L 330.766579 271.229608 
z
" clip-path="url(#pd4620ce47f)" style="fill: #d0ccdc; stroke: #4c4c4c; stroke-linejoin: miter"/>
   </g>
   <g id="patch_56">
    <path d="M 335.906053 320.4 
L 340.017632 320.4 
L 340.017632 81.849071 
L 335.906053 81.849071 
z
" clip-path="url(#pd4620ce47f)" style="fill: #d1cedd; stroke: #4c4c4c; stroke-linejoin: miter"/>
   </g>
   <g id="patch_57">
    <path d="M 341.045526 320.4 
L 345.157105 320.4 
L 345.157105 119.803379 
L 341.045526 119.803379 
z
" clip-path="url(#pd4620ce47f)" style="fill: #d3d0de; stroke: #4c4c4c; stroke-linejoin: miter"/>
   </g>
   <g id="patch_58">
    <path d="M 346.185 320.4 
L 350.296579 320.4 
L 350.296579 81.849071 
L 346.185 81.849071 
z
" clip-path="url(#pd4620ce47f)" style="fill: #d4d1df; stroke: #4c4c4c; stroke-linejoin: miter"/>
   </g>
   <g id="patch_59">
    <path d="M 351.324474 320.4 
L 355.436053 320.4 
L 355.436053 171.94189 
L 351.324474 171.94189 
z
" clip-path="url(#pd4620ce47f)" style="fill: #d6d3e0; stroke: #4c4c4c; stroke-linejoin: miter"/>
   </g>
   <g id="patch_60">
    <path d="M 356.463947 320.4 
L 360.575526 320.4 
L 360.575526 271.229608 
L 356.463947 271.229608 
z
" clip-path="url(#pd4620ce47f)" style="fill: #d7d4e1; stroke: #4c4c4c; stroke-linejoin: miter"/>
   </g>
   <g id="patch_61">
    <path d="M 361.603421 320.4 
L 365.715 320.4 
L 365.715 269.408565 
L 361.603421 269.408565 
z
" clip-path="url(#pd4620ce47f)" style="fill: #d8d6e1; stroke: #4c4c4c; stroke-linejoin: miter"/>
   </g>
   <g id="patch_62">
    <path d="M 366.742895 320.4 
L 370.854474 320.4 
L 370.854474 81.849071 
L 366.742895 81.849071 
z
" clip-path="url(#pd4620ce47f)" style="fill: #dad8e2; stroke: #4c4c4c; stroke-linejoin: miter"/>
   </g>
   <g id="patch_63">
    <path d="M 371.882368 320.4 
L 375.993947 320.4 
L 375.993947 269.408565 
L 371.882368 269.408565 
z
" clip-path="url(#pd4620ce47f)" style="fill: #dbd9e3; stroke: #4c4c4c; stroke-linejoin: miter"/>
   </g>
   <g id="patch_64">
    <path d="M 377.021842 320.4 
L 381.133421 320.4 
L 381.133421 268.824459 
L 377.021842 268.824459 
z
" clip-path="url(#pd4620ce47f)" style="fill: #dddbe4; stroke: #4c4c4c; stroke-linejoin: miter"/>
   </g>
   <g id="patch_65">
    <path d="M 382.161316 320.4 
L 386.272895 320.4 
L 386.272895 268.663565 
L 382.161316 268.663565 
z
" clip-path="url(#pd4620ce47f)" style="fill: #dedce5; stroke: #4c4c4c; stroke-linejoin: miter"/>
   </g>
   <g id="patch_66">
    <path d="M 387.300789 320.4 
L 391.412368 320.4 
L 391.412368 268.824459 
L 387.300789 268.824459 
z
" clip-path="url(#pd4620ce47f)" style="fill: #e0dee6; stroke: #4c4c4c; stroke-linejoin: miter"/>
   </g>
   <g id="patch_67">
    <path d="M 392.440263 320.4 
L 396.551842 320.4 
L 396.551842 267.091677 
L 392.440263 267.091677 
z
" clip-path="url(#pd4620ce47f)" style="fill: #e1dfe7; stroke: #4c4c4c; stroke-linejoin: miter"/>
   </g>
   <g id="patch_68">
    <path d="M 397.579737 320.4 
L 401.691316 320.4 
L 401.691316 270.603691 
L 397.579737 270.603691 
z
" clip-path="url(#pd4620ce47f)" style="fill: #e2e1e8; stroke: #4c4c4c; stroke-linejoin: miter"/>
   </g>
   <g id="patch_69">
    <path d="M 402.719211 320.4 
L 406.830789 320.4 
L 406.830789 222.555829 
L 402.719211 222.555829 
z
" clip-path="url(#pd4620ce47f)" style="fill: #e4e3e9; stroke: #4c4c4c; stroke-linejoin: miter"/>
   </g>
   <g id="patch_70">
    <path d="M 407.858684 320.4 
L 411.970263 320.4 
L 411.970263 268.663565 
L 407.858684 268.663565 
z
" clip-path="url(#pd4620ce47f)" style="fill: #e5e4ea; stroke: #4c4c4c; stroke-linejoin: miter"/>
   </g>
   <g id="patch_71">
    <path d="M 412.998158 320.4 
L 417.109737 320.4 
L 417.109737 267.091677 
L 412.998158 267.091677 
z
" clip-path="url(#pd4620ce47f)" style="fill: #e7e6eb; stroke: #4c4c4c; stroke-linejoin: miter"/>
   </g>
   <g id="patch_72">
    <path d="M 418.137632 320.4 
L 422.249211 320.4 
L 422.249211 269.435144 
L 418.137632 269.435144 
z
" clip-path="url(#pd4620ce47f)" style="fill: #e8e7ec; stroke: #4c4c4c; stroke-linejoin: miter"/>
   </g>
   <g id="patch_73">
    <path d="M 423.277105 320.4 
L 427.388684 320.4 
L 427.388684 270.201751 
L 423.277105 270.201751 
z
" clip-path="url(#pd4620ce47f)" style="fill: #eae9ed; stroke: #4c4c4c; stroke-linejoin: miter"/>
   </g>
   <g id="patch_74">
    <path d="M 428.416579 320.4 
L 432.528158 320.4 
L 432.528158 269.435144 
L 428.416579 269.435144 
z
" clip-path="url(#pd4620ce47f)" style="fill: #ebebee; stroke: #4c4c4c; stroke-linejoin: miter"/>
   </g>
   <g id="patch_75">
    <path d="M 433.556053 320.4 
L 437.667632 320.4 
L 437.667632 268.63491 
L 433.556053 268.63491 
z
" clip-path="url(#pd4620ce47f)" style="fill: #edecef; stroke: #4c4c4c; stroke-linejoin: miter"/>
   </g>
   <g id="patch_76">
    <path d="M 438.695526 320.4 
L 442.807105 320.4 
L 442.807105 268.504973 
L 438.695526 268.504973 
z
" clip-path="url(#pd4620ce47f)" style="fill: #eeeef0; stroke: #4c4c4c; stroke-linejoin: miter"/>
   </g>
   <g id="patch_77">
    <path d="M 443.835 320.4 
L 447.946579 320.4 
L 447.946579 270.603691 
L 443.835 270.603691 
z
" clip-path="url(#pd4620ce47f)" style="fill: #efeff1; stroke: #4c4c4c; stroke-linejoin: miter"/>
   </g>
   <g id="patch_78">
    <path d="M 448.974474 320.4 
L 453.086053 320.4 
L 453.086053 268.63491 
L 448.974474 268.63491 
z
" clip-path="url(#pd4620ce47f)" style="fill: #f1f1f1; stroke: #4c4c4c; stroke-linejoin: miter"/>
   </g>
   <g id="line2d_14">
    <path clip-path="url(#pd4620ce47f)" style="fill: none; stroke: #424242; stroke-width: 2.7; stroke-linecap: round"/>
   </g>
   <g id="line2d_15">
    <path clip-path="url(#pd4620ce47f)" style="fill: none; stroke: #424242; stroke-width: 2.7; stroke-linecap: round"/>
   </g>
   <g id="line2d_16">
    <path clip-path="url(#pd4620ce47f)" style="fill: none; stroke: #424242; stroke-width: 2.7; stroke-linecap: round"/>
   </g>
   <g id="line2d_17">
    <path clip-path="url(#pd4620ce47f)" style="fill: none; stroke: #424242; stroke-width: 2.7; stroke-linecap: round"/>
   </g>
   <g id="line2d_18">
    <path clip-path="url(#pd4620ce47f)" style="fill: none; stroke: #424242; stroke-width: 2.7; stroke-linecap: round"/>
   </g>
   <g id="line2d_19">
    <path clip-path="url(#pd4620ce47f)" style="fill: none; stroke: #424242; stroke-width: 2.7; stroke-linecap: round"/>
   </g>
   <g id="line2d_20">
    <path clip-path="url(#pd4620ce47f)" style="fill: none; stroke: #424242; stroke-width: 2.7; stroke-linecap: round"/>
   </g>
   <g id="line2d_21">
    <path clip-path="url(#pd4620ce47f)" style="fill: none; stroke: #424242; stroke-width: 2.7; stroke-linecap: round"/>
   </g>
   <g id="line2d_22">
    <path clip-path="url(#pd4620ce47f)" style="fill: none; stroke: #424242; stroke-width: 2.7; stroke-linecap: round"/>
   </g>
   <g id="line2d_23">
    <path clip-path="url(#pd4620ce47f)" style="fill: none; stroke: #424242; stroke-width: 2.7; stroke-linecap: round"/>
   </g>
   <g id="line2d_24">
    <path clip-path="url(#pd4620ce47f)" style="fill: none; stroke: #424242; stroke-width: 2.7; stroke-linecap: round"/>
   </g>
   <g id="line2d_25">
    <path clip-path="url(#pd4620ce47f)" style="fill: none; stroke: #424242; stroke-width: 2.7; stroke-linecap: round"/>
   </g>
   <g id="line2d_26">
    <path clip-path="url(#pd4620ce47f)" style="fill: none; stroke: #424242; stroke-width: 2.7; stroke-linecap: round"/>
   </g>
   <g id="line2d_27">
    <path clip-path="url(#pd4620ce47f)" style="fill: none; stroke: #424242; stroke-width: 2.7; stroke-linecap: round"/>
   </g>
   <g id="line2d_28">
    <path clip-path="url(#pd4620ce47f)" style="fill: none; stroke: #424242; stroke-width: 2.7; stroke-linecap: round"/>
   </g>
   <g id="line2d_29">
    <path clip-path="url(#pd4620ce47f)" style="fill: none; stroke: #424242; stroke-width: 2.7; stroke-linecap: round"/>
   </g>
   <g id="line2d_30">
    <path clip-path="url(#pd4620ce47f)" style="fill: none; stroke: #424242; stroke-width: 2.7; stroke-linecap: round"/>
   </g>
   <g id="line2d_31">
    <path clip-path="url(#pd4620ce47f)" style="fill: none; stroke: #424242; stroke-width: 2.7; stroke-linecap: round"/>
   </g>
   <g id="line2d_32">
    <path clip-path="url(#pd4620ce47f)" style="fill: none; stroke: #424242; stroke-width: 2.7; stroke-linecap: round"/>
   </g>
   <g id="line2d_33">
    <path clip-path="url(#pd4620ce47f)" style="fill: none; stroke: #424242; stroke-width: 2.7; stroke-linecap: round"/>
   </g>
   <g id="line2d_34">
    <path clip-path="url(#pd4620ce47f)" style="fill: none; stroke: #424242; stroke-width: 2.7; stroke-linecap: round"/>
   </g>
   <g id="line2d_35">
    <path clip-path="url(#pd4620ce47f)" style="fill: none; stroke: #424242; stroke-width: 2.7; stroke-linecap: round"/>
   </g>
   <g id="line2d_36">
    <path clip-path="url(#pd4620ce47f)" style="fill: none; stroke: #424242; stroke-width: 2.7; stroke-linecap: round"/>
   </g>
   <g id="line2d_37">
    <path clip-path="url(#pd4620ce47f)" style="fill: none; stroke: #424242; stroke-width: 2.7; stroke-linecap: round"/>
   </g>
   <g id="line2d_38">
    <path clip-path="url(#pd4620ce47f)" style="fill: none; stroke: #424242; stroke-width: 2.7; stroke-linecap: round"/>
   </g>
   <g id="line2d_39">
    <path clip-path="url(#pd4620ce47f)" style="fill: none; stroke: #424242; stroke-width: 2.7; stroke-linecap: round"/>
   </g>
   <g id="line2d_40">
    <path clip-path="url(#pd4620ce47f)" style="fill: none; stroke: #424242; stroke-width: 2.7; stroke-linecap: round"/>
   </g>
   <g id="line2d_41">
    <path clip-path="url(#pd4620ce47f)" style="fill: none; stroke: #424242; stroke-width: 2.7; stroke-linecap: round"/>
   </g>
   <g id="line2d_42">
    <path clip-path="url(#pd4620ce47f)" style="fill: none; stroke: #424242; stroke-width: 2.7; stroke-linecap: round"/>
   </g>
   <g id="line2d_43">
    <path clip-path="url(#pd4620ce47f)" style="fill: none; stroke: #424242; stroke-width: 2.7; stroke-linecap: round"/>
   </g>
   <g id="line2d_44">
    <path clip-path="url(#pd4620ce47f)" style="fill: none; stroke: #424242; stroke-width: 2.7; stroke-linecap: round"/>
   </g>
   <g id="line2d_45">
    <path clip-path="url(#pd4620ce47f)" style="fill: none; stroke: #424242; stroke-width: 2.7; stroke-linecap: round"/>
   </g>
   <g id="line2d_46">
    <path clip-path="url(#pd4620ce47f)" style="fill: none; stroke: #424242; stroke-width: 2.7; stroke-linecap: round"/>
   </g>
   <g id="line2d_47">
    <path clip-path="url(#pd4620ce47f)" style="fill: none; stroke: #424242; stroke-width: 2.7; stroke-linecap: round"/>
   </g>
   <g id="line2d_48">
    <path clip-path="url(#pd4620ce47f)" style="fill: none; stroke: #424242; stroke-width: 2.7; stroke-linecap: round"/>
   </g>
   <g id="line2d_49">
    <path clip-path="url(#pd4620ce47f)" style="fill: none; stroke: #424242; stroke-width: 2.7; stroke-linecap: round"/>
   </g>
   <g id="line2d_50">
    <path clip-path="url(#pd4620ce47f)" style="fill: none; stroke: #424242; stroke-width: 2.7; stroke-linecap: round"/>
   </g>
   <g id="line2d_51">
    <path clip-path="url(#pd4620ce47f)" style="fill: none; stroke: #424242; stroke-width: 2.7; stroke-linecap: round"/>
   </g>
   <g id="line2d_52">
    <path clip-path="url(#pd4620ce47f)" style="fill: none; stroke: #424242; stroke-width: 2.7; stroke-linecap: round"/>
   </g>
   <g id="line2d_53">
    <path clip-path="url(#pd4620ce47f)" style="fill: none; stroke: #424242; stroke-width: 2.7; stroke-linecap: round"/>
   </g>
   <g id="line2d_54">
    <path clip-path="url(#pd4620ce47f)" style="fill: none; stroke: #424242; stroke-width: 2.7; stroke-linecap: round"/>
   </g>
   <g id="line2d_55">
    <path clip-path="url(#pd4620ce47f)" style="fill: none; stroke: #424242; stroke-width: 2.7; stroke-linecap: round"/>
   </g>
   <g id="line2d_56">
    <path clip-path="url(#pd4620ce47f)" style="fill: none; stroke: #424242; stroke-width: 2.7; stroke-linecap: round"/>
   </g>
   <g id="line2d_57">
    <path clip-path="url(#pd4620ce47f)" style="fill: none; stroke: #424242; stroke-width: 2.7; stroke-linecap: round"/>
   </g>
   <g id="line2d_58">
    <path clip-path="url(#pd4620ce47f)" style="fill: none; stroke: #424242; stroke-width: 2.7; stroke-linecap: round"/>
   </g>
   <g id="line2d_59">
    <path clip-path="url(#pd4620ce47f)" style="fill: none; stroke: #424242; stroke-width: 2.7; stroke-linecap: round"/>
   </g>
   <g id="line2d_60">
    <path clip-path="url(#pd4620ce47f)" style="fill: none; stroke: #424242; stroke-width: 2.7; stroke-linecap: round"/>
   </g>
   <g id="line2d_61">
    <path clip-path="url(#pd4620ce47f)" style="fill: none; stroke: #424242; stroke-width: 2.7; stroke-linecap: round"/>
   </g>
   <g id="line2d_62">
    <path clip-path="url(#pd4620ce47f)" style="fill: none; stroke: #424242; stroke-width: 2.7; stroke-linecap: round"/>
   </g>
   <g id="line2d_63">
    <path clip-path="url(#pd4620ce47f)" style="fill: none; stroke: #424242; stroke-width: 2.7; stroke-linecap: round"/>
   </g>
   <g id="line2d_64">
    <path clip-path="url(#pd4620ce47f)" style="fill: none; stroke: #424242; stroke-width: 2.7; stroke-linecap: round"/>
   </g>
   <g id="line2d_65">
    <path clip-path="url(#pd4620ce47f)" style="fill: none; stroke: #424242; stroke-width: 2.7; stroke-linecap: round"/>
   </g>
   <g id="line2d_66">
    <path clip-path="url(#pd4620ce47f)" style="fill: none; stroke: #424242; stroke-width: 2.7; stroke-linecap: round"/>
   </g>
   <g id="line2d_67">
    <path clip-path="url(#pd4620ce47f)" style="fill: none; stroke: #424242; stroke-width: 2.7; stroke-linecap: round"/>
   </g>
   <g id="line2d_68">
    <path clip-path="url(#pd4620ce47f)" style="fill: none; stroke: #424242; stroke-width: 2.7; stroke-linecap: round"/>
   </g>
   <g id="line2d_69">
    <path clip-path="url(#pd4620ce47f)" style="fill: none; stroke: #424242; stroke-width: 2.7; stroke-linecap: round"/>
   </g>
   <g id="line2d_70">
    <path clip-path="url(#pd4620ce47f)" style="fill: none; stroke: #424242; stroke-width: 2.7; stroke-linecap: round"/>
   </g>
   <g id="line2d_71">
    <path clip-path="url(#pd4620ce47f)" style="fill: none; stroke: #424242; stroke-width: 2.7; stroke-linecap: round"/>
   </g>
   <g id="line2d_72">
    <path clip-path="url(#pd4620ce47f)" style="fill: none; stroke: #424242; stroke-width: 2.7; stroke-linecap: round"/>
   </g>
   <g id="line2d_73">
    <path clip-path="url(#pd4620ce47f)" style="fill: none; stroke: #424242; stroke-width: 2.7; stroke-linecap: round"/>
   </g>
   <g id="line2d_74">
    <path clip-path="url(#pd4620ce47f)" style="fill: none; stroke: #424242; stroke-width: 2.7; stroke-linecap: round"/>
   </g>
   <g id="line2d_75">
    <path clip-path="url(#pd4620ce47f)" style="fill: none; stroke: #424242; stroke-width: 2.7; stroke-linecap: round"/>
   </g>
   <g id="line2d_76">
    <path clip-path="url(#pd4620ce47f)" style="fill: none; stroke: #424242; stroke-width: 2.7; stroke-linecap: round"/>
   </g>
   <g id="line2d_77">
    <path clip-path="url(#pd4620ce47f)" style="fill: none; stroke: #424242; stroke-width: 2.7; stroke-linecap: round"/>
   </g>
   <g id="line2d_78">
    <path clip-path="url(#pd4620ce47f)" style="fill: none; stroke: #424242; stroke-width: 2.7; stroke-linecap: round"/>
   </g>
   <g id="line2d_79">
    <path clip-path="url(#pd4620ce47f)" style="fill: none; stroke: #424242; stroke-width: 2.7; stroke-linecap: round"/>
   </g>
   <g id="line2d_80">
    <path clip-path="url(#pd4620ce47f)" style="fill: none; stroke: #424242; stroke-width: 2.7; stroke-linecap: round"/>
   </g>
   <g id="line2d_81">
    <path clip-path="url(#pd4620ce47f)" style="fill: none; stroke: #424242; stroke-width: 2.7; stroke-linecap: round"/>
   </g>
   <g id="line2d_82">
    <path clip-path="url(#pd4620ce47f)" style="fill: none; stroke: #424242; stroke-width: 2.7; stroke-linecap: round"/>
   </g>
   <g id="line2d_83">
    <path clip-path="url(#pd4620ce47f)" style="fill: none; stroke: #424242; stroke-width: 2.7; stroke-linecap: round"/>
   </g>
   <g id="line2d_84">
    <path clip-path="url(#pd4620ce47f)" style="fill: none; stroke: #424242; stroke-width: 2.7; stroke-linecap: round"/>
   </g>
   <g id="line2d_85">
    <path clip-path="url(#pd4620ce47f)" style="fill: none; stroke: #424242; stroke-width: 2.7; stroke-linecap: round"/>
   </g>
   <g id="line2d_86">
    <path clip-path="url(#pd4620ce47f)" style="fill: none; stroke: #424242; stroke-width: 2.7; stroke-linecap: round"/>
   </g>
   <g id="line2d_87">
    <path clip-path="url(#pd4620ce47f)" style="fill: none; stroke: #424242; stroke-width: 2.7; stroke-linecap: round"/>
   </g>
   <g id="line2d_88">
    <path clip-path="url(#pd4620ce47f)" style="fill: none; stroke: #424242; stroke-width: 2.7; stroke-linecap: round"/>
   </g>
   <g id="line2d_89">
    <path clip-path="url(#pd4620ce47f)" style="fill: none; stroke: #424242; stroke-width: 2.7; stroke-linecap: round"/>
   </g>
   <g id="patch_79">
    <path d="M 63 320.4 
L 63 43.2 
" style="fill: none; stroke: #262626; stroke-width: 1.25; stroke-linejoin: miter; stroke-linecap: square"/>
   </g>
   <g id="patch_80">
    <path d="M 453.6 320.4 
L 453.6 43.2 
" style="fill: none; stroke: #262626; stroke-width: 1.25; stroke-linejoin: miter; stroke-linecap: square"/>
   </g>
   <g id="patch_81">
    <path d="M 63 320.4 
L 453.6 320.4 
" style="fill: none; stroke: #262626; stroke-width: 1.25; stroke-linejoin: miter; stroke-linecap: square"/>
   </g>
   <g id="patch_82">
    <path d="M 63 43.2 
L 453.6 43.2 
" style="fill: none; stroke: #262626; stroke-width: 1.25; stroke-linejoin: miter; stroke-linecap: square"/>
   </g>
  </g>
 </g>
 <defs>
  <clipPath id="pd4620ce47f">
   <rect x="63" y="43.2" width="390.6" height="277.2"/>
  </clipPath>
 </defs>
</svg>
