<?xml version="1.0" encoding="utf-8" standalone="no"?>
<!DOCTYPE svg PUBLIC "-//W3C//DTD SVG 1.1//EN"
  "http://www.w3.org/Graphics/SVG/1.1/DTD/svg11.dtd">
<svg xmlns:xlink="http://www.w3.org/1999/xlink" width="432pt" height="432pt" viewBox="0 0 432 432" xmlns="http://www.w3.org/2000/svg" version="1.1">
 <metadata>
  <rdf:RDF xmlns:dc="http://purl.org/dc/elements/1.1/" xmlns:cc="http://creativecommons.org/ns#" xmlns:rdf="http://www.w3.org/1999/02/22-rdf-syntax-ns#">
   <cc:Work>
    <dc:type rdf:resource="http://purl.org/dc/dcmitype/StillImage"/>
    <dc:date>2023-08-29T13:02:04.287655</dc:date>
    <dc:format>image/svg+xml</dc:format>
    <dc:creator>
     <cc:Agent>
      <dc:title>Matplotlib v3.7.1, https://matplotlib.org/</dc:title>
     </cc:Agent>
    </dc:creator>
   </cc:Work>
  </rdf:RDF>
 </metadata>
 <defs>
  <style type="text/css">*{stroke-linejoin: round; stroke-linecap: butt}</style>
 </defs>
 <g id="figure_1">
  <g id="patch_1">
   <path d="M 0 432 
L 432 432 
L 432 0 
L 0 0 
z
" style="fill: #ffffff"/>
  </g>
  <g id="axes_1">
   <g id="patch_2">
    <path d="M 52.65 384.66 
L 356.230286 384.66 
L 356.230286 76.68 
L 52.65 76.68 
z
" style="fill: #ffffff"/>
   </g>
   <g id="matplotlib.axis_1">
    <g id="xtick_1">
     <g id="line2d_1">
      <defs>
       <path id="m3e99926ed4" d="M 0 0 
L 0 6 
" style="stroke: #262626; stroke-width: 1.25"/>
      </defs>
      <g>
       <use xlink:href="#m3e99926ed4" x="78.9702" y="384.66" style="fill: #262626; stroke: #262626; stroke-width: 1.25"/>
      </g>
     </g>
     <g id="text_1">
      <!-- 5000 -->
      <g style="fill: #262626" transform="translate(66.736138 402.033594) scale(0.11 -0.11)">
       <defs>
        <path id="ArialMT-35" d="M 266 1200 
L 856 1250 
Q 922 819 1161 601 
Q 1400 384 1738 384 
Q 2144 384 2425 690 
Q 2706 997 2706 1503 
Q 2706 1984 2436 2262 
Q 2166 2541 1728 2541 
Q 1456 2541 1237 2417 
Q 1019 2294 894 2097 
L 366 2166 
L 809 4519 
L 3088 4519 
L 3088 3981 
L 1259 3981 
L 1013 2750 
Q 1425 3038 1878 3038 
Q 2478 3038 2890 2622 
Q 3303 2206 3303 1553 
Q 3303 931 2941 478 
Q 2500 -78 1738 -78 
Q 1113 -78 717 272 
Q 322 622 266 1200 
z
" transform="scale(0.015625)"/>
        <path id="ArialMT-30" d="M 266 2259 
Q 266 3072 433 3567 
Q 600 4063 929 4331 
Q 1259 4600 1759 4600 
Q 2128 4600 2406 4451 
Q 2684 4303 2865 4023 
Q 3047 3744 3150 3342 
Q 3253 2941 3253 2259 
Q 3253 1453 3087 958 
Q 2922 463 2592 192 
Q 2263 -78 1759 -78 
Q 1097 -78 719 397 
Q 266 969 266 2259 
z
M 844 2259 
Q 844 1131 1108 757 
Q 1372 384 1759 384 
Q 2147 384 2411 759 
Q 2675 1134 2675 2259 
Q 2675 3391 2411 3762 
Q 2147 4134 1753 4134 
Q 1366 4134 1134 3806 
Q 844 3388 844 2259 
z
" transform="scale(0.015625)"/>
       </defs>
       <use xlink:href="#ArialMT-35"/>
       <use xlink:href="#ArialMT-30" x="55.615234"/>
       <use xlink:href="#ArialMT-30" x="111.230469"/>
       <use xlink:href="#ArialMT-30" x="166.845703"/>
      </g>
     </g>
    </g>
    <g id="xtick_2">
     <g id="line2d_2">
      <g>
       <use xlink:href="#m3e99926ed4" x="115.301121" y="384.66" style="fill: #262626; stroke: #262626; stroke-width: 1.25"/>
      </g>
     </g>
     <g id="text_2">
      <!-- 7500 -->
      <g style="fill: #262626" transform="translate(103.067058 402.033594) scale(0.11 -0.11)">
       <defs>
        <path id="ArialMT-37" d="M 303 3981 
L 303 4522 
L 3269 4522 
L 3269 4084 
Q 2831 3619 2401 2847 
Q 1972 2075 1738 1259 
Q 1569 684 1522 0 
L 944 0 
Q 953 541 1156 1306 
Q 1359 2072 1739 2783 
Q 2119 3494 2547 3981 
L 303 3981 
z
" transform="scale(0.015625)"/>
       </defs>
       <use xlink:href="#ArialMT-37"/>
       <use xlink:href="#ArialMT-35" x="55.615234"/>
       <use xlink:href="#ArialMT-30" x="111.230469"/>
       <use xlink:href="#ArialMT-30" x="166.845703"/>
      </g>
     </g>
    </g>
    <g id="xtick_3">
     <g id="line2d_3">
      <g>
       <use xlink:href="#m3e99926ed4" x="151.632041" y="384.66" style="fill: #262626; stroke: #262626; stroke-width: 1.25"/>
      </g>
     </g>
     <g id="text_3">
      <!-- 10000 -->
      <g style="fill: #262626" transform="translate(136.339463 402.033594) scale(0.11 -0.11)">
       <defs>
        <path id="ArialMT-31" d="M 2384 0 
L 1822 0 
L 1822 3584 
Q 1619 3391 1289 3197 
Q 959 3003 697 2906 
L 697 3450 
Q 1169 3672 1522 3987 
Q 1875 4303 2022 4600 
L 2384 4600 
L 2384 0 
z
" transform="scale(0.015625)"/>
       </defs>
       <use xlink:href="#ArialMT-31"/>
       <use xlink:href="#ArialMT-30" x="55.615234"/>
       <use xlink:href="#ArialMT-30" x="111.230469"/>
       <use xlink:href="#ArialMT-30" x="166.845703"/>
       <use xlink:href="#ArialMT-30" x="222.460938"/>
      </g>
     </g>
    </g>
    <g id="xtick_4">
     <g id="line2d_4">
      <g>
       <use xlink:href="#m3e99926ed4" x="187.962961" y="384.66" style="fill: #262626; stroke: #262626; stroke-width: 1.25"/>
      </g>
     </g>
     <g id="text_4">
      <!-- 12500 -->
      <g style="fill: #262626" transform="translate(172.670383 402.033594) scale(0.11 -0.11)">
       <defs>
        <path id="ArialMT-32" d="M 3222 541 
L 3222 0 
L 194 0 
Q 188 203 259 391 
Q 375 700 629 1000 
Q 884 1300 1366 1694 
Q 2113 2306 2375 2664 
Q 2638 3022 2638 3341 
Q 2638 3675 2398 3904 
Q 2159 4134 1775 4134 
Q 1369 4134 1125 3890 
Q 881 3647 878 3216 
L 300 3275 
Q 359 3922 746 4261 
Q 1134 4600 1788 4600 
Q 2447 4600 2831 4234 
Q 3216 3869 3216 3328 
Q 3216 3053 3103 2787 
Q 2991 2522 2730 2228 
Q 2469 1934 1863 1422 
Q 1356 997 1212 845 
Q 1069 694 975 541 
L 3222 541 
z
" transform="scale(0.015625)"/>
       </defs>
       <use xlink:href="#ArialMT-31"/>
       <use xlink:href="#ArialMT-32" x="55.615234"/>
       <use xlink:href="#ArialMT-35" x="111.230469"/>
       <use xlink:href="#ArialMT-30" x="166.845703"/>
       <use xlink:href="#ArialMT-30" x="222.460938"/>
      </g>
     </g>
    </g>
    <g id="xtick_5">
     <g id="line2d_5">
      <g>
       <use xlink:href="#m3e99926ed4" x="224.293881" y="384.66" style="fill: #262626; stroke: #262626; stroke-width: 1.25"/>
      </g>
     </g>
     <g id="text_5">
      <!-- 15000 -->
      <g style="fill: #262626" transform="translate(209.001303 402.033594) scale(0.11 -0.11)">
       <use xlink:href="#ArialMT-31"/>
       <use xlink:href="#ArialMT-35" x="55.615234"/>
       <use xlink:href="#ArialMT-30" x="111.230469"/>
       <use xlink:href="#ArialMT-30" x="166.845703"/>
       <use xlink:href="#ArialMT-30" x="222.460938"/>
      </g>
     </g>
    </g>
    <g id="xtick_6">
     <g id="line2d_6">
      <g>
       <use xlink:href="#m3e99926ed4" x="260.624802" y="384.66" style="fill: #262626; stroke: #262626; stroke-width: 1.25"/>
      </g>
     </g>
     <g id="text_6">
      <!-- 17500 -->
      <g style="fill: #262626" transform="translate(245.332223 402.033594) scale(0.11 -0.11)">
       <use xlink:href="#ArialMT-31"/>
       <use xlink:href="#ArialMT-37" x="55.615234"/>
       <use xlink:href="#ArialMT-35" x="111.230469"/>
       <use xlink:href="#ArialMT-30" x="166.845703"/>
       <use xlink:href="#ArialMT-30" x="222.460938"/>
      </g>
     </g>
    </g>
    <g id="xtick_7">
     <g id="line2d_7">
      <g>
       <use xlink:href="#m3e99926ed4" x="296.955722" y="384.66" style="fill: #262626; stroke: #262626; stroke-width: 1.25"/>
      </g>
     </g>
     <g id="text_7">
      <!-- 20000 -->
      <g style="fill: #262626" transform="translate(281.663144 402.033594) scale(0.11 -0.11)">
       <use xlink:href="#ArialMT-32"/>
       <use xlink:href="#ArialMT-30" x="55.615234"/>
       <use xlink:href="#ArialMT-30" x="111.230469"/>
       <use xlink:href="#ArialMT-30" x="166.845703"/>
       <use xlink:href="#ArialMT-30" x="222.460938"/>
      </g>
     </g>
    </g>
    <g id="xtick_8">
     <g id="line2d_8">
      <g>
       <use xlink:href="#m3e99926ed4" x="333.286642" y="384.66" style="fill: #262626; stroke: #262626; stroke-width: 1.25"/>
      </g>
     </g>
     <g id="text_8">
      <!-- 22500 -->
      <g style="fill: #262626" transform="translate(317.994064 402.033594) scale(0.11 -0.11)">
       <use xlink:href="#ArialMT-32"/>
       <use xlink:href="#ArialMT-32" x="55.615234"/>
       <use xlink:href="#ArialMT-35" x="111.230469"/>
       <use xlink:href="#ArialMT-30" x="166.845703"/>
       <use xlink:href="#ArialMT-30" x="222.460938"/>
      </g>
     </g>
    </g>
    <g id="text_9">
     <!-- Flow Volume -->
     <g style="fill: #262626" transform="translate(170.092955 416.809219) scale(0.12 -0.12)">
      <defs>
       <path id="ArialMT-46" d="M 525 0 
L 525 4581 
L 3616 4581 
L 3616 4041 
L 1131 4041 
L 1131 2622 
L 3281 2622 
L 3281 2081 
L 1131 2081 
L 1131 0 
L 525 0 
z
" transform="scale(0.015625)"/>
       <path id="ArialMT-6c" d="M 409 0 
L 409 4581 
L 972 4581 
L 972 0 
L 409 0 
z
" transform="scale(0.015625)"/>
       <path id="ArialMT-6f" d="M 213 1659 
Q 213 2581 725 3025 
Q 1153 3394 1769 3394 
Q 2453 3394 2887 2945 
Q 3322 2497 3322 1706 
Q 3322 1066 3130 698 
Q 2938 331 2570 128 
Q 2203 -75 1769 -75 
Q 1072 -75 642 372 
Q 213 819 213 1659 
z
M 791 1659 
Q 791 1022 1069 705 
Q 1347 388 1769 388 
Q 2188 388 2466 706 
Q 2744 1025 2744 1678 
Q 2744 2294 2464 2611 
Q 2184 2928 1769 2928 
Q 1347 2928 1069 2612 
Q 791 2297 791 1659 
z
" transform="scale(0.015625)"/>
       <path id="ArialMT-77" d="M 1034 0 
L 19 3319 
L 600 3319 
L 1128 1403 
L 1325 691 
Q 1338 744 1497 1375 
L 2025 3319 
L 2603 3319 
L 3100 1394 
L 3266 759 
L 3456 1400 
L 4025 3319 
L 4572 3319 
L 3534 0 
L 2950 0 
L 2422 1988 
L 2294 2553 
L 1622 0 
L 1034 0 
z
" transform="scale(0.015625)"/>
       <path id="ArialMT-20" transform="scale(0.015625)"/>
       <path id="ArialMT-56" d="M 1803 0 
L 28 4581 
L 684 4581 
L 1875 1253 
Q 2019 853 2116 503 
Q 2222 878 2363 1253 
L 3600 4581 
L 4219 4581 
L 2425 0 
L 1803 0 
z
" transform="scale(0.015625)"/>
       <path id="ArialMT-75" d="M 2597 0 
L 2597 488 
Q 2209 -75 1544 -75 
Q 1250 -75 995 37 
Q 741 150 617 320 
Q 494 491 444 738 
Q 409 903 409 1263 
L 409 3319 
L 972 3319 
L 972 1478 
Q 972 1038 1006 884 
Q 1059 663 1231 536 
Q 1403 409 1656 409 
Q 1909 409 2131 539 
Q 2353 669 2445 892 
Q 2538 1116 2538 1541 
L 2538 3319 
L 3100 3319 
L 3100 0 
L 2597 0 
z
" transform="scale(0.015625)"/>
       <path id="ArialMT-6d" d="M 422 0 
L 422 3319 
L 925 3319 
L 925 2853 
Q 1081 3097 1340 3245 
Q 1600 3394 1931 3394 
Q 2300 3394 2536 3241 
Q 2772 3088 2869 2813 
Q 3263 3394 3894 3394 
Q 4388 3394 4653 3120 
Q 4919 2847 4919 2278 
L 4919 0 
L 4359 0 
L 4359 2091 
Q 4359 2428 4304 2576 
Q 4250 2725 4106 2815 
Q 3963 2906 3769 2906 
Q 3419 2906 3187 2673 
Q 2956 2441 2956 1928 
L 2956 0 
L 2394 0 
L 2394 2156 
Q 2394 2531 2256 2718 
Q 2119 2906 1806 2906 
Q 1569 2906 1367 2781 
Q 1166 2656 1075 2415 
Q 984 2175 984 1722 
L 984 0 
L 422 0 
z
" transform="scale(0.015625)"/>
       <path id="ArialMT-65" d="M 2694 1069 
L 3275 997 
Q 3138 488 2766 206 
Q 2394 -75 1816 -75 
Q 1088 -75 661 373 
Q 234 822 234 1631 
Q 234 2469 665 2931 
Q 1097 3394 1784 3394 
Q 2450 3394 2872 2941 
Q 3294 2488 3294 1666 
Q 3294 1616 3291 1516 
L 816 1516 
Q 847 969 1125 678 
Q 1403 388 1819 388 
Q 2128 388 2347 550 
Q 2566 713 2694 1069 
z
M 847 1978 
L 2700 1978 
Q 2663 2397 2488 2606 
Q 2219 2931 1791 2931 
Q 1403 2931 1139 2672 
Q 875 2413 847 1978 
z
" transform="scale(0.015625)"/>
      </defs>
      <use xlink:href="#ArialMT-46"/>
      <use xlink:href="#ArialMT-6c" x="61.083984"/>
      <use xlink:href="#ArialMT-6f" x="83.300781"/>
      <use xlink:href="#ArialMT-77" x="138.916016"/>
      <use xlink:href="#ArialMT-20" x="211.132812"/>
      <use xlink:href="#ArialMT-56" x="238.916016"/>
      <use xlink:href="#ArialMT-6f" x="300.115234"/>
      <use xlink:href="#ArialMT-6c" x="355.730469"/>
      <use xlink:href="#ArialMT-75" x="377.947266"/>
      <use xlink:href="#ArialMT-6d" x="433.5625"/>
      <use xlink:href="#ArialMT-65" x="516.863281"/>
     </g>
    </g>
   </g>
   <g id="matplotlib.axis_2">
    <g id="ytick_1">
     <g id="line2d_9">
      <defs>
       <path id="m7d4dbc977f" d="M 0 0 
L -6 0 
" style="stroke: #262626; stroke-width: 1.25"/>
      </defs>
      <g>
       <use xlink:href="#m7d4dbc977f" x="52.65" y="367.014998" style="fill: #262626; stroke: #262626; stroke-width: 1.25"/>
      </g>
     </g>
     <g id="text_10">
      <!-- 0 -->
      <g style="fill: #262626" transform="translate(37.032969 370.951795) scale(0.11 -0.11)">
       <use xlink:href="#ArialMT-30"/>
      </g>
     </g>
    </g>
    <g id="ytick_2">
     <g id="line2d_10">
      <g>
       <use xlink:href="#m7d4dbc977f" x="52.65" y="309.172129" style="fill: #262626; stroke: #262626; stroke-width: 1.25"/>
      </g>
     </g>
     <g id="text_11">
      <!-- 2 -->
      <g style="fill: #262626" transform="translate(37.032969 313.108926) scale(0.11 -0.11)">
       <use xlink:href="#ArialMT-32"/>
      </g>
     </g>
    </g>
    <g id="ytick_3">
     <g id="line2d_11">
      <g>
       <use xlink:href="#m7d4dbc977f" x="52.65" y="251.329261" style="fill: #262626; stroke: #262626; stroke-width: 1.25"/>
      </g>
     </g>
     <g id="text_12">
      <!-- 4 -->
      <g style="fill: #262626" transform="translate(37.032969 255.266058) scale(0.11 -0.11)">
       <defs>
        <path id="ArialMT-34" d="M 2069 0 
L 2069 1097 
L 81 1097 
L 81 1613 
L 2172 4581 
L 2631 4581 
L 2631 1613 
L 3250 1613 
L 3250 1097 
L 2631 1097 
L 2631 0 
L 2069 0 
z
M 2069 1613 
L 2069 3678 
L 634 1613 
L 2069 1613 
z
" transform="scale(0.015625)"/>
       </defs>
       <use xlink:href="#ArialMT-34"/>
      </g>
     </g>
    </g>
    <g id="ytick_4">
     <g id="line2d_12">
      <g>
       <use xlink:href="#m7d4dbc977f" x="52.65" y="193.486392" style="fill: #262626; stroke: #262626; stroke-width: 1.25"/>
      </g>
     </g>
     <g id="text_13">
      <!-- 6 -->
      <g style="fill: #262626" transform="translate(37.032969 197.423189) scale(0.11 -0.11)">
       <defs>
        <path id="ArialMT-36" d="M 3184 3459 
L 2625 3416 
Q 2550 3747 2413 3897 
Q 2184 4138 1850 4138 
Q 1581 4138 1378 3988 
Q 1113 3794 959 3422 
Q 806 3050 800 2363 
Q 1003 2672 1297 2822 
Q 1591 2972 1913 2972 
Q 2475 2972 2870 2558 
Q 3266 2144 3266 1488 
Q 3266 1056 3080 686 
Q 2894 316 2569 119 
Q 2244 -78 1831 -78 
Q 1128 -78 684 439 
Q 241 956 241 2144 
Q 241 3472 731 4075 
Q 1159 4600 1884 4600 
Q 2425 4600 2770 4297 
Q 3116 3994 3184 3459 
z
M 888 1484 
Q 888 1194 1011 928 
Q 1134 663 1356 523 
Q 1578 384 1822 384 
Q 2178 384 2434 671 
Q 2691 959 2691 1453 
Q 2691 1928 2437 2201 
Q 2184 2475 1800 2475 
Q 1419 2475 1153 2201 
Q 888 1928 888 1484 
z
" transform="scale(0.015625)"/>
       </defs>
       <use xlink:href="#ArialMT-36"/>
      </g>
     </g>
    </g>
    <g id="ytick_5">
     <g id="line2d_13">
      <g>
       <use xlink:href="#m7d4dbc977f" x="52.65" y="135.643523" style="fill: #262626; stroke: #262626; stroke-width: 1.25"/>
      </g>
     </g>
     <g id="text_14">
      <!-- 8 -->
      <g style="fill: #262626" transform="translate(37.032969 139.58032) scale(0.11 -0.11)">
       <defs>
        <path id="ArialMT-38" d="M 1131 2484 
Q 781 2613 612 2850 
Q 444 3088 444 3419 
Q 444 3919 803 4259 
Q 1163 4600 1759 4600 
Q 2359 4600 2725 4251 
Q 3091 3903 3091 3403 
Q 3091 3084 2923 2848 
Q 2756 2613 2416 2484 
Q 2838 2347 3058 2040 
Q 3278 1734 3278 1309 
Q 3278 722 2862 322 
Q 2447 -78 1769 -78 
Q 1091 -78 675 323 
Q 259 725 259 1325 
Q 259 1772 486 2073 
Q 713 2375 1131 2484 
z
M 1019 3438 
Q 1019 3113 1228 2906 
Q 1438 2700 1772 2700 
Q 2097 2700 2305 2904 
Q 2513 3109 2513 3406 
Q 2513 3716 2298 3927 
Q 2084 4138 1766 4138 
Q 1444 4138 1231 3931 
Q 1019 3725 1019 3438 
z
M 838 1322 
Q 838 1081 952 856 
Q 1066 631 1291 507 
Q 1516 384 1775 384 
Q 2178 384 2440 643 
Q 2703 903 2703 1303 
Q 2703 1709 2433 1975 
Q 2163 2241 1756 2241 
Q 1359 2241 1098 1978 
Q 838 1716 838 1322 
z
" transform="scale(0.015625)"/>
       </defs>
       <use xlink:href="#ArialMT-38"/>
      </g>
     </g>
    </g>
    <g id="ytick_6">
     <g id="line2d_14">
      <g>
       <use xlink:href="#m7d4dbc977f" x="52.65" y="77.800655" style="fill: #262626; stroke: #262626; stroke-width: 1.25"/>
      </g>
     </g>
     <g id="text_15">
      <!-- 10 -->
      <g style="fill: #262626" transform="translate(30.915937 81.737452) scale(0.11 -0.11)">
       <use xlink:href="#ArialMT-31"/>
       <use xlink:href="#ArialMT-30" x="55.615234"/>
      </g>
     </g>
    </g>
    <g id="text_16">
     <!-- Difference in % -->
     <g style="fill: #262626" transform="translate(24.530937 271.247813) rotate(-90) scale(0.12 -0.12)">
      <defs>
       <path id="ArialMT-44" d="M 494 0 
L 494 4581 
L 2072 4581 
Q 2606 4581 2888 4516 
Q 3281 4425 3559 4188 
Q 3922 3881 4101 3404 
Q 4281 2928 4281 2316 
Q 4281 1794 4159 1391 
Q 4038 988 3847 723 
Q 3656 459 3429 307 
Q 3203 156 2883 78 
Q 2563 0 2147 0 
L 494 0 
z
M 1100 541 
L 2078 541 
Q 2531 541 2789 625 
Q 3047 709 3200 863 
Q 3416 1078 3536 1442 
Q 3656 1806 3656 2325 
Q 3656 3044 3420 3430 
Q 3184 3816 2847 3947 
Q 2603 4041 2063 4041 
L 1100 4041 
L 1100 541 
z
" transform="scale(0.015625)"/>
       <path id="ArialMT-69" d="M 425 3934 
L 425 4581 
L 988 4581 
L 988 3934 
L 425 3934 
z
M 425 0 
L 425 3319 
L 988 3319 
L 988 0 
L 425 0 
z
" transform="scale(0.015625)"/>
       <path id="ArialMT-66" d="M 556 0 
L 556 2881 
L 59 2881 
L 59 3319 
L 556 3319 
L 556 3672 
Q 556 4006 616 4169 
Q 697 4388 901 4523 
Q 1106 4659 1475 4659 
Q 1713 4659 2000 4603 
L 1916 4113 
Q 1741 4144 1584 4144 
Q 1328 4144 1222 4034 
Q 1116 3925 1116 3625 
L 1116 3319 
L 1763 3319 
L 1763 2881 
L 1116 2881 
L 1116 0 
L 556 0 
z
" transform="scale(0.015625)"/>
       <path id="ArialMT-72" d="M 416 0 
L 416 3319 
L 922 3319 
L 922 2816 
Q 1116 3169 1280 3281 
Q 1444 3394 1641 3394 
Q 1925 3394 2219 3213 
L 2025 2691 
Q 1819 2813 1613 2813 
Q 1428 2813 1281 2702 
Q 1134 2591 1072 2394 
Q 978 2094 978 1738 
L 978 0 
L 416 0 
z
" transform="scale(0.015625)"/>
       <path id="ArialMT-6e" d="M 422 0 
L 422 3319 
L 928 3319 
L 928 2847 
Q 1294 3394 1984 3394 
Q 2284 3394 2536 3286 
Q 2788 3178 2913 3003 
Q 3038 2828 3088 2588 
Q 3119 2431 3119 2041 
L 3119 0 
L 2556 0 
L 2556 2019 
Q 2556 2363 2490 2533 
Q 2425 2703 2258 2804 
Q 2091 2906 1866 2906 
Q 1506 2906 1245 2678 
Q 984 2450 984 1813 
L 984 0 
L 422 0 
z
" transform="scale(0.015625)"/>
       <path id="ArialMT-63" d="M 2588 1216 
L 3141 1144 
Q 3050 572 2676 248 
Q 2303 -75 1759 -75 
Q 1078 -75 664 370 
Q 250 816 250 1647 
Q 250 2184 428 2587 
Q 606 2991 970 3192 
Q 1334 3394 1763 3394 
Q 2303 3394 2647 3120 
Q 2991 2847 3088 2344 
L 2541 2259 
Q 2463 2594 2264 2762 
Q 2066 2931 1784 2931 
Q 1359 2931 1093 2626 
Q 828 2322 828 1663 
Q 828 994 1084 691 
Q 1341 388 1753 388 
Q 2084 388 2306 591 
Q 2528 794 2588 1216 
z
" transform="scale(0.015625)"/>
       <path id="ArialMT-25" d="M 372 3481 
Q 372 3972 619 4315 
Q 866 4659 1334 4659 
Q 1766 4659 2048 4351 
Q 2331 4044 2331 3447 
Q 2331 2866 2045 2552 
Q 1759 2238 1341 2238 
Q 925 2238 648 2547 
Q 372 2856 372 3481 
z
M 1350 4272 
Q 1141 4272 1002 4090 
Q 863 3909 863 3425 
Q 863 2984 1003 2804 
Q 1144 2625 1350 2625 
Q 1563 2625 1702 2806 
Q 1841 2988 1841 3469 
Q 1841 3913 1700 4092 
Q 1559 4272 1350 4272 
z
M 1353 -169 
L 3859 4659 
L 4316 4659 
L 1819 -169 
L 1353 -169 
z
M 3334 1075 
Q 3334 1569 3581 1911 
Q 3828 2253 4300 2253 
Q 4731 2253 5014 1945 
Q 5297 1638 5297 1041 
Q 5297 459 5011 145 
Q 4725 -169 4303 -169 
Q 3888 -169 3611 142 
Q 3334 453 3334 1075 
z
M 4316 1866 
Q 4103 1866 3964 1684 
Q 3825 1503 3825 1019 
Q 3825 581 3965 400 
Q 4106 219 4313 219 
Q 4528 219 4667 400 
Q 4806 581 4806 1063 
Q 4806 1506 4665 1686 
Q 4525 1866 4316 1866 
z
" transform="scale(0.015625)"/>
      </defs>
      <use xlink:href="#ArialMT-44"/>
      <use xlink:href="#ArialMT-69" x="72.216797"/>
      <use xlink:href="#ArialMT-66" x="94.433594"/>
      <use xlink:href="#ArialMT-66" x="120.466797"/>
      <use xlink:href="#ArialMT-65" x="148.25"/>
      <use xlink:href="#ArialMT-72" x="203.865234"/>
      <use xlink:href="#ArialMT-65" x="237.166016"/>
      <use xlink:href="#ArialMT-6e" x="292.78125"/>
      <use xlink:href="#ArialMT-63" x="348.396484"/>
      <use xlink:href="#ArialMT-65" x="398.396484"/>
      <use xlink:href="#ArialMT-20" x="454.011719"/>
      <use xlink:href="#ArialMT-69" x="481.794922"/>
      <use xlink:href="#ArialMT-6e" x="504.011719"/>
      <use xlink:href="#ArialMT-20" x="559.626953"/>
      <use xlink:href="#ArialMT-25" x="587.410156"/>
     </g>
    </g>
   </g>
   <g id="PathCollection_1">
    <defs>
     <path id="m02e380971d" d="M 0 3 
C 0.795609 3 1.55874 2.683901 2.12132 2.12132 
C 2.683901 1.55874 3 0.795609 3 0 
C 3 -0.795609 2.683901 -1.55874 2.12132 -2.12132 
C 1.55874 -2.683901 0.795609 -3 0 -3 
C -0.795609 -3 -1.55874 -2.683901 -2.12132 -2.12132 
C -2.683901 -1.55874 -3 -0.795609 -3 0 
C -3 0.795609 -2.683901 1.55874 -2.12132 2.12132 
C -1.55874 2.683901 -0.795609 3 0 3 
z
" style="stroke: #4c72b0; stroke-opacity: 0.8"/>
    </defs>
    <g clip-path="url(#pf8ee687acc)">
     <use xlink:href="#m02e380971d" x="71.383463" y="169.745597" style="fill: #4c72b0; fill-opacity: 0.8; stroke: #4c72b0; stroke-opacity: 0.8"/>
     <use xlink:href="#m02e380971d" x="121.612298" y="93.734424" style="fill: #4c72b0; fill-opacity: 0.8; stroke: #4c72b0; stroke-opacity: 0.8"/>
     <use xlink:href="#m02e380971d" x="69.312231" y="232.529616" style="fill: #4c72b0; fill-opacity: 0.8; stroke: #4c72b0; stroke-opacity: 0.8"/>
     <use xlink:href="#m02e380971d" x="93.856371" y="314.02858" style="fill: #4c72b0; fill-opacity: 0.8; stroke: #4c72b0; stroke-opacity: 0.8"/>
     <use xlink:href="#m02e380971d" x="123.68353" y="214.781017" style="fill: #4c72b0; fill-opacity: 0.8; stroke: #4c72b0; stroke-opacity: 0.8"/>
     <use xlink:href="#m02e380971d" x="209.540617" y="274.179145" style="fill: #4c72b0; fill-opacity: 0.8; stroke: #4c72b0; stroke-opacity: 0.8"/>
     <use xlink:href="#m02e380971d" x="144.920372" y="328.763042" style="fill: #4c72b0; fill-opacity: 0.8; stroke: #4c72b0; stroke-opacity: 0.8"/>
     <use xlink:href="#m02e380971d" x="204.729009" y="300.162931" style="fill: #4c72b0; fill-opacity: 0.8; stroke: #4c72b0; stroke-opacity: 0.8"/>
     <use xlink:href="#m02e380971d" x="267.642278" y="324.515321" style="fill: #4c72b0; fill-opacity: 0.8; stroke: #4c72b0; stroke-opacity: 0.8"/>
     <use xlink:href="#m02e380971d" x="82.09664" y="252.446488" style="fill: #4c72b0; fill-opacity: 0.8; stroke: #4c72b0; stroke-opacity: 0.8"/>
     <use xlink:href="#m02e380971d" x="262.891079" y="311.991355" style="fill: #4c72b0; fill-opacity: 0.8; stroke: #4c72b0; stroke-opacity: 0.8"/>
     <use xlink:href="#m02e380971d" x="134.354139" y="360.954821" style="fill: #4c72b0; fill-opacity: 0.8; stroke: #4c72b0; stroke-opacity: 0.8"/>
     <use xlink:href="#m02e380971d" x="236.009761" y="331.174847" style="fill: #4c72b0; fill-opacity: 0.8; stroke: #4c72b0; stroke-opacity: 0.8"/>
     <use xlink:href="#m02e380971d" x="91.785139" y="351.719521" style="fill: #4c72b0; fill-opacity: 0.8; stroke: #4c72b0; stroke-opacity: 0.8"/>
     <use xlink:href="#m02e380971d" x="133.840238" y="365.833775" style="fill: #4c72b0; fill-opacity: 0.8; stroke: #4c72b0; stroke-opacity: 0.8"/>
     <use xlink:href="#m02e380971d" x="187.844649" y="358.295609" style="fill: #4c72b0; fill-opacity: 0.8; stroke: #4c72b0; stroke-opacity: 0.8"/>
     <use xlink:href="#m02e380971d" x="177.665736" y="291.712523" style="fill: #4c72b0; fill-opacity: 0.8; stroke: #4c72b0; stroke-opacity: 0.8"/>
     <use xlink:href="#m02e380971d" x="225.995592" y="358.589408" style="fill: #4c72b0; fill-opacity: 0.8; stroke: #4c72b0; stroke-opacity: 0.8"/>
     <use xlink:href="#m02e380971d" x="185.259517" y="344.087947" style="fill: #4c72b0; fill-opacity: 0.8; stroke: #4c72b0; stroke-opacity: 0.8"/>
     <use xlink:href="#m02e380971d" x="181.580535" y="366.734346" style="fill: #4c72b0; fill-opacity: 0.8; stroke: #4c72b0; stroke-opacity: 0.8"/>
     <use xlink:href="#m02e380971d" x="103.56731" y="324.031784" style="fill: #4c72b0; fill-opacity: 0.8; stroke: #4c72b0; stroke-opacity: 0.8"/>
     <use xlink:href="#m02e380971d" x="128.258849" y="362.797209" style="fill: #4c72b0; fill-opacity: 0.8; stroke: #4c72b0; stroke-opacity: 0.8"/>
     <use xlink:href="#m02e380971d" x="231.772463" y="350.730666" style="fill: #4c72b0; fill-opacity: 0.8; stroke: #4c72b0; stroke-opacity: 0.8"/>
     <use xlink:href="#m02e380971d" x="106.009882" y="364.345976" style="fill: #4c72b0; fill-opacity: 0.8; stroke: #4c72b0; stroke-opacity: 0.8"/>
     <use xlink:href="#m02e380971d" x="322.266686" y="343.157371" style="fill: #4c72b0; fill-opacity: 0.8; stroke: #4c72b0; stroke-opacity: 0.8"/>
     <use xlink:href="#m02e380971d" x="321.925197" y="351.872318" style="fill: #4c72b0; fill-opacity: 0.8; stroke: #4c72b0; stroke-opacity: 0.8"/>
     <use xlink:href="#m02e380971d" x="261.757483" y="316.996473" style="fill: #4c72b0; fill-opacity: 0.8; stroke: #4c72b0; stroke-opacity: 0.8"/>
     <use xlink:href="#m02e380971d" x="342.431182" y="329.667033" style="fill: #4c72b0; fill-opacity: 0.8; stroke: #4c72b0; stroke-opacity: 0.8"/>
     <use xlink:href="#m02e380971d" x="166.953862" y="362.172805" style="fill: #4c72b0; fill-opacity: 0.8; stroke: #4c72b0; stroke-opacity: 0.8"/>
     <use xlink:href="#m02e380971d" x="124.031307" y="90.679091" style="fill: #4c72b0; fill-opacity: 0.8; stroke: #4c72b0; stroke-opacity: 0.8"/>
     <use xlink:href="#m02e380971d" x="83.489468" y="346.586273" style="fill: #4c72b0; fill-opacity: 0.8; stroke: #4c72b0; stroke-opacity: 0.8"/>
     <use xlink:href="#m02e380971d" x="261.992765" y="323.573011" style="fill: #4c72b0; fill-opacity: 0.8; stroke: #4c72b0; stroke-opacity: 0.8"/>
     <use xlink:href="#m02e380971d" x="127.038148" y="327.447053" style="fill: #4c72b0; fill-opacity: 0.8; stroke: #4c72b0; stroke-opacity: 0.8"/>
     <use xlink:href="#m02e380971d" x="148.363074" y="301.666465" style="fill: #4c72b0; fill-opacity: 0.8; stroke: #4c72b0; stroke-opacity: 0.8"/>
     <use xlink:href="#m02e380971d" x="151.803211" y="347.862784" style="fill: #4c72b0; fill-opacity: 0.8; stroke: #4c72b0; stroke-opacity: 0.8"/>
     <use xlink:href="#m02e380971d" x="128.603232" y="365.381445" style="fill: #4c72b0; fill-opacity: 0.8; stroke: #4c72b0; stroke-opacity: 0.8"/>
     <use xlink:href="#m02e380971d" x="184.301327" y="346.386574" style="fill: #4c72b0; fill-opacity: 0.8; stroke: #4c72b0; stroke-opacity: 0.8"/>
     <use xlink:href="#m02e380971d" x="186.936303" y="321.969567" style="fill: #4c72b0; fill-opacity: 0.8; stroke: #4c72b0; stroke-opacity: 0.8"/>
     <use xlink:href="#m02e380971d" x="167.501374" y="337.265745" style="fill: #4c72b0; fill-opacity: 0.8; stroke: #4c72b0; stroke-opacity: 0.8"/>
     <use xlink:href="#m02e380971d" x="148.426099" y="352.369151" style="fill: #4c72b0; fill-opacity: 0.8; stroke: #4c72b0; stroke-opacity: 0.8"/>
     <use xlink:href="#m02e380971d" x="137.507991" y="360.459039" style="fill: #4c72b0; fill-opacity: 0.8; stroke: #4c72b0; stroke-opacity: 0.8"/>
     <use xlink:href="#m02e380971d" x="128.39898" y="307.417846" style="fill: #4c72b0; fill-opacity: 0.8; stroke: #4c72b0; stroke-opacity: 0.8"/>
     <use xlink:href="#m02e380971d" x="342.057189" y="298.532829" style="fill: #4c72b0; fill-opacity: 0.8; stroke: #4c72b0; stroke-opacity: 0.8"/>
     <use xlink:href="#m02e380971d" x="137.108695" y="264.671031" style="fill: #4c72b0; fill-opacity: 0.8; stroke: #4c72b0; stroke-opacity: 0.8"/>
     <use xlink:href="#m02e380971d" x="281.31378" y="243.435369" style="fill: #4c72b0; fill-opacity: 0.8; stroke: #4c72b0; stroke-opacity: 0.8"/>
     <use xlink:href="#m02e380971d" x="273.728231" y="272.199658" style="fill: #4c72b0; fill-opacity: 0.8; stroke: #4c72b0; stroke-opacity: 0.8"/>
     <use xlink:href="#m02e380971d" x="127.145944" y="334.596554" style="fill: #4c72b0; fill-opacity: 0.8; stroke: #4c72b0; stroke-opacity: 0.8"/>
     <use xlink:href="#m02e380971d" x="165.306087" y="339.701829" style="fill: #4c72b0; fill-opacity: 0.8; stroke: #4c72b0; stroke-opacity: 0.8"/>
     <use xlink:href="#m02e380971d" x="174.141213" y="360.25764" style="fill: #4c72b0; fill-opacity: 0.8; stroke: #4c72b0; stroke-opacity: 0.8"/>
     <use xlink:href="#m02e380971d" x="232.596047" y="268.513824" style="fill: #4c72b0; fill-opacity: 0.8; stroke: #4c72b0; stroke-opacity: 0.8"/>
     <use xlink:href="#m02e380971d" x="124.023068" y="338.337618" style="fill: #4c72b0; fill-opacity: 0.8; stroke: #4c72b0; stroke-opacity: 0.8"/>
     <use xlink:href="#m02e380971d" x="175.808735" y="358.137648" style="fill: #4c72b0; fill-opacity: 0.8; stroke: #4c72b0; stroke-opacity: 0.8"/>
     <use xlink:href="#m02e380971d" x="149.974097" y="360.183339" style="fill: #4c72b0; fill-opacity: 0.8; stroke: #4c72b0; stroke-opacity: 0.8"/>
     <use xlink:href="#m02e380971d" x="239.519634" y="312.413997" style="fill: #4c72b0; fill-opacity: 0.8; stroke: #4c72b0; stroke-opacity: 0.8"/>
     <use xlink:href="#m02e380971d" x="228.167845" y="276.17242" style="fill: #4c72b0; fill-opacity: 0.8; stroke: #4c72b0; stroke-opacity: 0.8"/>
     <use xlink:href="#m02e380971d" x="275.042418" y="345.942133" style="fill: #4c72b0; fill-opacity: 0.8; stroke: #4c72b0; stroke-opacity: 0.8"/>
     <use xlink:href="#m02e380971d" x="276.547083" y="364.080493" style="fill: #4c72b0; fill-opacity: 0.8; stroke: #4c72b0; stroke-opacity: 0.8"/>
     <use xlink:href="#m02e380971d" x="151.63338" y="365.769848" style="fill: #4c72b0; fill-opacity: 0.8; stroke: #4c72b0; stroke-opacity: 0.8"/>
     <use xlink:href="#m02e380971d" x="133.079517" y="339.644676" style="fill: #4c72b0; fill-opacity: 0.8; stroke: #4c72b0; stroke-opacity: 0.8"/>
     <use xlink:href="#m02e380971d" x="282.685021" y="293.138486" style="fill: #4c72b0; fill-opacity: 0.8; stroke: #4c72b0; stroke-opacity: 0.8"/>
     <use xlink:href="#m02e380971d" x="129.972103" y="359.138464" style="fill: #4c72b0; fill-opacity: 0.8; stroke: #4c72b0; stroke-opacity: 0.8"/>
     <use xlink:href="#m02e380971d" x="95.894153" y="100.873935" style="fill: #4c72b0; fill-opacity: 0.8; stroke: #4c72b0; stroke-opacity: 0.8"/>
     <use xlink:href="#m02e380971d" x="108.059625" y="366.867404" style="fill: #4c72b0; fill-opacity: 0.8; stroke: #4c72b0; stroke-opacity: 0.8"/>
     <use xlink:href="#m02e380971d" x="98.95126" y="209.586056" style="fill: #4c72b0; fill-opacity: 0.8; stroke: #4c72b0; stroke-opacity: 0.8"/>
     <use xlink:href="#m02e380971d" x="129.84436" y="325.602909" style="fill: #4c72b0; fill-opacity: 0.8; stroke: #4c72b0; stroke-opacity: 0.8"/>
     <use xlink:href="#m02e380971d" x="154.674692" y="327.629938" style="fill: #4c72b0; fill-opacity: 0.8; stroke: #4c72b0; stroke-opacity: 0.8"/>
     <use xlink:href="#m02e380971d" x="271.908693" y="339.222923" style="fill: #4c72b0; fill-opacity: 0.8; stroke: #4c72b0; stroke-opacity: 0.8"/>
     <use xlink:href="#m02e380971d" x="108.084469" y="364.553581" style="fill: #4c72b0; fill-opacity: 0.8; stroke: #4c72b0; stroke-opacity: 0.8"/>
     <use xlink:href="#m02e380971d" x="132.032639" y="291.062253" style="fill: #4c72b0; fill-opacity: 0.8; stroke: #4c72b0; stroke-opacity: 0.8"/>
     <use xlink:href="#m02e380971d" x="145.599594" y="311.0925" style="fill: #4c72b0; fill-opacity: 0.8; stroke: #4c72b0; stroke-opacity: 0.8"/>
     <use xlink:href="#m02e380971d" x="127.408064" y="349.994382" style="fill: #4c72b0; fill-opacity: 0.8; stroke: #4c72b0; stroke-opacity: 0.8"/>
     <use xlink:href="#m02e380971d" x="145.993179" y="342.96683" style="fill: #4c72b0; fill-opacity: 0.8; stroke: #4c72b0; stroke-opacity: 0.8"/>
     <use xlink:href="#m02e380971d" x="120.51132" y="215.144159" style="fill: #4c72b0; fill-opacity: 0.8; stroke: #4c72b0; stroke-opacity: 0.8"/>
     <use xlink:href="#m02e380971d" x="165.776639" y="358.739572" style="fill: #4c72b0; fill-opacity: 0.8; stroke: #4c72b0; stroke-opacity: 0.8"/>
     <use xlink:href="#m02e380971d" x="155.54352" y="348.176491" style="fill: #4c72b0; fill-opacity: 0.8; stroke: #4c72b0; stroke-opacity: 0.8"/>
     <use xlink:href="#m02e380971d" x="119.913989" y="297.48868" style="fill: #4c72b0; fill-opacity: 0.8; stroke: #4c72b0; stroke-opacity: 0.8"/>
    </g>
   </g>
   <g id="PolyCollection_1">
    <defs>
     <path id="m86bc7910f7" d="M 69.312231 -163.890922 
L 69.312231 -103.582953 
L 72.071009 -103.805025 
L 74.829786 -104.027098 
L 77.588563 -104.24917 
L 80.347341 -104.315546 
L 83.106118 -104.377182 
L 85.864895 -104.438818 
L 88.623672 -104.500454 
L 91.38245 -104.56209 
L 94.141227 -104.623726 
L 96.900004 -104.603026 
L 99.658781 -104.709365 
L 102.417559 -104.807895 
L 105.176336 -104.919507 
L 107.935113 -105.028864 
L 110.693891 -105.135364 
L 113.452668 -105.241863 
L 116.211445 -105.348363 
L 118.970222 -105.454863 
L 121.729 -105.561363 
L 124.487777 -105.667863 
L 127.246554 -105.717663 
L 130.005331 -105.818332 
L 132.764109 -105.905838 
L 135.522886 -105.871958 
L 138.281663 -105.854095 
L 141.040441 -106.117107 
L 143.799218 -106.110725 
L 146.557995 -106.082705 
L 149.316772 -106.056709 
L 152.07555 -106.030713 
L 154.834327 -105.957283 
L 157.593104 -106.017101 
L 160.351882 -106.075368 
L 163.110659 -106.071404 
L 165.869436 -106.036321 
L 168.628213 -106.029027 
L 171.386991 -106.063749 
L 174.145768 -105.93883 
L 176.904545 -105.902933 
L 179.663322 -105.809227 
L 182.4221 -105.484567 
L 185.180877 -105.317924 
L 187.939654 -105.085963 
L 190.698432 -104.737571 
L 193.457209 -104.525156 
L 196.215986 -104.187112 
L 198.974763 -103.700816 
L 201.733541 -103.261091 
L 204.492318 -102.820769 
L 207.251095 -102.380746 
L 210.009873 -102.015729 
L 212.76865 -101.586496 
L 215.527427 -101.092472 
L 218.286204 -100.56374 
L 221.044982 -99.994561 
L 223.803759 -99.067691 
L 226.562536 -98.476639 
L 229.321313 -97.83121 
L 232.080091 -96.961991 
L 234.838868 -96.25245 
L 237.597645 -95.519262 
L 240.356423 -94.913506 
L 243.1152 -94.143311 
L 245.873977 -93.178962 
L 248.632754 -92.320862 
L 251.391532 -91.607153 
L 254.150309 -90.821162 
L 256.909086 -90.071458 
L 259.667864 -89.311131 
L 262.426641 -88.441392 
L 265.185418 -87.690724 
L 267.944195 -86.940056 
L 270.702973 -86.047984 
L 273.46175 -85.195651 
L 276.220527 -84.263544 
L 278.979304 -83.348904 
L 281.738082 -82.344554 
L 284.496859 -81.295565 
L 287.255636 -80.17422 
L 290.014414 -79.394407 
L 292.773191 -78.537153 
L 295.531968 -77.8024 
L 298.290745 -77.067647 
L 301.049523 -76.332894 
L 303.8083 -75.228631 
L 306.567077 -74.122721 
L 309.325854 -73.265497 
L 312.084632 -72.502003 
L 314.843409 -71.634843 
L 317.602186 -70.671086 
L 320.360964 -69.687564 
L 323.119741 -68.585835 
L 325.878518 -67.484778 
L 328.637295 -66.38531 
L 331.396073 -65.34965 
L 334.15485 -64.484055 
L 336.913627 -63.431828 
L 339.672405 -62.32086 
L 342.431182 -61.339091 
L 342.431182 -116.387159 
L 342.431182 -116.387159 
L 339.672405 -116.303684 
L 336.913627 -116.241444 
L 334.15485 -116.179204 
L 331.396073 -116.116964 
L 328.637295 -116.053926 
L 325.878518 -115.990324 
L 323.119741 -115.926722 
L 320.360964 -116.014613 
L 317.602186 -116.111023 
L 314.843409 -115.923469 
L 312.084632 -115.720171 
L 309.325854 -115.619046 
L 306.567077 -115.629681 
L 303.8083 -115.666927 
L 301.049523 -115.713803 
L 298.290745 -115.779689 
L 295.531968 -115.838079 
L 292.773191 -115.914814 
L 290.014414 -115.970136 
L 287.255636 -115.993498 
L 284.496859 -115.93993 
L 281.738082 -115.975418 
L 278.979304 -116.177179 
L 276.220527 -116.3081 
L 273.46175 -116.274042 
L 270.702973 -116.235785 
L 267.944195 -116.356494 
L 265.185418 -116.477204 
L 262.426641 -116.615277 
L 259.667864 -116.722242 
L 256.909086 -117.006066 
L 254.150309 -117.30425 
L 251.391532 -117.595576 
L 248.632754 -117.864573 
L 245.873977 -117.964986 
L 243.1152 -118.071662 
L 240.356423 -118.537111 
L 237.597645 -118.818695 
L 234.838868 -119.131265 
L 232.080091 -119.443726 
L 229.321313 -119.79858 
L 226.562536 -120.180096 
L 223.803759 -120.646098 
L 221.044982 -121.167474 
L 218.286204 -121.722376 
L 215.527427 -122.376821 
L 212.76865 -123.028574 
L 210.009873 -123.686673 
L 207.251095 -124.268553 
L 204.492318 -124.679109 
L 201.733541 -125.343751 
L 198.974763 -126.022084 
L 196.215986 -126.709714 
L 193.457209 -127.355805 
L 190.698432 -128.112263 
L 187.939654 -128.743199 
L 185.180877 -129.442024 
L 182.4221 -130.229737 
L 179.663322 -130.887339 
L 176.904545 -131.458652 
L 174.145768 -132.137516 
L 171.386991 -132.796902 
L 168.628213 -133.366155 
L 165.869436 -133.934945 
L 163.110659 -134.503572 
L 160.351882 -135.344628 
L 157.593104 -136.121712 
L 154.834327 -136.894546 
L 152.07555 -137.710206 
L 149.316772 -138.315746 
L 146.557995 -139.445893 
L 143.799218 -140.31222 
L 141.040441 -141.163698 
L 138.281663 -142.283839 
L 135.522886 -143.255583 
L 132.764109 -144.367123 
L 130.005331 -145.390014 
L 127.246554 -146.293706 
L 124.487777 -146.923545 
L 121.729 -147.824841 
L 118.970222 -148.700664 
L 116.211445 -149.395868 
L 113.452668 -150.307621 
L 110.693891 -151.115545 
L 107.935113 -151.921208 
L 105.176336 -152.722942 
L 102.417559 -153.641802 
L 99.658781 -154.56526 
L 96.900004 -155.424787 
L 94.141227 -156.187929 
L 91.38245 -157.051702 
L 88.623672 -157.980055 
L 85.864895 -158.875344 
L 83.106118 -159.685944 
L 80.347341 -160.494712 
L 77.588563 -161.321612 
L 74.829786 -162.245934 
L 72.071009 -163.108335 
L 69.312231 -163.890922 
z
" style="stroke: #ffffff; stroke-opacity: 0.15"/>
    </defs>
    <g clip-path="url(#pf8ee687acc)">
     <use xlink:href="#m86bc7910f7" x="0" y="432" style="fill: #4c72b0; fill-opacity: 0.15; stroke: #ffffff; stroke-opacity: 0.15"/>
    </g>
   </g>
   <g id="PathCollection_2">
    <defs>
     <path id="m54d0f79ed8" d="M 0 3 
C 0.795609 3 1.55874 2.683901 2.12132 2.12132 
C 2.683901 1.55874 3 0.795609 3 0 
C 3 -0.795609 2.683901 -1.55874 2.12132 -2.12132 
C 1.55874 -2.683901 0.795609 -3 0 -3 
C -0.795609 -3 -1.55874 -2.683901 -2.12132 -2.12132 
C -2.683901 -1.55874 -3 -0.795609 -3 0 
C -3 0.795609 -2.683901 1.55874 -2.12132 2.12132 
C -1.55874 2.683901 -0.795609 3 0 3 
z
" style="stroke: #ffffff; stroke-width: 0.48"/>
    </defs>
    <g clip-path="url(#pf8ee687acc)">
     <use xlink:href="#m54d0f79ed8" x="67.09116" y="169.745597" style="fill: #ff8c00; stroke: #ffffff; stroke-width: 0.48"/>
     <use xlink:href="#m54d0f79ed8" x="111.208674" y="93.734424" style="fill: #ff8c00; stroke: #ffffff; stroke-width: 0.48"/>
     <use xlink:href="#m54d0f79ed8" x="66.449104" y="232.529616" style="fill: #ff8c00; stroke: #ffffff; stroke-width: 0.48"/>
     <use xlink:href="#m54d0f79ed8" x="92.266979" y="314.02858" style="fill: #ff8c00; stroke: #ffffff; stroke-width: 0.48"/>
     <use xlink:href="#m54d0f79ed8" x="117.663677" y="214.781017" style="fill: #ff8c00; stroke: #ffffff; stroke-width: 0.48"/>
     <use xlink:href="#m54d0f79ed8" x="203.120047" y="274.179145" style="fill: #ff8c00; stroke: #ffffff; stroke-width: 0.48"/>
     <use xlink:href="#m54d0f79ed8" x="143.099111" y="328.763042" style="fill: #ff8c00; stroke: #ffffff; stroke-width: 0.48"/>
     <use xlink:href="#m54d0f79ed8" x="200.194907" y="300.162931" style="fill: #ff8c00; stroke: #ffffff; stroke-width: 0.48"/>
     <use xlink:href="#m54d0f79ed8" x="263.83002" y="324.515321" style="fill: #ff8c00; stroke: #ffffff; stroke-width: 0.48"/>
     <use xlink:href="#m54d0f79ed8" x="79.152696" y="252.446488" style="fill: #ff8c00; stroke: #ffffff; stroke-width: 0.48"/>
     <use xlink:href="#m54d0f79ed8" x="258.055537" y="311.991355" style="fill: #ff8c00; stroke: #ffffff; stroke-width: 0.48"/>
     <use xlink:href="#m54d0f79ed8" x="134.086114" y="360.954821" style="fill: #ff8c00; stroke: #ffffff; stroke-width: 0.48"/>
     <use xlink:href="#m54d0f79ed8" x="233.180773" y="331.174847" style="fill: #ff8c00; stroke: #ffffff; stroke-width: 0.48"/>
     <use xlink:href="#m54d0f79ed8" x="91.334276" y="351.719521" style="fill: #ff8c00; stroke: #ffffff; stroke-width: 0.48"/>
     <use xlink:href="#m54d0f79ed8" x="133.892336" y="365.833775" style="fill: #ff8c00; stroke: #ffffff; stroke-width: 0.48"/>
     <use xlink:href="#m54d0f79ed8" x="187.298167" y="358.295609" style="fill: #ff8c00; stroke: #ffffff; stroke-width: 0.48"/>
     <use xlink:href="#m54d0f79ed8" x="173.261456" y="291.712523" style="fill: #ff8c00; stroke: #ffffff; stroke-width: 0.48"/>
     <use xlink:href="#m54d0f79ed8" x="226.636534" y="358.589408" style="fill: #ff8c00; stroke: #ffffff; stroke-width: 0.48"/>
     <use xlink:href="#m54d0f79ed8" x="183.846508" y="344.087947" style="fill: #ff8c00; stroke: #ffffff; stroke-width: 0.48"/>
     <use xlink:href="#m54d0f79ed8" x="181.597545" y="366.734346" style="fill: #ff8c00; stroke: #ffffff; stroke-width: 0.48"/>
     <use xlink:href="#m54d0f79ed8" x="102.132503" y="324.031784" style="fill: #ff8c00; stroke: #ffffff; stroke-width: 0.48"/>
     <use xlink:href="#m54d0f79ed8" x="128.081131" y="362.797209" style="fill: #ff8c00; stroke: #ffffff; stroke-width: 0.48"/>
     <use xlink:href="#m54d0f79ed8" x="230.506542" y="350.730666" style="fill: #ff8c00; stroke: #ffffff; stroke-width: 0.48"/>
     <use xlink:href="#m54d0f79ed8" x="106.101935" y="364.345976" style="fill: #ff8c00; stroke: #ffffff; stroke-width: 0.48"/>
     <use xlink:href="#m54d0f79ed8" x="319.671015" y="343.157371" style="fill: #ff8c00; stroke: #ffffff; stroke-width: 0.48"/>
     <use xlink:href="#m54d0f79ed8" x="323.582041" y="351.872318" style="fill: #ff8c00; stroke: #ffffff; stroke-width: 0.48"/>
     <use xlink:href="#m54d0f79ed8" x="257.377463" y="316.996473" style="fill: #ff8c00; stroke: #ffffff; stroke-width: 0.48"/>
     <use xlink:href="#m54d0f79ed8" x="338.118474" y="329.667033" style="fill: #ff8c00; stroke: #ffffff; stroke-width: 0.48"/>
     <use xlink:href="#m54d0f79ed8" x="167.22305" y="362.172805" style="fill: #ff8c00; stroke: #ffffff; stroke-width: 0.48"/>
     <use xlink:href="#m54d0f79ed8" x="113.296081" y="90.679091" style="fill: #ff8c00; stroke: #ffffff; stroke-width: 0.48"/>
     <use xlink:href="#m54d0f79ed8" x="84.036571" y="346.586273" style="fill: #ff8c00; stroke: #ffffff; stroke-width: 0.48"/>
     <use xlink:href="#m54d0f79ed8" x="258.180838" y="323.573011" style="fill: #ff8c00; stroke: #ffffff; stroke-width: 0.48"/>
     <use xlink:href="#m54d0f79ed8" x="128.701251" y="327.447053" style="fill: #ff8c00; stroke: #ffffff; stroke-width: 0.48"/>
     <use xlink:href="#m54d0f79ed8" x="145.189178" y="301.666465" style="fill: #ff8c00; stroke: #ffffff; stroke-width: 0.48"/>
     <use xlink:href="#m54d0f79ed8" x="152.769901" y="347.862784" style="fill: #ff8c00; stroke: #ffffff; stroke-width: 0.48"/>
     <use xlink:href="#m54d0f79ed8" x="128.672327" y="365.381445" style="fill: #ff8c00; stroke: #ffffff; stroke-width: 0.48"/>
     <use xlink:href="#m54d0f79ed8" x="183.036291" y="346.386574" style="fill: #ff8c00; stroke: #ffffff; stroke-width: 0.48"/>
     <use xlink:href="#m54d0f79ed8" x="189.771683" y="321.969567" style="fill: #ff8c00; stroke: #ffffff; stroke-width: 0.48"/>
     <use xlink:href="#m54d0f79ed8" x="165.851789" y="337.265745" style="fill: #ff8c00; stroke: #ffffff; stroke-width: 0.48"/>
     <use xlink:href="#m54d0f79ed8" x="147.708231" y="352.369151" style="fill: #ff8c00; stroke: #ffffff; stroke-width: 0.48"/>
     <use xlink:href="#m54d0f79ed8" x="137.805734" y="360.459039" style="fill: #ff8c00; stroke: #ffffff; stroke-width: 0.48"/>
     <use xlink:href="#m54d0f79ed8" x="125.908769" y="307.417846" style="fill: #ff8c00; stroke: #ffffff; stroke-width: 0.48"/>
     <use xlink:href="#m54d0f79ed8" x="334.200119" y="298.532829" style="fill: #ff8c00; stroke: #ffffff; stroke-width: 0.48"/>
     <use xlink:href="#m54d0f79ed8" x="132.56055" y="264.671031" style="fill: #ff8c00; stroke: #ffffff; stroke-width: 0.48"/>
     <use xlink:href="#m54d0f79ed8" x="293.321137" y="243.435369" style="fill: #ff8c00; stroke: #ffffff; stroke-width: 0.48"/>
     <use xlink:href="#m54d0f79ed8" x="265.102592" y="272.199658" style="fill: #ff8c00; stroke: #ffffff; stroke-width: 0.48"/>
     <use xlink:href="#m54d0f79ed8" x="125.799008" y="334.596554" style="fill: #ff8c00; stroke: #ffffff; stroke-width: 0.48"/>
     <use xlink:href="#m54d0f79ed8" x="163.811583" y="339.701829" style="fill: #ff8c00; stroke: #ffffff; stroke-width: 0.48"/>
     <use xlink:href="#m54d0f79ed8" x="174.533805" y="360.25764" style="fill: #ff8c00; stroke: #ffffff; stroke-width: 0.48"/>
     <use xlink:href="#m54d0f79ed8" x="225.018143" y="268.513824" style="fill: #ff8c00; stroke: #ffffff; stroke-width: 0.48"/>
     <use xlink:href="#m54d0f79ed8" x="122.861612" y="338.337618" style="fill: #ff8c00; stroke: #ffffff; stroke-width: 0.48"/>
     <use xlink:href="#m54d0f79ed8" x="176.329811" y="358.137648" style="fill: #ff8c00; stroke: #ffffff; stroke-width: 0.48"/>
     <use xlink:href="#m54d0f79ed8" x="149.635138" y="360.183339" style="fill: #ff8c00; stroke: #ffffff; stroke-width: 0.48"/>
     <use xlink:href="#m54d0f79ed8" x="235.157992" y="312.413997" style="fill: #ff8c00; stroke: #ffffff; stroke-width: 0.48"/>
     <use xlink:href="#m54d0f79ed8" x="221.306962" y="276.17242" style="fill: #ff8c00; stroke: #ffffff; stroke-width: 0.48"/>
     <use xlink:href="#m54d0f79ed8" x="277.00764" y="345.942133" style="fill: #ff8c00; stroke: #ffffff; stroke-width: 0.48"/>
     <use xlink:href="#m54d0f79ed8" x="276.821419" y="364.080493" style="fill: #ff8c00; stroke: #ffffff; stroke-width: 0.48"/>
     <use xlink:href="#m54d0f79ed8" x="151.69596" y="365.769848" style="fill: #ff8c00; stroke: #ffffff; stroke-width: 0.48"/>
     <use xlink:href="#m54d0f79ed8" x="134.284943" y="339.644676" style="fill: #ff8c00; stroke: #ffffff; stroke-width: 0.48"/>
     <use xlink:href="#m54d0f79ed8" x="275.714323" y="293.138486" style="fill: #ff8c00; stroke: #ffffff; stroke-width: 0.48"/>
     <use xlink:href="#m54d0f79ed8" x="130.309351" y="359.138464" style="fill: #ff8c00; stroke: #ffffff; stroke-width: 0.48"/>
     <use xlink:href="#m54d0f79ed8" x="88.012906" y="100.873935" style="fill: #ff8c00; stroke: #ffffff; stroke-width: 0.48"/>
     <use xlink:href="#m54d0f79ed8" x="108.054432" y="366.867404" style="fill: #ff8c00; stroke: #ffffff; stroke-width: 0.48"/>
     <use xlink:href="#m54d0f79ed8" x="104.13521" y="209.586056" style="fill: #ff8c00; stroke: #ffffff; stroke-width: 0.48"/>
     <use xlink:href="#m54d0f79ed8" x="131.626005" y="325.602909" style="fill: #ff8c00; stroke: #ffffff; stroke-width: 0.48"/>
     <use xlink:href="#m54d0f79ed8" x="152.667911" y="327.629938" style="fill: #ff8c00; stroke: #ffffff; stroke-width: 0.48"/>
     <use xlink:href="#m54d0f79ed8" x="274.473303" y="339.222923" style="fill: #ff8c00; stroke: #ffffff; stroke-width: 0.48"/>
     <use xlink:href="#m54d0f79ed8" x="108.171124" y="364.553581" style="fill: #ff8c00; stroke: #ffffff; stroke-width: 0.48"/>
     <use xlink:href="#m54d0f79ed8" x="135.37831" y="291.062253" style="fill: #ff8c00; stroke: #ffffff; stroke-width: 0.48"/>
     <use xlink:href="#m54d0f79ed8" x="142.932048" y="311.0925" style="fill: #ff8c00; stroke: #ffffff; stroke-width: 0.48"/>
     <use xlink:href="#m54d0f79ed8" x="126.697468" y="349.994382" style="fill: #ff8c00; stroke: #ffffff; stroke-width: 0.48"/>
     <use xlink:href="#m54d0f79ed8" x="144.836509" y="342.96683" style="fill: #ff8c00; stroke: #ffffff; stroke-width: 0.48"/>
     <use xlink:href="#m54d0f79ed8" x="126.669992" y="215.144159" style="fill: #ff8c00; stroke: #ffffff; stroke-width: 0.48"/>
     <use xlink:href="#m54d0f79ed8" x="165.320997" y="358.739572" style="fill: #ff8c00; stroke: #ffffff; stroke-width: 0.48"/>
     <use xlink:href="#m54d0f79ed8" x="154.574605" y="348.176491" style="fill: #ff8c00; stroke: #ffffff; stroke-width: 0.48"/>
     <use xlink:href="#m54d0f79ed8" x="122.678263" y="297.48868" style="fill: #ff8c00; stroke: #ffffff; stroke-width: 0.48"/>
    </g>
   </g>
   <g id="line2d_15">
    <path d="M 69.312231 296.355797 
L 72.071009 296.811406 
L 74.829786 297.267014 
L 77.588563 297.722622 
L 80.347341 298.178231 
L 83.106118 298.633839 
L 85.864895 299.089447 
L 88.623672 299.545056 
L 91.38245 300.000664 
L 94.141227 300.456272 
L 96.900004 300.911881 
L 99.658781 301.367489 
L 102.417559 301.823097 
L 105.176336 302.278706 
L 107.935113 302.734314 
L 110.693891 303.189922 
L 113.452668 303.645531 
L 116.211445 304.101139 
L 118.970222 304.556748 
L 121.729 305.012356 
L 124.487777 305.467964 
L 127.246554 305.923573 
L 130.005331 306.379181 
L 132.764109 306.834789 
L 135.522886 307.290398 
L 138.281663 307.746006 
L 141.040441 308.201614 
L 143.799218 308.657223 
L 146.557995 309.112831 
L 149.316772 309.568439 
L 152.07555 310.024048 
L 154.834327 310.479656 
L 157.593104 310.935264 
L 160.351882 311.390873 
L 163.110659 311.846481 
L 165.869436 312.302089 
L 168.628213 312.757698 
L 171.386991 313.213306 
L 174.145768 313.668914 
L 176.904545 314.124523 
L 179.663322 314.580131 
L 182.4221 315.035739 
L 185.180877 315.491348 
L 187.939654 315.946956 
L 190.698432 316.402564 
L 193.457209 316.858173 
L 196.215986 317.313781 
L 198.974763 317.769389 
L 201.733541 318.224998 
L 204.492318 318.680606 
L 207.251095 319.136214 
L 210.009873 319.591823 
L 212.76865 320.047431 
L 215.527427 320.503039 
L 218.286204 320.958648 
L 221.044982 321.414256 
L 223.803759 321.869865 
L 226.562536 322.325473 
L 229.321313 322.781081 
L 232.080091 323.23669 
L 234.838868 323.692298 
L 237.597645 324.147906 
L 240.356423 324.603515 
L 243.1152 325.059123 
L 245.873977 325.514731 
L 248.632754 325.97034 
L 251.391532 326.425948 
L 254.150309 326.881556 
L 256.909086 327.337165 
L 259.667864 327.792773 
L 262.426641 328.248381 
L 265.185418 328.70399 
L 267.944195 329.159598 
L 270.702973 329.615206 
L 273.46175 330.070815 
L 276.220527 330.526423 
L 278.979304 330.982031 
L 281.738082 331.43764 
L 284.496859 331.893248 
L 287.255636 332.348856 
L 290.014414 332.804465 
L 292.773191 333.260073 
L 295.531968 333.715681 
L 298.290745 334.17129 
L 301.049523 334.626898 
L 303.8083 335.082506 
L 306.567077 335.538115 
L 309.325854 335.993723 
L 312.084632 336.449331 
L 314.843409 336.90494 
L 317.602186 337.360548 
L 320.360964 337.816157 
L 323.119741 338.271765 
L 325.878518 338.727373 
L 328.637295 339.182982 
L 331.396073 339.63859 
L 334.15485 340.094198 
L 336.913627 340.549807 
L 339.672405 341.005415 
L 342.431182 341.461023 
" clip-path="url(#pf8ee687acc)" style="fill: none; stroke: #4c72b0; stroke-width: 2.25; stroke-linecap: round"/>
   </g>
   <g id="patch_3">
    <path d="M 52.65 384.66 
L 52.65 76.68 
" style="fill: none; stroke: #262626; stroke-width: 1.25; stroke-linejoin: miter; stroke-linecap: square"/>
   </g>
   <g id="patch_4">
    <path d="M 52.65 384.66 
L 356.230286 384.66 
" style="fill: none; stroke: #262626; stroke-width: 1.25; stroke-linejoin: miter; stroke-linecap: square"/>
   </g>
   <g id="legend_1">
    <g id="patch_5">
     <path d="M 241.165129 116.991562 
L 348.530286 116.991562 
Q 350.730286 116.991562 350.730286 114.791562 
L 350.730286 84.38 
Q 350.730286 82.18 348.530286 82.18 
L 241.165129 82.18 
Q 238.965129 82.18 238.965129 84.38 
L 238.965129 114.791562 
Q 238.965129 116.991562 241.165129 116.991562 
z
" style="fill: #ffffff; opacity: 0.8; stroke: #cccccc; stroke-linejoin: miter"/>
    </g>
    <g id="PathCollection_3">
     <g>
      <use xlink:href="#m02e380971d" x="254.365129" y="91.566094" style="fill: #4c72b0; fill-opacity: 0.8; stroke: #4c72b0; stroke-opacity: 0.8"/>
     </g>
    </g>
    <g id="text_17">
     <!-- Regular Input -->
     <g style="fill: #262626" transform="translate(274.165129 94.453594) scale(0.11 -0.11)">
      <defs>
       <path id="ArialMT-52" d="M 503 0 
L 503 4581 
L 2534 4581 
Q 3147 4581 3465 4457 
Q 3784 4334 3975 4021 
Q 4166 3709 4166 3331 
Q 4166 2844 3850 2509 
Q 3534 2175 2875 2084 
Q 3116 1969 3241 1856 
Q 3506 1613 3744 1247 
L 4541 0 
L 3778 0 
L 3172 953 
Q 2906 1366 2734 1584 
Q 2563 1803 2427 1890 
Q 2291 1978 2150 2013 
Q 2047 2034 1813 2034 
L 1109 2034 
L 1109 0 
L 503 0 
z
M 1109 2559 
L 2413 2559 
Q 2828 2559 3062 2645 
Q 3297 2731 3419 2920 
Q 3541 3109 3541 3331 
Q 3541 3656 3305 3865 
Q 3069 4075 2559 4075 
L 1109 4075 
L 1109 2559 
z
" transform="scale(0.015625)"/>
       <path id="ArialMT-67" d="M 319 -275 
L 866 -356 
Q 900 -609 1056 -725 
Q 1266 -881 1628 -881 
Q 2019 -881 2231 -725 
Q 2444 -569 2519 -288 
Q 2563 -116 2559 434 
Q 2191 0 1641 0 
Q 956 0 581 494 
Q 206 988 206 1678 
Q 206 2153 378 2554 
Q 550 2956 876 3175 
Q 1203 3394 1644 3394 
Q 2231 3394 2613 2919 
L 2613 3319 
L 3131 3319 
L 3131 450 
Q 3131 -325 2973 -648 
Q 2816 -972 2473 -1159 
Q 2131 -1347 1631 -1347 
Q 1038 -1347 672 -1080 
Q 306 -813 319 -275 
z
M 784 1719 
Q 784 1066 1043 766 
Q 1303 466 1694 466 
Q 2081 466 2343 764 
Q 2606 1063 2606 1700 
Q 2606 2309 2336 2618 
Q 2066 2928 1684 2928 
Q 1309 2928 1046 2623 
Q 784 2319 784 1719 
z
" transform="scale(0.015625)"/>
       <path id="ArialMT-61" d="M 2588 409 
Q 2275 144 1986 34 
Q 1697 -75 1366 -75 
Q 819 -75 525 192 
Q 231 459 231 875 
Q 231 1119 342 1320 
Q 453 1522 633 1644 
Q 813 1766 1038 1828 
Q 1203 1872 1538 1913 
Q 2219 1994 2541 2106 
Q 2544 2222 2544 2253 
Q 2544 2597 2384 2738 
Q 2169 2928 1744 2928 
Q 1347 2928 1158 2789 
Q 969 2650 878 2297 
L 328 2372 
Q 403 2725 575 2942 
Q 747 3159 1072 3276 
Q 1397 3394 1825 3394 
Q 2250 3394 2515 3294 
Q 2781 3194 2906 3042 
Q 3031 2891 3081 2659 
Q 3109 2516 3109 2141 
L 3109 1391 
Q 3109 606 3145 398 
Q 3181 191 3288 0 
L 2700 0 
Q 2613 175 2588 409 
z
M 2541 1666 
Q 2234 1541 1622 1453 
Q 1275 1403 1131 1340 
Q 988 1278 909 1158 
Q 831 1038 831 891 
Q 831 666 1001 516 
Q 1172 366 1500 366 
Q 1825 366 2078 508 
Q 2331 650 2450 897 
Q 2541 1088 2541 1459 
L 2541 1666 
z
" transform="scale(0.015625)"/>
       <path id="ArialMT-49" d="M 597 0 
L 597 4581 
L 1203 4581 
L 1203 0 
L 597 0 
z
" transform="scale(0.015625)"/>
       <path id="ArialMT-70" d="M 422 -1272 
L 422 3319 
L 934 3319 
L 934 2888 
Q 1116 3141 1344 3267 
Q 1572 3394 1897 3394 
Q 2322 3394 2647 3175 
Q 2972 2956 3137 2557 
Q 3303 2159 3303 1684 
Q 3303 1175 3120 767 
Q 2938 359 2589 142 
Q 2241 -75 1856 -75 
Q 1575 -75 1351 44 
Q 1128 163 984 344 
L 984 -1272 
L 422 -1272 
z
M 931 1641 
Q 931 1000 1190 694 
Q 1450 388 1819 388 
Q 2194 388 2461 705 
Q 2728 1022 2728 1688 
Q 2728 2322 2467 2637 
Q 2206 2953 1844 2953 
Q 1484 2953 1207 2617 
Q 931 2281 931 1641 
z
" transform="scale(0.015625)"/>
       <path id="ArialMT-74" d="M 1650 503 
L 1731 6 
Q 1494 -44 1306 -44 
Q 1000 -44 831 53 
Q 663 150 594 308 
Q 525 466 525 972 
L 525 2881 
L 113 2881 
L 113 3319 
L 525 3319 
L 525 4141 
L 1084 4478 
L 1084 3319 
L 1650 3319 
L 1650 2881 
L 1084 2881 
L 1084 941 
Q 1084 700 1114 631 
Q 1144 563 1211 522 
Q 1278 481 1403 481 
Q 1497 481 1650 503 
z
" transform="scale(0.015625)"/>
      </defs>
      <use xlink:href="#ArialMT-52"/>
      <use xlink:href="#ArialMT-65" x="72.216797"/>
      <use xlink:href="#ArialMT-67" x="127.832031"/>
      <use xlink:href="#ArialMT-75" x="183.447266"/>
      <use xlink:href="#ArialMT-6c" x="239.0625"/>
      <use xlink:href="#ArialMT-61" x="261.279297"/>
      <use xlink:href="#ArialMT-72" x="316.894531"/>
      <use xlink:href="#ArialMT-20" x="350.195312"/>
      <use xlink:href="#ArialMT-49" x="377.978516"/>
      <use xlink:href="#ArialMT-6e" x="405.761719"/>
      <use xlink:href="#ArialMT-70" x="461.376953"/>
      <use xlink:href="#ArialMT-75" x="516.992188"/>
      <use xlink:href="#ArialMT-74" x="572.607422"/>
     </g>
    </g>
    <g id="PathCollection_4">
     <g>
      <use xlink:href="#m54d0f79ed8" x="254.365129" y="107.388906" style="fill: #ff8c00; stroke: #ffffff; stroke-width: 0.48"/>
     </g>
    </g>
    <g id="text_18">
     <!-- Changed Input -->
     <g style="fill: #262626" transform="translate(274.165129 110.276406) scale(0.11 -0.11)">
      <defs>
       <path id="ArialMT-43" d="M 3763 1606 
L 4369 1453 
Q 4178 706 3683 314 
Q 3188 -78 2472 -78 
Q 1731 -78 1267 223 
Q 803 525 561 1097 
Q 319 1669 319 2325 
Q 319 3041 592 3573 
Q 866 4106 1370 4382 
Q 1875 4659 2481 4659 
Q 3169 4659 3637 4309 
Q 4106 3959 4291 3325 
L 3694 3184 
Q 3534 3684 3231 3912 
Q 2928 4141 2469 4141 
Q 1941 4141 1586 3887 
Q 1231 3634 1087 3207 
Q 944 2781 944 2328 
Q 944 1744 1114 1308 
Q 1284 872 1643 656 
Q 2003 441 2422 441 
Q 2931 441 3284 734 
Q 3638 1028 3763 1606 
z
" transform="scale(0.015625)"/>
       <path id="ArialMT-68" d="M 422 0 
L 422 4581 
L 984 4581 
L 984 2938 
Q 1378 3394 1978 3394 
Q 2347 3394 2619 3248 
Q 2891 3103 3008 2847 
Q 3125 2591 3125 2103 
L 3125 0 
L 2563 0 
L 2563 2103 
Q 2563 2525 2380 2717 
Q 2197 2909 1863 2909 
Q 1613 2909 1392 2779 
Q 1172 2650 1078 2428 
Q 984 2206 984 1816 
L 984 0 
L 422 0 
z
" transform="scale(0.015625)"/>
       <path id="ArialMT-64" d="M 2575 0 
L 2575 419 
Q 2259 -75 1647 -75 
Q 1250 -75 917 144 
Q 584 363 401 755 
Q 219 1147 219 1656 
Q 219 2153 384 2558 
Q 550 2963 881 3178 
Q 1213 3394 1622 3394 
Q 1922 3394 2156 3267 
Q 2391 3141 2538 2938 
L 2538 4581 
L 3097 4581 
L 3097 0 
L 2575 0 
z
M 797 1656 
Q 797 1019 1065 703 
Q 1334 388 1700 388 
Q 2069 388 2326 689 
Q 2584 991 2584 1609 
Q 2584 2291 2321 2609 
Q 2059 2928 1675 2928 
Q 1300 2928 1048 2622 
Q 797 2316 797 1656 
z
" transform="scale(0.015625)"/>
      </defs>
      <use xlink:href="#ArialMT-43"/>
      <use xlink:href="#ArialMT-68" x="72.216797"/>
      <use xlink:href="#ArialMT-61" x="127.832031"/>
      <use xlink:href="#ArialMT-6e" x="183.447266"/>
      <use xlink:href="#ArialMT-67" x="239.0625"/>
      <use xlink:href="#ArialMT-65" x="294.677734"/>
      <use xlink:href="#ArialMT-64" x="350.292969"/>
      <use xlink:href="#ArialMT-20" x="405.908203"/>
      <use xlink:href="#ArialMT-49" x="433.691406"/>
      <use xlink:href="#ArialMT-6e" x="461.474609"/>
      <use xlink:href="#ArialMT-70" x="517.089844"/>
      <use xlink:href="#ArialMT-75" x="572.705078"/>
      <use xlink:href="#ArialMT-74" x="628.320312"/>
     </g>
    </g>
   </g>
  </g>
  <g id="axes_2">
   <g id="patch_6">
    <path d="M 52.65 66.06 
L 356.230286 66.06 
L 356.230286 12.96 
L 52.65 12.96 
z
" style="fill: #ffffff"/>
   </g>
   <g id="matplotlib.axis_3">
    <g id="xtick_9">
     <g id="line2d_16">
      <g>
       <use xlink:href="#m3e99926ed4" x="78.9702" y="66.06" style="fill: #262626; stroke: #262626; stroke-width: 1.25"/>
      </g>
     </g>
    </g>
    <g id="xtick_10">
     <g id="line2d_17">
      <g>
       <use xlink:href="#m3e99926ed4" x="115.301121" y="66.06" style="fill: #262626; stroke: #262626; stroke-width: 1.25"/>
      </g>
     </g>
    </g>
    <g id="xtick_11">
     <g id="line2d_18">
      <g>
       <use xlink:href="#m3e99926ed4" x="151.632041" y="66.06" style="fill: #262626; stroke: #262626; stroke-width: 1.25"/>
      </g>
     </g>
    </g>
    <g id="xtick_12">
     <g id="line2d_19">
      <g>
       <use xlink:href="#m3e99926ed4" x="187.962961" y="66.06" style="fill: #262626; stroke: #262626; stroke-width: 1.25"/>
      </g>
     </g>
    </g>
    <g id="xtick_13">
     <g id="line2d_20">
      <g>
       <use xlink:href="#m3e99926ed4" x="224.293881" y="66.06" style="fill: #262626; stroke: #262626; stroke-width: 1.25"/>
      </g>
     </g>
    </g>
    <g id="xtick_14">
     <g id="line2d_21">
      <g>
       <use xlink:href="#m3e99926ed4" x="260.624802" y="66.06" style="fill: #262626; stroke: #262626; stroke-width: 1.25"/>
      </g>
     </g>
    </g>
    <g id="xtick_15">
     <g id="line2d_22">
      <g>
       <use xlink:href="#m3e99926ed4" x="296.955722" y="66.06" style="fill: #262626; stroke: #262626; stroke-width: 1.25"/>
      </g>
     </g>
    </g>
    <g id="xtick_16">
     <g id="line2d_23">
      <g>
       <use xlink:href="#m3e99926ed4" x="333.286642" y="66.06" style="fill: #262626; stroke: #262626; stroke-width: 1.25"/>
      </g>
     </g>
    </g>
   </g>
   <g id="matplotlib.axis_4">
    <g id="ytick_7"/>
    <g id="ytick_8"/>
   </g>
   <g id="patch_7">
    <path d="M 69.312231 66.06 
L 103.4521 66.06 
L 103.4521 49.202857 
L 69.312231 49.202857 
z
" clip-path="url(#pa2aab76d26)" style="fill: #4c72b0; fill-opacity: 0.5; stroke: #ffffff; stroke-linejoin: miter"/>
   </g>
   <g id="patch_8">
    <path d="M 103.4521 66.06 
L 137.591969 66.06 
L 137.591969 15.488571 
L 103.4521 15.488571 
z
" clip-path="url(#pa2aab76d26)" style="fill: #4c72b0; fill-opacity: 0.5; stroke: #ffffff; stroke-linejoin: miter"/>
   </g>
   <g id="patch_9">
    <path d="M 137.591969 66.06 
L 171.731838 66.06 
L 171.731838 36.56 
L 137.591969 36.56 
z
" clip-path="url(#pa2aab76d26)" style="fill: #4c72b0; fill-opacity: 0.5; stroke: #ffffff; stroke-linejoin: miter"/>
   </g>
   <g id="patch_10">
    <path d="M 171.731838 66.06 
L 205.871707 66.06 
L 205.871707 47.095714 
L 171.731838 47.095714 
z
" clip-path="url(#pa2aab76d26)" style="fill: #4c72b0; fill-opacity: 0.5; stroke: #ffffff; stroke-linejoin: miter"/>
   </g>
   <g id="patch_11">
    <path d="M 205.871707 66.06 
L 240.011575 66.06 
L 240.011575 51.31 
L 205.871707 51.31 
z
" clip-path="url(#pa2aab76d26)" style="fill: #4c72b0; fill-opacity: 0.5; stroke: #ffffff; stroke-linejoin: miter"/>
   </g>
   <g id="patch_12">
    <path d="M 240.011575 66.06 
L 274.151444 66.06 
L 274.151444 53.417143 
L 240.011575 53.417143 
z
" clip-path="url(#pa2aab76d26)" style="fill: #4c72b0; fill-opacity: 0.5; stroke: #ffffff; stroke-linejoin: miter"/>
   </g>
   <g id="patch_13">
    <path d="M 274.151444 66.06 
L 308.291313 66.06 
L 308.291313 57.631429 
L 274.151444 57.631429 
z
" clip-path="url(#pa2aab76d26)" style="fill: #4c72b0; fill-opacity: 0.5; stroke: #ffffff; stroke-linejoin: miter"/>
   </g>
   <g id="patch_14">
    <path d="M 308.291313 66.06 
L 342.431182 66.06 
L 342.431182 57.631429 
L 308.291313 57.631429 
z
" clip-path="url(#pa2aab76d26)" style="fill: #4c72b0; fill-opacity: 0.5; stroke: #ffffff; stroke-linejoin: miter"/>
   </g>
   <g id="line2d_24">
    <path d="M 69.312231 55.126377 
L 74.80206 52.870067 
L 80.291888 50.399335 
L 87.154173 47.062055 
L 99.506286 40.705439 
L 106.368571 37.280104 
L 111.8584 34.78001 
L 115.975771 33.123261 
L 120.093142 31.706706 
L 124.210513 30.571875 
L 128.327884 29.751435 
L 131.072798 29.390249 
L 133.817712 29.181857 
L 136.562626 29.126909 
L 139.30754 29.22346 
L 143.424911 29.641987 
L 147.542283 30.366377 
L 151.659654 31.362563 
L 155.777025 32.589401 
L 161.266853 34.504965 
L 168.129138 37.191498 
L 184.598623 43.815358 
L 190.088451 45.783866 
L 195.578279 47.530619 
L 201.068107 49.018437 
L 206.557935 50.227044 
L 212.047763 51.153208 
L 217.537591 51.810069 
L 223.02742 52.225513 
L 229.889705 52.46752 
L 238.124447 52.48352 
L 255.966388 52.38545 
L 262.828674 52.601575 
L 269.690959 53.065559 
L 276.553244 53.787598 
L 283.415529 54.728068 
L 295.767643 56.701979 
L 306.747299 58.379917 
L 314.982041 59.429981 
L 324.58924 60.420792 
L 341.058725 61.831182 
L 342.431182 61.946528 
L 342.431182 61.946528 
" clip-path="url(#pa2aab76d26)" style="fill: none; stroke: #4c72b0; stroke-width: 1.5; stroke-linecap: round"/>
   </g>
   <g id="patch_15">
    <path d="M 52.65 66.06 
L 356.230286 66.06 
" style="fill: none; stroke: #262626; stroke-width: 1.25; stroke-linejoin: miter; stroke-linecap: square"/>
   </g>
  </g>
  <g id="axes_3">
   <g id="patch_16">
    <path d="M 366.698571 384.66 
L 419.04 384.66 
L 419.04 76.68 
L 366.698571 76.68 
z
" style="fill: #ffffff"/>
   </g>
   <g id="matplotlib.axis_5">
    <g id="xtick_17"/>
    <g id="xtick_18"/>
   </g>
   <g id="matplotlib.axis_6">
    <g id="ytick_9">
     <g id="line2d_25">
      <g>
       <use xlink:href="#m7d4dbc977f" x="366.698571" y="367.014998" style="fill: #262626; stroke: #262626; stroke-width: 1.25"/>
      </g>
     </g>
    </g>
    <g id="ytick_10">
     <g id="line2d_26">
      <g>
       <use xlink:href="#m7d4dbc977f" x="366.698571" y="309.172129" style="fill: #262626; stroke: #262626; stroke-width: 1.25"/>
      </g>
     </g>
    </g>
    <g id="ytick_11">
     <g id="line2d_27">
      <g>
       <use xlink:href="#m7d4dbc977f" x="366.698571" y="251.329261" style="fill: #262626; stroke: #262626; stroke-width: 1.25"/>
      </g>
     </g>
    </g>
    <g id="ytick_12">
     <g id="line2d_28">
      <g>
       <use xlink:href="#m7d4dbc977f" x="366.698571" y="193.486392" style="fill: #262626; stroke: #262626; stroke-width: 1.25"/>
      </g>
     </g>
    </g>
    <g id="ytick_13">
     <g id="line2d_29">
      <g>
       <use xlink:href="#m7d4dbc977f" x="366.698571" y="135.643523" style="fill: #262626; stroke: #262626; stroke-width: 1.25"/>
      </g>
     </g>
    </g>
    <g id="ytick_14">
     <g id="line2d_30">
      <g>
       <use xlink:href="#m7d4dbc977f" x="366.698571" y="77.800655" style="fill: #262626; stroke: #262626; stroke-width: 1.25"/>
      </g>
     </g>
    </g>
   </g>
   <g id="patch_17">
    <path d="M 366.698571 366.867404 
L 416.547551 366.867404 
L 416.547551 341.759375 
L 366.698571 341.759375 
z
" clip-path="url(#p1ee7bac9a3)" style="fill: #4c72b0; fill-opacity: 0.5; stroke: #ffffff; stroke-linejoin: miter"/>
   </g>
   <g id="patch_18">
    <path d="M 366.698571 341.759375 
L 393.180842 341.759375 
L 393.180842 316.651347 
L 366.698571 316.651347 
z
" clip-path="url(#p1ee7bac9a3)" style="fill: #4c72b0; fill-opacity: 0.5; stroke: #ffffff; stroke-linejoin: miter"/>
   </g>
   <g id="patch_19">
    <path d="M 366.698571 316.651347 
L 383.834158 316.651347 
L 383.834158 291.543318 
L 366.698571 291.543318 
z
" clip-path="url(#p1ee7bac9a3)" style="fill: #4c72b0; fill-opacity: 0.5; stroke: #ffffff; stroke-linejoin: miter"/>
   </g>
   <g id="patch_20">
    <path d="M 366.698571 291.543318 
L 374.487474 291.543318 
L 374.487474 266.43529 
L 366.698571 266.43529 
z
" clip-path="url(#p1ee7bac9a3)" style="fill: #4c72b0; fill-opacity: 0.5; stroke: #ffffff; stroke-linejoin: miter"/>
   </g>
   <g id="patch_21">
    <path d="M 366.698571 266.43529 
L 371.371913 266.43529 
L 371.371913 241.327261 
L 366.698571 241.327261 
z
" clip-path="url(#p1ee7bac9a3)" style="fill: #4c72b0; fill-opacity: 0.5; stroke: #ffffff; stroke-linejoin: miter"/>
   </g>
   <g id="patch_22">
    <path d="M 366.698571 241.327261 
L 368.256352 241.327261 
L 368.256352 216.219233 
L 366.698571 216.219233 
z
" clip-path="url(#p1ee7bac9a3)" style="fill: #4c72b0; fill-opacity: 0.5; stroke: #ffffff; stroke-linejoin: miter"/>
   </g>
   <g id="patch_23">
    <path d="M 366.698571 216.219233 
L 371.371913 216.219233 
L 371.371913 191.111205 
L 366.698571 191.111205 
z
" clip-path="url(#p1ee7bac9a3)" style="fill: #4c72b0; fill-opacity: 0.5; stroke: #ffffff; stroke-linejoin: miter"/>
   </g>
   <g id="patch_24">
    <path d="M 366.698571 191.111205 
L 368.256352 191.111205 
L 368.256352 166.003176 
L 366.698571 166.003176 
z
" clip-path="url(#p1ee7bac9a3)" style="fill: #4c72b0; fill-opacity: 0.5; stroke: #ffffff; stroke-linejoin: miter"/>
   </g>
   <g id="patch_25">
    <path d="M 366.698571 166.003176 
L 366.698571 166.003176 
L 366.698571 140.895148 
L 366.698571 140.895148 
z
" clip-path="url(#p1ee7bac9a3)" style="fill: #4c72b0; fill-opacity: 0.5; stroke: #ffffff; stroke-linejoin: miter"/>
   </g>
   <g id="patch_26">
    <path d="M 366.698571 140.895148 
L 366.698571 140.895148 
L 366.698571 115.787119 
L 366.698571 115.787119 
z
" clip-path="url(#p1ee7bac9a3)" style="fill: #4c72b0; fill-opacity: 0.5; stroke: #ffffff; stroke-linejoin: miter"/>
   </g>
   <g id="patch_27">
    <path d="M 366.698571 115.787119 
L 371.371913 115.787119 
L 371.371913 90.679091 
L 366.698571 90.679091 
z
" clip-path="url(#p1ee7bac9a3)" style="fill: #4c72b0; fill-opacity: 0.5; stroke: #ffffff; stroke-linejoin: miter"/>
   </g>
   <g id="line2d_31">
    <path d="M 388.08445 366.867404 
L 389.935273 362.703761 
L 391.498475 358.540118 
L 392.352434 355.764356 
L 393.041559 352.988594 
L 393.558347 350.212832 
L 393.89964 347.43707 
L 394.066509 344.661308 
L 394.063971 341.885546 
L 393.900551 339.109784 
L 393.379544 334.946141 
L 392.570853 330.782498 
L 391.529255 326.618856 
L 389.876367 321.067332 
L 387.086576 312.740046 
L 382.85765 300.249117 
L 380.712844 293.309712 
L 378.788489 286.370307 
L 377.101184 279.430903 
L 375.647869 272.491498 
L 374.415821 265.552093 
L 373.388377 258.612688 
L 372.398149 250.285402 
L 371.632652 241.958116 
L 370.863501 230.855069 
L 369.56295 207.261092 
L 368.229111 180.891354 
L 367.714952 165.624663 
L 367.466857 151.745854 
L 367.47083 139.254925 
L 367.721972 126.763996 
L 368.479154 97.618496 
L 368.455984 90.679091 
L 368.455984 90.679091 
" clip-path="url(#p1ee7bac9a3)" style="fill: none; stroke: #4c72b0; stroke-width: 1.5; stroke-linecap: round"/>
   </g>
   <g id="patch_28">
    <path d="M 366.698571 384.66 
L 366.698571 76.68 
" style="fill: none; stroke: #262626; stroke-width: 1.25; stroke-linejoin: miter; stroke-linecap: square"/>
   </g>
  </g>
 </g>
 <defs>
  <clipPath id="pf8ee687acc">
   <rect x="52.65" y="76.68" width="303.580286" height="307.98"/>
  </clipPath>
  <clipPath id="pa2aab76d26">
   <rect x="52.65" y="12.96" width="303.580286" height="53.1"/>
  </clipPath>
  <clipPath id="p1ee7bac9a3">
   <rect x="366.698571" y="76.68" width="52.341429" height="307.98"/>
  </clipPath>
 </defs>
</svg>
