<?xml version="1.0" encoding="utf-8" standalone="no"?>
<!DOCTYPE svg PUBLIC "-//W3C//DTD SVG 1.1//EN"
  "http://www.w3.org/Graphics/SVG/1.1/DTD/svg11.dtd">
<svg xmlns:xlink="http://www.w3.org/1999/xlink" width="460.8pt" height="345.6pt" viewBox="0 0 460.8 345.6" xmlns="http://www.w3.org/2000/svg" version="1.1">
 <metadata>
  <rdf:RDF xmlns:dc="http://purl.org/dc/elements/1.1/" xmlns:cc="http://creativecommons.org/ns#" xmlns:rdf="http://www.w3.org/1999/02/22-rdf-syntax-ns#">
   <cc:Work>
    <dc:type rdf:resource="http://purl.org/dc/dcmitype/StillImage"/>
    <dc:date>2023-09-05T10:40:38.285616</dc:date>
    <dc:format>image/svg+xml</dc:format>
    <dc:creator>
     <cc:Agent>
      <dc:title>Matplotlib v3.7.1, https://matplotlib.org/</dc:title>
     </cc:Agent>
    </dc:creator>
   </cc:Work>
  </rdf:RDF>
 </metadata>
 <defs>
  <style type="text/css">*{stroke-linejoin: round; stroke-linecap: butt}</style>
 </defs>
 <g id="figure_1">
  <g id="patch_1">
   <path d="M 0 345.6 
L 460.8 345.6 
L 460.8 0 
L 0 0 
z
" style="fill: #ffffff"/>
  </g>
  <g id="axes_1">
   <g id="patch_2">
    <path d="M 57.6 307.584 
L 414.72 307.584 
L 414.72 41.472 
L 57.6 41.472 
z
" style="fill: #ffffff"/>
   </g>
   <g id="matplotlib.axis_1">
    <g id="xtick_1">
     <g id="line2d_1">
      <defs>
       <path id="mfde83e1f22" d="M 0 0 
L 0 3.5 
" style="stroke: #262626; stroke-width: 0.8"/>
      </defs>
      <g>
       <use xlink:href="#mfde83e1f22" x="73.369092" y="307.584" style="fill: #262626; stroke: #262626; stroke-width: 0.8"/>
      </g>
     </g>
     <g id="text_1">
      <!-- 0.0 -->
      <g style="fill: #262626" transform="translate(66.419092 321.741812) scale(0.1 -0.1)">
       <defs>
        <path id="ArialMT-30" d="M 266 2259 
Q 266 3072 433 3567 
Q 600 4063 929 4331 
Q 1259 4600 1759 4600 
Q 2128 4600 2406 4451 
Q 2684 4303 2865 4023 
Q 3047 3744 3150 3342 
Q 3253 2941 3253 2259 
Q 3253 1453 3087 958 
Q 2922 463 2592 192 
Q 2263 -78 1759 -78 
Q 1097 -78 719 397 
Q 266 969 266 2259 
z
M 844 2259 
Q 844 1131 1108 757 
Q 1372 384 1759 384 
Q 2147 384 2411 759 
Q 2675 1134 2675 2259 
Q 2675 3391 2411 3762 
Q 2147 4134 1753 4134 
Q 1366 4134 1134 3806 
Q 844 3388 844 2259 
z
" transform="scale(0.015625)"/>
        <path id="ArialMT-2e" d="M 581 0 
L 581 641 
L 1222 641 
L 1222 0 
L 581 0 
z
" transform="scale(0.015625)"/>
       </defs>
       <use xlink:href="#ArialMT-30"/>
       <use xlink:href="#ArialMT-2e" x="55.615234"/>
       <use xlink:href="#ArialMT-30" x="83.398438"/>
      </g>
     </g>
    </g>
    <g id="xtick_2">
     <g id="line2d_2">
      <g>
       <use xlink:href="#mfde83e1f22" x="114.727254" y="307.584" style="fill: #262626; stroke: #262626; stroke-width: 0.8"/>
      </g>
     </g>
     <g id="text_2">
      <!-- 2.5 -->
      <g style="fill: #262626" transform="translate(107.777254 321.741812) scale(0.1 -0.1)">
       <defs>
        <path id="ArialMT-32" d="M 3222 541 
L 3222 0 
L 194 0 
Q 188 203 259 391 
Q 375 700 629 1000 
Q 884 1300 1366 1694 
Q 2113 2306 2375 2664 
Q 2638 3022 2638 3341 
Q 2638 3675 2398 3904 
Q 2159 4134 1775 4134 
Q 1369 4134 1125 3890 
Q 881 3647 878 3216 
L 300 3275 
Q 359 3922 746 4261 
Q 1134 4600 1788 4600 
Q 2447 4600 2831 4234 
Q 3216 3869 3216 3328 
Q 3216 3053 3103 2787 
Q 2991 2522 2730 2228 
Q 2469 1934 1863 1422 
Q 1356 997 1212 845 
Q 1069 694 975 541 
L 3222 541 
z
" transform="scale(0.015625)"/>
        <path id="ArialMT-35" d="M 266 1200 
L 856 1250 
Q 922 819 1161 601 
Q 1400 384 1738 384 
Q 2144 384 2425 690 
Q 2706 997 2706 1503 
Q 2706 1984 2436 2262 
Q 2166 2541 1728 2541 
Q 1456 2541 1237 2417 
Q 1019 2294 894 2097 
L 366 2166 
L 809 4519 
L 3088 4519 
L 3088 3981 
L 1259 3981 
L 1013 2750 
Q 1425 3038 1878 3038 
Q 2478 3038 2890 2622 
Q 3303 2206 3303 1553 
Q 3303 931 2941 478 
Q 2500 -78 1738 -78 
Q 1113 -78 717 272 
Q 322 622 266 1200 
z
" transform="scale(0.015625)"/>
       </defs>
       <use xlink:href="#ArialMT-32"/>
       <use xlink:href="#ArialMT-2e" x="55.615234"/>
       <use xlink:href="#ArialMT-35" x="83.398438"/>
      </g>
     </g>
    </g>
    <g id="xtick_3">
     <g id="line2d_3">
      <g>
       <use xlink:href="#mfde83e1f22" x="156.085415" y="307.584" style="fill: #262626; stroke: #262626; stroke-width: 0.8"/>
      </g>
     </g>
     <g id="text_3">
      <!-- 5.0 -->
      <g style="fill: #262626" transform="translate(149.135415 321.741812) scale(0.1 -0.1)">
       <use xlink:href="#ArialMT-35"/>
       <use xlink:href="#ArialMT-2e" x="55.615234"/>
       <use xlink:href="#ArialMT-30" x="83.398438"/>
      </g>
     </g>
    </g>
    <g id="xtick_4">
     <g id="line2d_4">
      <g>
       <use xlink:href="#mfde83e1f22" x="197.443577" y="307.584" style="fill: #262626; stroke: #262626; stroke-width: 0.8"/>
      </g>
     </g>
     <g id="text_4">
      <!-- 7.5 -->
      <g style="fill: #262626" transform="translate(190.493577 321.741812) scale(0.1 -0.1)">
       <defs>
        <path id="ArialMT-37" d="M 303 3981 
L 303 4522 
L 3269 4522 
L 3269 4084 
Q 2831 3619 2401 2847 
Q 1972 2075 1738 1259 
Q 1569 684 1522 0 
L 944 0 
Q 953 541 1156 1306 
Q 1359 2072 1739 2783 
Q 2119 3494 2547 3981 
L 303 3981 
z
" transform="scale(0.015625)"/>
       </defs>
       <use xlink:href="#ArialMT-37"/>
       <use xlink:href="#ArialMT-2e" x="55.615234"/>
       <use xlink:href="#ArialMT-35" x="83.398438"/>
      </g>
     </g>
    </g>
    <g id="xtick_5">
     <g id="line2d_5">
      <g>
       <use xlink:href="#mfde83e1f22" x="238.801739" y="307.584" style="fill: #262626; stroke: #262626; stroke-width: 0.8"/>
      </g>
     </g>
     <g id="text_5">
      <!-- 10.0 -->
      <g style="fill: #262626" transform="translate(229.07127 321.741812) scale(0.1 -0.1)">
       <defs>
        <path id="ArialMT-31" d="M 2384 0 
L 1822 0 
L 1822 3584 
Q 1619 3391 1289 3197 
Q 959 3003 697 2906 
L 697 3450 
Q 1169 3672 1522 3987 
Q 1875 4303 2022 4600 
L 2384 4600 
L 2384 0 
z
" transform="scale(0.015625)"/>
       </defs>
       <use xlink:href="#ArialMT-31"/>
       <use xlink:href="#ArialMT-30" x="55.615234"/>
       <use xlink:href="#ArialMT-2e" x="111.230469"/>
       <use xlink:href="#ArialMT-30" x="139.013672"/>
      </g>
     </g>
    </g>
    <g id="xtick_6">
     <g id="line2d_6">
      <g>
       <use xlink:href="#mfde83e1f22" x="280.159901" y="307.584" style="fill: #262626; stroke: #262626; stroke-width: 0.8"/>
      </g>
     </g>
     <g id="text_6">
      <!-- 12.5 -->
      <g style="fill: #262626" transform="translate(270.429432 321.741812) scale(0.1 -0.1)">
       <use xlink:href="#ArialMT-31"/>
       <use xlink:href="#ArialMT-32" x="55.615234"/>
       <use xlink:href="#ArialMT-2e" x="111.230469"/>
       <use xlink:href="#ArialMT-35" x="139.013672"/>
      </g>
     </g>
    </g>
    <g id="xtick_7">
     <g id="line2d_7">
      <g>
       <use xlink:href="#mfde83e1f22" x="321.518063" y="307.584" style="fill: #262626; stroke: #262626; stroke-width: 0.8"/>
      </g>
     </g>
     <g id="text_7">
      <!-- 15.0 -->
      <g style="fill: #262626" transform="translate(311.787594 321.741812) scale(0.1 -0.1)">
       <use xlink:href="#ArialMT-31"/>
       <use xlink:href="#ArialMT-35" x="55.615234"/>
       <use xlink:href="#ArialMT-2e" x="111.230469"/>
       <use xlink:href="#ArialMT-30" x="139.013672"/>
      </g>
     </g>
    </g>
    <g id="xtick_8">
     <g id="line2d_8">
      <g>
       <use xlink:href="#mfde83e1f22" x="362.876224" y="307.584" style="fill: #262626; stroke: #262626; stroke-width: 0.8"/>
      </g>
     </g>
     <g id="text_8">
      <!-- 17.5 -->
      <g style="fill: #262626" transform="translate(353.145756 321.741812) scale(0.1 -0.1)">
       <use xlink:href="#ArialMT-31"/>
       <use xlink:href="#ArialMT-37" x="55.615234"/>
       <use xlink:href="#ArialMT-2e" x="111.230469"/>
       <use xlink:href="#ArialMT-35" x="139.013672"/>
      </g>
     </g>
    </g>
    <g id="xtick_9">
     <g id="line2d_9">
      <g>
       <use xlink:href="#mfde83e1f22" x="404.234386" y="307.584" style="fill: #262626; stroke: #262626; stroke-width: 0.8"/>
      </g>
     </g>
     <g id="text_9">
      <!-- 20.0 -->
      <g style="fill: #262626" transform="translate(394.503918 321.741812) scale(0.1 -0.1)">
       <use xlink:href="#ArialMT-32"/>
       <use xlink:href="#ArialMT-30" x="55.615234"/>
       <use xlink:href="#ArialMT-2e" x="111.230469"/>
       <use xlink:href="#ArialMT-30" x="139.013672"/>
      </g>
     </g>
    </g>
    <g id="text_10">
     <!-- CPU time in seconds -->
     <g style="fill: #262626" transform="translate(189.477187 334.887125) scale(0.1 -0.1)">
      <defs>
       <path id="ArialMT-43" d="M 3763 1606 
L 4369 1453 
Q 4178 706 3683 314 
Q 3188 -78 2472 -78 
Q 1731 -78 1267 223 
Q 803 525 561 1097 
Q 319 1669 319 2325 
Q 319 3041 592 3573 
Q 866 4106 1370 4382 
Q 1875 4659 2481 4659 
Q 3169 4659 3637 4309 
Q 4106 3959 4291 3325 
L 3694 3184 
Q 3534 3684 3231 3912 
Q 2928 4141 2469 4141 
Q 1941 4141 1586 3887 
Q 1231 3634 1087 3207 
Q 944 2781 944 2328 
Q 944 1744 1114 1308 
Q 1284 872 1643 656 
Q 2003 441 2422 441 
Q 2931 441 3284 734 
Q 3638 1028 3763 1606 
z
" transform="scale(0.015625)"/>
       <path id="ArialMT-50" d="M 494 0 
L 494 4581 
L 2222 4581 
Q 2678 4581 2919 4538 
Q 3256 4481 3484 4323 
Q 3713 4166 3852 3881 
Q 3991 3597 3991 3256 
Q 3991 2672 3619 2267 
Q 3247 1863 2275 1863 
L 1100 1863 
L 1100 0 
L 494 0 
z
M 1100 2403 
L 2284 2403 
Q 2872 2403 3119 2622 
Q 3366 2841 3366 3238 
Q 3366 3525 3220 3729 
Q 3075 3934 2838 4000 
Q 2684 4041 2272 4041 
L 1100 4041 
L 1100 2403 
z
" transform="scale(0.015625)"/>
       <path id="ArialMT-55" d="M 3500 4581 
L 4106 4581 
L 4106 1934 
Q 4106 1244 3950 837 
Q 3794 431 3386 176 
Q 2978 -78 2316 -78 
Q 1672 -78 1262 144 
Q 853 366 678 786 
Q 503 1206 503 1934 
L 503 4581 
L 1109 4581 
L 1109 1938 
Q 1109 1341 1220 1058 
Q 1331 775 1601 622 
Q 1872 469 2263 469 
Q 2931 469 3215 772 
Q 3500 1075 3500 1938 
L 3500 4581 
z
" transform="scale(0.015625)"/>
       <path id="ArialMT-20" transform="scale(0.015625)"/>
       <path id="ArialMT-74" d="M 1650 503 
L 1731 6 
Q 1494 -44 1306 -44 
Q 1000 -44 831 53 
Q 663 150 594 308 
Q 525 466 525 972 
L 525 2881 
L 113 2881 
L 113 3319 
L 525 3319 
L 525 4141 
L 1084 4478 
L 1084 3319 
L 1650 3319 
L 1650 2881 
L 1084 2881 
L 1084 941 
Q 1084 700 1114 631 
Q 1144 563 1211 522 
Q 1278 481 1403 481 
Q 1497 481 1650 503 
z
" transform="scale(0.015625)"/>
       <path id="ArialMT-69" d="M 425 3934 
L 425 4581 
L 988 4581 
L 988 3934 
L 425 3934 
z
M 425 0 
L 425 3319 
L 988 3319 
L 988 0 
L 425 0 
z
" transform="scale(0.015625)"/>
       <path id="ArialMT-6d" d="M 422 0 
L 422 3319 
L 925 3319 
L 925 2853 
Q 1081 3097 1340 3245 
Q 1600 3394 1931 3394 
Q 2300 3394 2536 3241 
Q 2772 3088 2869 2813 
Q 3263 3394 3894 3394 
Q 4388 3394 4653 3120 
Q 4919 2847 4919 2278 
L 4919 0 
L 4359 0 
L 4359 2091 
Q 4359 2428 4304 2576 
Q 4250 2725 4106 2815 
Q 3963 2906 3769 2906 
Q 3419 2906 3187 2673 
Q 2956 2441 2956 1928 
L 2956 0 
L 2394 0 
L 2394 2156 
Q 2394 2531 2256 2718 
Q 2119 2906 1806 2906 
Q 1569 2906 1367 2781 
Q 1166 2656 1075 2415 
Q 984 2175 984 1722 
L 984 0 
L 422 0 
z
" transform="scale(0.015625)"/>
       <path id="ArialMT-65" d="M 2694 1069 
L 3275 997 
Q 3138 488 2766 206 
Q 2394 -75 1816 -75 
Q 1088 -75 661 373 
Q 234 822 234 1631 
Q 234 2469 665 2931 
Q 1097 3394 1784 3394 
Q 2450 3394 2872 2941 
Q 3294 2488 3294 1666 
Q 3294 1616 3291 1516 
L 816 1516 
Q 847 969 1125 678 
Q 1403 388 1819 388 
Q 2128 388 2347 550 
Q 2566 713 2694 1069 
z
M 847 1978 
L 2700 1978 
Q 2663 2397 2488 2606 
Q 2219 2931 1791 2931 
Q 1403 2931 1139 2672 
Q 875 2413 847 1978 
z
" transform="scale(0.015625)"/>
       <path id="ArialMT-6e" d="M 422 0 
L 422 3319 
L 928 3319 
L 928 2847 
Q 1294 3394 1984 3394 
Q 2284 3394 2536 3286 
Q 2788 3178 2913 3003 
Q 3038 2828 3088 2588 
Q 3119 2431 3119 2041 
L 3119 0 
L 2556 0 
L 2556 2019 
Q 2556 2363 2490 2533 
Q 2425 2703 2258 2804 
Q 2091 2906 1866 2906 
Q 1506 2906 1245 2678 
Q 984 2450 984 1813 
L 984 0 
L 422 0 
z
" transform="scale(0.015625)"/>
       <path id="ArialMT-73" d="M 197 991 
L 753 1078 
Q 800 744 1014 566 
Q 1228 388 1613 388 
Q 2000 388 2187 545 
Q 2375 703 2375 916 
Q 2375 1106 2209 1216 
Q 2094 1291 1634 1406 
Q 1016 1563 777 1677 
Q 538 1791 414 1992 
Q 291 2194 291 2438 
Q 291 2659 392 2848 
Q 494 3038 669 3163 
Q 800 3259 1026 3326 
Q 1253 3394 1513 3394 
Q 1903 3394 2198 3281 
Q 2494 3169 2634 2976 
Q 2775 2784 2828 2463 
L 2278 2388 
Q 2241 2644 2061 2787 
Q 1881 2931 1553 2931 
Q 1166 2931 1000 2803 
Q 834 2675 834 2503 
Q 834 2394 903 2306 
Q 972 2216 1119 2156 
Q 1203 2125 1616 2013 
Q 2213 1853 2448 1751 
Q 2684 1650 2818 1456 
Q 2953 1263 2953 975 
Q 2953 694 2789 445 
Q 2625 197 2315 61 
Q 2006 -75 1616 -75 
Q 969 -75 630 194 
Q 291 463 197 991 
z
" transform="scale(0.015625)"/>
       <path id="ArialMT-63" d="M 2588 1216 
L 3141 1144 
Q 3050 572 2676 248 
Q 2303 -75 1759 -75 
Q 1078 -75 664 370 
Q 250 816 250 1647 
Q 250 2184 428 2587 
Q 606 2991 970 3192 
Q 1334 3394 1763 3394 
Q 2303 3394 2647 3120 
Q 2991 2847 3088 2344 
L 2541 2259 
Q 2463 2594 2264 2762 
Q 2066 2931 1784 2931 
Q 1359 2931 1093 2626 
Q 828 2322 828 1663 
Q 828 994 1084 691 
Q 1341 388 1753 388 
Q 2084 388 2306 591 
Q 2528 794 2588 1216 
z
" transform="scale(0.015625)"/>
       <path id="ArialMT-6f" d="M 213 1659 
Q 213 2581 725 3025 
Q 1153 3394 1769 3394 
Q 2453 3394 2887 2945 
Q 3322 2497 3322 1706 
Q 3322 1066 3130 698 
Q 2938 331 2570 128 
Q 2203 -75 1769 -75 
Q 1072 -75 642 372 
Q 213 819 213 1659 
z
M 791 1659 
Q 791 1022 1069 705 
Q 1347 388 1769 388 
Q 2188 388 2466 706 
Q 2744 1025 2744 1678 
Q 2744 2294 2464 2611 
Q 2184 2928 1769 2928 
Q 1347 2928 1069 2612 
Q 791 2297 791 1659 
z
" transform="scale(0.015625)"/>
       <path id="ArialMT-64" d="M 2575 0 
L 2575 419 
Q 2259 -75 1647 -75 
Q 1250 -75 917 144 
Q 584 363 401 755 
Q 219 1147 219 1656 
Q 219 2153 384 2558 
Q 550 2963 881 3178 
Q 1213 3394 1622 3394 
Q 1922 3394 2156 3267 
Q 2391 3141 2538 2938 
L 2538 4581 
L 3097 4581 
L 3097 0 
L 2575 0 
z
M 797 1656 
Q 797 1019 1065 703 
Q 1334 388 1700 388 
Q 2069 388 2326 689 
Q 2584 991 2584 1609 
Q 2584 2291 2321 2609 
Q 2059 2928 1675 2928 
Q 1300 2928 1048 2622 
Q 797 2316 797 1656 
z
" transform="scale(0.015625)"/>
      </defs>
      <use xlink:href="#ArialMT-43"/>
      <use xlink:href="#ArialMT-50" x="72.216797"/>
      <use xlink:href="#ArialMT-55" x="138.916016"/>
      <use xlink:href="#ArialMT-20" x="211.132812"/>
      <use xlink:href="#ArialMT-74" x="238.916016"/>
      <use xlink:href="#ArialMT-69" x="266.699219"/>
      <use xlink:href="#ArialMT-6d" x="288.916016"/>
      <use xlink:href="#ArialMT-65" x="372.216797"/>
      <use xlink:href="#ArialMT-20" x="427.832031"/>
      <use xlink:href="#ArialMT-69" x="455.615234"/>
      <use xlink:href="#ArialMT-6e" x="477.832031"/>
      <use xlink:href="#ArialMT-20" x="533.447266"/>
      <use xlink:href="#ArialMT-73" x="561.230469"/>
      <use xlink:href="#ArialMT-65" x="611.230469"/>
      <use xlink:href="#ArialMT-63" x="666.845703"/>
      <use xlink:href="#ArialMT-6f" x="716.845703"/>
      <use xlink:href="#ArialMT-6e" x="772.460938"/>
      <use xlink:href="#ArialMT-64" x="828.076172"/>
      <use xlink:href="#ArialMT-73" x="883.691406"/>
     </g>
    </g>
   </g>
   <g id="matplotlib.axis_2">
    <g id="ytick_1">
     <g id="line2d_10">
      <defs>
       <path id="med1a1d5425" d="M 0 0 
L -3.5 0 
" style="stroke: #262626; stroke-width: 0.8"/>
      </defs>
      <g>
       <use xlink:href="#med1a1d5425" x="57.6" y="307.584" style="fill: #262626; stroke: #262626; stroke-width: 0.8"/>
      </g>
     </g>
     <g id="text_11">
      <!-- $\mathdefault{10^{-5}}$ -->
      <g style="fill: #262626" transform="translate(30.8 312.69025) scale(0.1 -0.1)">
       <defs>
        <path id="ArialMT-2212" d="M 3381 1997 
L 356 1997 
L 356 2522 
L 3381 2522 
L 3381 1997 
z
" transform="scale(0.015625)"/>
       </defs>
       <use xlink:href="#ArialMT-31" transform="translate(0 0.879688)"/>
       <use xlink:href="#ArialMT-30" transform="translate(55.615234 0.879688)"/>
       <use xlink:href="#ArialMT-2212" transform="translate(112.972813 70.573438) scale(0.7)"/>
       <use xlink:href="#ArialMT-35" transform="translate(153.851719 70.573438) scale(0.7)"/>
      </g>
     </g>
    </g>
    <g id="ytick_2">
     <g id="line2d_11">
      <g>
       <use xlink:href="#med1a1d5425" x="57.6" y="254.3616" style="fill: #262626; stroke: #262626; stroke-width: 0.8"/>
      </g>
     </g>
     <g id="text_12">
      <!-- $\mathdefault{10^{-4}}$ -->
      <g style="fill: #262626" transform="translate(30.8 259.46785) scale(0.1 -0.1)">
       <defs>
        <path id="ArialMT-34" d="M 2069 0 
L 2069 1097 
L 81 1097 
L 81 1613 
L 2172 4581 
L 2631 4581 
L 2631 1613 
L 3250 1613 
L 3250 1097 
L 2631 1097 
L 2631 0 
L 2069 0 
z
M 2069 1613 
L 2069 3678 
L 634 1613 
L 2069 1613 
z
" transform="scale(0.015625)"/>
       </defs>
       <use xlink:href="#ArialMT-31" transform="translate(0 0.201563)"/>
       <use xlink:href="#ArialMT-30" transform="translate(55.615234 0.201563)"/>
       <use xlink:href="#ArialMT-2212" transform="translate(112.972813 69.895313) scale(0.7)"/>
       <use xlink:href="#ArialMT-34" transform="translate(153.851719 69.895313) scale(0.7)"/>
      </g>
     </g>
    </g>
    <g id="ytick_3">
     <g id="line2d_12">
      <g>
       <use xlink:href="#med1a1d5425" x="57.6" y="201.1392" style="fill: #262626; stroke: #262626; stroke-width: 0.8"/>
      </g>
     </g>
     <g id="text_13">
      <!-- $\mathdefault{10^{-3}}$ -->
      <g style="fill: #262626" transform="translate(30.8 206.29545) scale(0.1 -0.1)">
       <defs>
        <path id="ArialMT-33" d="M 269 1209 
L 831 1284 
Q 928 806 1161 595 
Q 1394 384 1728 384 
Q 2125 384 2398 659 
Q 2672 934 2672 1341 
Q 2672 1728 2419 1979 
Q 2166 2231 1775 2231 
Q 1616 2231 1378 2169 
L 1441 2663 
Q 1497 2656 1531 2656 
Q 1891 2656 2178 2843 
Q 2466 3031 2466 3422 
Q 2466 3731 2256 3934 
Q 2047 4138 1716 4138 
Q 1388 4138 1169 3931 
Q 950 3725 888 3313 
L 325 3413 
Q 428 3978 793 4289 
Q 1159 4600 1703 4600 
Q 2078 4600 2393 4439 
Q 2709 4278 2876 4000 
Q 3044 3722 3044 3409 
Q 3044 3113 2884 2869 
Q 2725 2625 2413 2481 
Q 2819 2388 3044 2092 
Q 3269 1797 3269 1353 
Q 3269 753 2831 336 
Q 2394 -81 1725 -81 
Q 1122 -81 723 278 
Q 325 638 269 1209 
z
" transform="scale(0.015625)"/>
       </defs>
       <use xlink:href="#ArialMT-31" transform="translate(0 0.99375)"/>
       <use xlink:href="#ArialMT-30" transform="translate(55.615234 0.99375)"/>
       <use xlink:href="#ArialMT-2212" transform="translate(112.972813 70.6875) scale(0.7)"/>
       <use xlink:href="#ArialMT-33" transform="translate(153.851719 70.6875) scale(0.7)"/>
      </g>
     </g>
    </g>
    <g id="ytick_4">
     <g id="line2d_13">
      <g>
       <use xlink:href="#med1a1d5425" x="57.6" y="147.9168" style="fill: #262626; stroke: #262626; stroke-width: 0.8"/>
      </g>
     </g>
     <g id="text_14">
      <!-- $\mathdefault{10^{-2}}$ -->
      <g style="fill: #262626" transform="translate(30.8 153.07305) scale(0.1 -0.1)">
       <use xlink:href="#ArialMT-31" transform="translate(0 0.99375)"/>
       <use xlink:href="#ArialMT-30" transform="translate(55.615234 0.99375)"/>
       <use xlink:href="#ArialMT-2212" transform="translate(112.972813 70.6875) scale(0.7)"/>
       <use xlink:href="#ArialMT-32" transform="translate(153.851719 70.6875) scale(0.7)"/>
      </g>
     </g>
    </g>
    <g id="ytick_5">
     <g id="line2d_14">
      <g>
       <use xlink:href="#med1a1d5425" x="57.6" y="94.6944" style="fill: #262626; stroke: #262626; stroke-width: 0.8"/>
      </g>
     </g>
     <g id="text_15">
      <!-- $\mathdefault{10^{-1}}$ -->
      <g style="fill: #262626" transform="translate(30.8 99.85065) scale(0.1 -0.1)">
       <use xlink:href="#ArialMT-31" transform="translate(0 0.99375)"/>
       <use xlink:href="#ArialMT-30" transform="translate(55.615234 0.99375)"/>
       <use xlink:href="#ArialMT-2212" transform="translate(112.972813 70.6875) scale(0.7)"/>
       <use xlink:href="#ArialMT-31" transform="translate(153.851719 70.6875) scale(0.7)"/>
      </g>
     </g>
    </g>
    <g id="ytick_6">
     <g id="line2d_15">
      <g>
       <use xlink:href="#med1a1d5425" x="57.6" y="41.472" style="fill: #262626; stroke: #262626; stroke-width: 0.8"/>
      </g>
     </g>
     <g id="text_16">
      <!-- $\mathdefault{10^{0}}$ -->
      <g style="fill: #262626" transform="translate(34.9 46.62825) scale(0.1 -0.1)">
       <use xlink:href="#ArialMT-31" transform="translate(0 0.99375)"/>
       <use xlink:href="#ArialMT-30" transform="translate(55.615234 0.99375)"/>
       <use xlink:href="#ArialMT-30" transform="translate(112.972813 70.6875) scale(0.7)"/>
      </g>
     </g>
    </g>
    <g id="ytick_7">
     <g id="line2d_16">
      <defs>
       <path id="m54c0456e03" d="M 0 0 
L -2 0 
" style="stroke: #262626; stroke-width: 0.6"/>
      </defs>
      <g>
       <use xlink:href="#m54c0456e03" x="57.6" y="291.562461" style="fill: #262626; stroke: #262626; stroke-width: 0.6"/>
      </g>
     </g>
    </g>
    <g id="ytick_8">
     <g id="line2d_17">
      <g>
       <use xlink:href="#m54c0456e03" x="57.6" y="282.190462" style="fill: #262626; stroke: #262626; stroke-width: 0.6"/>
      </g>
     </g>
    </g>
    <g id="ytick_9">
     <g id="line2d_18">
      <g>
       <use xlink:href="#m54c0456e03" x="57.6" y="275.540922" style="fill: #262626; stroke: #262626; stroke-width: 0.6"/>
      </g>
     </g>
    </g>
    <g id="ytick_10">
     <g id="line2d_19">
      <g>
       <use xlink:href="#m54c0456e03" x="57.6" y="270.383139" style="fill: #262626; stroke: #262626; stroke-width: 0.6"/>
      </g>
     </g>
    </g>
    <g id="ytick_11">
     <g id="line2d_20">
      <g>
       <use xlink:href="#m54c0456e03" x="57.6" y="266.168923" style="fill: #262626; stroke: #262626; stroke-width: 0.6"/>
      </g>
     </g>
    </g>
    <g id="ytick_12">
     <g id="line2d_21">
      <g>
       <use xlink:href="#m54c0456e03" x="57.6" y="262.605854" style="fill: #262626; stroke: #262626; stroke-width: 0.6"/>
      </g>
     </g>
    </g>
    <g id="ytick_13">
     <g id="line2d_22">
      <g>
       <use xlink:href="#m54c0456e03" x="57.6" y="259.519383" style="fill: #262626; stroke: #262626; stroke-width: 0.6"/>
      </g>
     </g>
    </g>
    <g id="ytick_14">
     <g id="line2d_23">
      <g>
       <use xlink:href="#m54c0456e03" x="57.6" y="256.796923" style="fill: #262626; stroke: #262626; stroke-width: 0.6"/>
      </g>
     </g>
    </g>
    <g id="ytick_15">
     <g id="line2d_24">
      <g>
       <use xlink:href="#m54c0456e03" x="57.6" y="238.340061" style="fill: #262626; stroke: #262626; stroke-width: 0.6"/>
      </g>
     </g>
    </g>
    <g id="ytick_16">
     <g id="line2d_25">
      <g>
       <use xlink:href="#m54c0456e03" x="57.6" y="228.968062" style="fill: #262626; stroke: #262626; stroke-width: 0.6"/>
      </g>
     </g>
    </g>
    <g id="ytick_17">
     <g id="line2d_26">
      <g>
       <use xlink:href="#m54c0456e03" x="57.6" y="222.318522" style="fill: #262626; stroke: #262626; stroke-width: 0.6"/>
      </g>
     </g>
    </g>
    <g id="ytick_18">
     <g id="line2d_27">
      <g>
       <use xlink:href="#m54c0456e03" x="57.6" y="217.160739" style="fill: #262626; stroke: #262626; stroke-width: 0.6"/>
      </g>
     </g>
    </g>
    <g id="ytick_19">
     <g id="line2d_28">
      <g>
       <use xlink:href="#m54c0456e03" x="57.6" y="212.946523" style="fill: #262626; stroke: #262626; stroke-width: 0.6"/>
      </g>
     </g>
    </g>
    <g id="ytick_20">
     <g id="line2d_29">
      <g>
       <use xlink:href="#m54c0456e03" x="57.6" y="209.383454" style="fill: #262626; stroke: #262626; stroke-width: 0.6"/>
      </g>
     </g>
    </g>
    <g id="ytick_21">
     <g id="line2d_30">
      <g>
       <use xlink:href="#m54c0456e03" x="57.6" y="206.296983" style="fill: #262626; stroke: #262626; stroke-width: 0.6"/>
      </g>
     </g>
    </g>
    <g id="ytick_22">
     <g id="line2d_31">
      <g>
       <use xlink:href="#m54c0456e03" x="57.6" y="203.574523" style="fill: #262626; stroke: #262626; stroke-width: 0.6"/>
      </g>
     </g>
    </g>
    <g id="ytick_23">
     <g id="line2d_32">
      <g>
       <use xlink:href="#m54c0456e03" x="57.6" y="185.117661" style="fill: #262626; stroke: #262626; stroke-width: 0.6"/>
      </g>
     </g>
    </g>
    <g id="ytick_24">
     <g id="line2d_33">
      <g>
       <use xlink:href="#m54c0456e03" x="57.6" y="175.745662" style="fill: #262626; stroke: #262626; stroke-width: 0.6"/>
      </g>
     </g>
    </g>
    <g id="ytick_25">
     <g id="line2d_34">
      <g>
       <use xlink:href="#m54c0456e03" x="57.6" y="169.096122" style="fill: #262626; stroke: #262626; stroke-width: 0.6"/>
      </g>
     </g>
    </g>
    <g id="ytick_26">
     <g id="line2d_35">
      <g>
       <use xlink:href="#m54c0456e03" x="57.6" y="163.938339" style="fill: #262626; stroke: #262626; stroke-width: 0.6"/>
      </g>
     </g>
    </g>
    <g id="ytick_27">
     <g id="line2d_36">
      <g>
       <use xlink:href="#m54c0456e03" x="57.6" y="159.724123" style="fill: #262626; stroke: #262626; stroke-width: 0.6"/>
      </g>
     </g>
    </g>
    <g id="ytick_28">
     <g id="line2d_37">
      <g>
       <use xlink:href="#m54c0456e03" x="57.6" y="156.161054" style="fill: #262626; stroke: #262626; stroke-width: 0.6"/>
      </g>
     </g>
    </g>
    <g id="ytick_29">
     <g id="line2d_38">
      <g>
       <use xlink:href="#m54c0456e03" x="57.6" y="153.074583" style="fill: #262626; stroke: #262626; stroke-width: 0.6"/>
      </g>
     </g>
    </g>
    <g id="ytick_30">
     <g id="line2d_39">
      <g>
       <use xlink:href="#m54c0456e03" x="57.6" y="150.352123" style="fill: #262626; stroke: #262626; stroke-width: 0.6"/>
      </g>
     </g>
    </g>
    <g id="ytick_31">
     <g id="line2d_40">
      <g>
       <use xlink:href="#m54c0456e03" x="57.6" y="131.895261" style="fill: #262626; stroke: #262626; stroke-width: 0.6"/>
      </g>
     </g>
    </g>
    <g id="ytick_32">
     <g id="line2d_41">
      <g>
       <use xlink:href="#m54c0456e03" x="57.6" y="122.523262" style="fill: #262626; stroke: #262626; stroke-width: 0.6"/>
      </g>
     </g>
    </g>
    <g id="ytick_33">
     <g id="line2d_42">
      <g>
       <use xlink:href="#m54c0456e03" x="57.6" y="115.873722" style="fill: #262626; stroke: #262626; stroke-width: 0.6"/>
      </g>
     </g>
    </g>
    <g id="ytick_34">
     <g id="line2d_43">
      <g>
       <use xlink:href="#m54c0456e03" x="57.6" y="110.715939" style="fill: #262626; stroke: #262626; stroke-width: 0.6"/>
      </g>
     </g>
    </g>
    <g id="ytick_35">
     <g id="line2d_44">
      <g>
       <use xlink:href="#m54c0456e03" x="57.6" y="106.501723" style="fill: #262626; stroke: #262626; stroke-width: 0.6"/>
      </g>
     </g>
    </g>
    <g id="ytick_36">
     <g id="line2d_45">
      <g>
       <use xlink:href="#m54c0456e03" x="57.6" y="102.938654" style="fill: #262626; stroke: #262626; stroke-width: 0.6"/>
      </g>
     </g>
    </g>
    <g id="ytick_37">
     <g id="line2d_46">
      <g>
       <use xlink:href="#m54c0456e03" x="57.6" y="99.852183" style="fill: #262626; stroke: #262626; stroke-width: 0.6"/>
      </g>
     </g>
    </g>
    <g id="ytick_38">
     <g id="line2d_47">
      <g>
       <use xlink:href="#m54c0456e03" x="57.6" y="97.129723" style="fill: #262626; stroke: #262626; stroke-width: 0.6"/>
      </g>
     </g>
    </g>
    <g id="ytick_39">
     <g id="line2d_48">
      <g>
       <use xlink:href="#m54c0456e03" x="57.6" y="78.672861" style="fill: #262626; stroke: #262626; stroke-width: 0.6"/>
      </g>
     </g>
    </g>
    <g id="ytick_40">
     <g id="line2d_49">
      <g>
       <use xlink:href="#m54c0456e03" x="57.6" y="69.300862" style="fill: #262626; stroke: #262626; stroke-width: 0.6"/>
      </g>
     </g>
    </g>
    <g id="ytick_41">
     <g id="line2d_50">
      <g>
       <use xlink:href="#m54c0456e03" x="57.6" y="62.651322" style="fill: #262626; stroke: #262626; stroke-width: 0.6"/>
      </g>
     </g>
    </g>
    <g id="ytick_42">
     <g id="line2d_51">
      <g>
       <use xlink:href="#m54c0456e03" x="57.6" y="57.493539" style="fill: #262626; stroke: #262626; stroke-width: 0.6"/>
      </g>
     </g>
    </g>
    <g id="ytick_43">
     <g id="line2d_52">
      <g>
       <use xlink:href="#m54c0456e03" x="57.6" y="53.279323" style="fill: #262626; stroke: #262626; stroke-width: 0.6"/>
      </g>
     </g>
    </g>
    <g id="ytick_44">
     <g id="line2d_53">
      <g>
       <use xlink:href="#m54c0456e03" x="57.6" y="49.716254" style="fill: #262626; stroke: #262626; stroke-width: 0.6"/>
      </g>
     </g>
    </g>
    <g id="ytick_45">
     <g id="line2d_54">
      <g>
       <use xlink:href="#m54c0456e03" x="57.6" y="46.629783" style="fill: #262626; stroke: #262626; stroke-width: 0.6"/>
      </g>
     </g>
    </g>
    <g id="ytick_46">
     <g id="line2d_55">
      <g>
       <use xlink:href="#m54c0456e03" x="57.6" y="43.907323" style="fill: #262626; stroke: #262626; stroke-width: 0.6"/>
      </g>
     </g>
    </g>
    <g id="text_17">
     <!-- Relative Gap -->
     <g style="fill: #262626" transform="translate(24.8125 203.430344) rotate(-90) scale(0.1 -0.1)">
      <defs>
       <path id="ArialMT-52" d="M 503 0 
L 503 4581 
L 2534 4581 
Q 3147 4581 3465 4457 
Q 3784 4334 3975 4021 
Q 4166 3709 4166 3331 
Q 4166 2844 3850 2509 
Q 3534 2175 2875 2084 
Q 3116 1969 3241 1856 
Q 3506 1613 3744 1247 
L 4541 0 
L 3778 0 
L 3172 953 
Q 2906 1366 2734 1584 
Q 2563 1803 2427 1890 
Q 2291 1978 2150 2013 
Q 2047 2034 1813 2034 
L 1109 2034 
L 1109 0 
L 503 0 
z
M 1109 2559 
L 2413 2559 
Q 2828 2559 3062 2645 
Q 3297 2731 3419 2920 
Q 3541 3109 3541 3331 
Q 3541 3656 3305 3865 
Q 3069 4075 2559 4075 
L 1109 4075 
L 1109 2559 
z
" transform="scale(0.015625)"/>
       <path id="ArialMT-6c" d="M 409 0 
L 409 4581 
L 972 4581 
L 972 0 
L 409 0 
z
" transform="scale(0.015625)"/>
       <path id="ArialMT-61" d="M 2588 409 
Q 2275 144 1986 34 
Q 1697 -75 1366 -75 
Q 819 -75 525 192 
Q 231 459 231 875 
Q 231 1119 342 1320 
Q 453 1522 633 1644 
Q 813 1766 1038 1828 
Q 1203 1872 1538 1913 
Q 2219 1994 2541 2106 
Q 2544 2222 2544 2253 
Q 2544 2597 2384 2738 
Q 2169 2928 1744 2928 
Q 1347 2928 1158 2789 
Q 969 2650 878 2297 
L 328 2372 
Q 403 2725 575 2942 
Q 747 3159 1072 3276 
Q 1397 3394 1825 3394 
Q 2250 3394 2515 3294 
Q 2781 3194 2906 3042 
Q 3031 2891 3081 2659 
Q 3109 2516 3109 2141 
L 3109 1391 
Q 3109 606 3145 398 
Q 3181 191 3288 0 
L 2700 0 
Q 2613 175 2588 409 
z
M 2541 1666 
Q 2234 1541 1622 1453 
Q 1275 1403 1131 1340 
Q 988 1278 909 1158 
Q 831 1038 831 891 
Q 831 666 1001 516 
Q 1172 366 1500 366 
Q 1825 366 2078 508 
Q 2331 650 2450 897 
Q 2541 1088 2541 1459 
L 2541 1666 
z
" transform="scale(0.015625)"/>
       <path id="ArialMT-76" d="M 1344 0 
L 81 3319 
L 675 3319 
L 1388 1331 
Q 1503 1009 1600 663 
Q 1675 925 1809 1294 
L 2547 3319 
L 3125 3319 
L 1869 0 
L 1344 0 
z
" transform="scale(0.015625)"/>
       <path id="ArialMT-47" d="M 2638 1797 
L 2638 2334 
L 4578 2338 
L 4578 638 
Q 4131 281 3656 101 
Q 3181 -78 2681 -78 
Q 2006 -78 1454 211 
Q 903 500 622 1047 
Q 341 1594 341 2269 
Q 341 2938 620 3517 
Q 900 4097 1425 4378 
Q 1950 4659 2634 4659 
Q 3131 4659 3532 4498 
Q 3934 4338 4162 4050 
Q 4391 3763 4509 3300 
L 3963 3150 
Q 3859 3500 3706 3700 
Q 3553 3900 3268 4020 
Q 2984 4141 2638 4141 
Q 2222 4141 1919 4014 
Q 1616 3888 1430 3681 
Q 1244 3475 1141 3228 
Q 966 2803 966 2306 
Q 966 1694 1177 1281 
Q 1388 869 1791 669 
Q 2194 469 2647 469 
Q 3041 469 3416 620 
Q 3791 772 3984 944 
L 3984 1797 
L 2638 1797 
z
" transform="scale(0.015625)"/>
       <path id="ArialMT-70" d="M 422 -1272 
L 422 3319 
L 934 3319 
L 934 2888 
Q 1116 3141 1344 3267 
Q 1572 3394 1897 3394 
Q 2322 3394 2647 3175 
Q 2972 2956 3137 2557 
Q 3303 2159 3303 1684 
Q 3303 1175 3120 767 
Q 2938 359 2589 142 
Q 2241 -75 1856 -75 
Q 1575 -75 1351 44 
Q 1128 163 984 344 
L 984 -1272 
L 422 -1272 
z
M 931 1641 
Q 931 1000 1190 694 
Q 1450 388 1819 388 
Q 2194 388 2461 705 
Q 2728 1022 2728 1688 
Q 2728 2322 2467 2637 
Q 2206 2953 1844 2953 
Q 1484 2953 1207 2617 
Q 931 2281 931 1641 
z
" transform="scale(0.015625)"/>
      </defs>
      <use xlink:href="#ArialMT-52"/>
      <use xlink:href="#ArialMT-65" x="72.216797"/>
      <use xlink:href="#ArialMT-6c" x="127.832031"/>
      <use xlink:href="#ArialMT-61" x="150.048828"/>
      <use xlink:href="#ArialMT-74" x="205.664062"/>
      <use xlink:href="#ArialMT-69" x="233.447266"/>
      <use xlink:href="#ArialMT-76" x="255.664062"/>
      <use xlink:href="#ArialMT-65" x="305.664062"/>
      <use xlink:href="#ArialMT-20" x="361.279297"/>
      <use xlink:href="#ArialMT-47" x="389.0625"/>
      <use xlink:href="#ArialMT-61" x="466.845703"/>
      <use xlink:href="#ArialMT-70" x="522.460938"/>
     </g>
    </g>
   </g>
   <g id="line2d_56">
    <path d="M 73.832727 27.068978 
L 74.279801 58.235163 
L 75.173932 96.976115 
L 75.621029 87.609368 
L 76.084657 103.978334 
L 76.548131 90.352191 
L 77.028336 111.372458 
L 77.491943 101.937602 
L 77.988864 111.289159 
L 78.435918 112.593992 
L 78.882857 116.502187 
L 79.329935 122.526383 
L 79.777005 124.505986 
L 80.224074 125.24039 
L 80.687717 134.915564 
L 81.151349 134.580397 
L 81.59843 136.027684 
L 82.045496 136.591645 
L 82.492578 147.169944 
L 82.939655 137.916143 
L 83.386721 147.344544 
L 83.850356 149.606206 
L 84.313988 146.408838 
L 84.761215 147.32937 
L 85.224854 150.071659 
L 85.671924 154.35094 
L 86.118994 149.325555 
L 86.566063 155.606151 
L 87.013137 145.610124 
L 87.493334 158.648642 
L 87.956965 156.317649 
L 88.420581 157.803696 
L 88.867497 165.781418 
L 89.31474 171.087234 
L 89.778371 159.102885 
L 90.242007 161.694783 
L 90.705626 165.91376 
L 91.152708 164.812052 
L 91.616347 164.656626 
L 92.079983 162.020504 
L 92.527052 163.616504 
L 92.99068 170.632555 
L 93.437761 166.44963 
L 94.778974 177.377831 
L 95.22604 169.131749 
L 95.673109 167.96077 
L 96.120191 185.453553 
L 96.567268 171.168695 
L 97.014334 165.301675 
L 97.461408 179.988794 
L 97.908643 174.47348 
L 98.355697 177.262152 
L 98.819182 173.35342 
L 99.266252 179.232269 
L 99.713337 176.922875 
L 100.160411 172.137335 
L 100.607473 174.919332 
L 101.054562 183.046833 
L 101.501774 181.354602 
L 101.948839 178.957067 
L 102.395917 173.861587 
L 102.859525 187.495183 
L 103.32316 188.120478 
L 104.2837 173.739475 
L 104.730608 193.690809 
L 105.641309 180.159927 
L 106.088383 183.929395 
L 106.535456 181.046603 
L 106.965976 190.348586 
L 107.413054 182.619252 
L 107.860139 185.599706 
L 108.307355 179.502632 
L 108.770994 184.820527 
L 109.218225 188.484789 
L 109.665153 185.291395 
L 110.575846 190.94793 
L 111.02292 187.351504 
L 111.469989 185.317392 
L 111.917067 190.240396 
L 112.364136 188.172456 
L 112.794652 192.878912 
L 113.225156 191.259384 
L 113.672238 188.232397 
L 114.119311 186.498985 
L 114.566369 198.891986 
L 115.013446 187.376608 
L 115.460524 184.310574 
L 115.907594 184.392716 
L 116.354671 197.702208 
L 116.801753 188.410141 
L 117.248838 189.18816 
L 117.6959 199.6851 
L 118.142965 187.090798 
L 118.590051 194.575875 
L 119.03712 198.647541 
L 119.484206 191.390982 
L 119.931272 187.658475 
L 120.394911 193.529098 
L 120.841973 190.445519 
L 121.272484 198.785611 
L 121.703008 192.567017 
L 122.150074 196.163225 
L 122.613867 205.505237 
L 123.077502 197.560409 
L 123.541134 193.417887 
L 124.004603 200.881339 
L 124.468239 196.353795 
L 124.915312 193.344371 
L 125.362386 193.24516 
L 125.792898 191.557027 
L 126.670499 198.152299 
L 127.117565 192.973562 
L 127.548061 198.643358 
L 127.995138 197.188822 
L 128.442212 198.799656 
L 128.889293 202.065317 
L 129.336359 196.695293 
L 129.882791 198.384271 
L 130.329865 196.095819 
L 130.793504 211.76899 
L 131.224004 194.525033 
L 131.654532 199.105445 
L 132.101605 208.564907 
L 132.532117 198.43056 
L 132.979187 194.147595 
L 133.426264 203.980564 
L 133.873342 203.912203 
L 134.303865 198.239371 
L 134.750931 208.98553 
L 135.198001 196.153388 
L 135.628509 195.448607 
L 136.075598 197.760382 
L 136.522656 206.261256 
L 136.969725 202.377577 
L 137.416815 203.99401 
L 137.863881 204.144509 
L 138.310958 205.051863 
L 138.758036 197.651811 
L 139.205101 196.420617 
L 139.668741 204.258446 
L 140.13253 207.220317 
L 140.596003 196.22171 
L 141.043081 198.677503 
L 141.490147 202.629441 
L 141.937216 203.86465 
L 142.384302 202.484603 
L 142.831363 203.823205 
L 143.278441 206.93051 
L 143.742084 204.4172 
L 144.189308 210.722691 
L 145.083443 198.298436 
L 145.547078 201.807782 
L 146.010722 213.947628 
L 146.474357 204.715961 
L 146.921427 200.232031 
L 147.368512 211.332589 
L 147.832136 202.895087 
L 148.295779 199.682005 
L 148.742707 209.864247 
L 149.189764 205.490408 
L 149.636846 212.834779 
L 150.067369 210.621908 
L 150.497873 202.133134 
L 150.944947 200.154006 
L 151.39202 219.705679 
L 151.839102 206.805269 
L 152.269614 204.642842 
L 152.716691 214.345341 
L 153.163773 200.340444 
L 153.61085 202.918812 
L 154.057924 207.95112 
L 154.504986 205.683129 
L 154.952063 211.1529 
L 155.399141 206.325376 
L 155.84621 211.799409 
L 156.29328 206.377517 
L 156.740361 205.549351 
L 157.187447 200.351046 
L 157.634516 212.880851 
L 158.065024 206.961563 
L 158.512106 209.565883 
L 158.959171 207.163067 
L 159.422799 206.665145 
L 159.869869 216.747944 
L 160.316942 203.985845 
L 160.764 211.489389 
L 161.211093 214.407463 
L 161.674721 214.082683 
L 162.121798 210.526865 
L 162.56873 204.063689 
L 163.429757 215.949133 
L 163.876827 203.484674 
L 164.307351 203.481072 
L 164.754424 212.024816 
L 165.184936 210.995268 
L 165.632014 212.120786 
L 166.079083 212.519246 
L 166.526161 210.918723 
L 166.973234 216.253173 
L 167.83427 209.678555 
L 168.264793 213.607525 
L 168.711859 212.695079 
L 169.158944 212.915956 
L 169.60601 213.61313 
L 170.036522 212.551907 
L 170.483607 213.018782 
L 170.930669 208.980018 
L 171.394466 218.924815 
L 171.841524 204.691841 
L 172.288586 215.183546 
L 172.73549 210.506209 
L 173.182571 213.905005 
L 173.629645 214.906639 
L 174.076718 215.140524 
L 174.523796 218.524396 
L 174.970862 211.929266 
L 175.401366 215.736953 
L 175.864997 209.023664 
L 176.312067 218.900838 
L 176.75914 207.291393 
L 177.206214 213.368814 
L 177.653299 221.777366 
L 178.100385 209.529149 
L 178.547442 209.663527 
L 178.994524 215.714791 
L 179.441605 219.962298 
L 179.872121 214.691425 
L 180.335914 213.12863 
L 180.799411 213.595507 
L 181.246619 216.587347 
L 181.710251 210.584951 
L 182.157312 215.656047 
L 182.604386 211.351317 
L 183.068021 214.434945 
L 183.515083 214.397203 
L 183.978726 217.793526 
L 184.442358 211.589733 
L 184.905831 218.961007 
L 185.353051 219.340878 
L 185.800128 218.73931 
L 186.247202 213.495105 
L 186.710837 221.60158 
L 187.174307 214.707651 
L 187.621554 215.459979 
L 188.068632 219.09148 
L 188.532251 207.660812 
L 188.979167 228.024739 
L 189.409679 223.61336 
L 189.85676 210.710611 
L 190.303838 220.403878 
L 190.767319 213.668836 
L 191.214397 219.021501 
L 191.661471 212.271076 
L 192.108544 226.298239 
L 192.555626 212.003092 
L 192.986141 211.635976 
L 193.433199 224.254456 
L 193.863715 227.975423 
L 194.294227 217.102986 
L 194.741292 216.710955 
L 195.18837 217.253203 
L 195.635444 209.983999 
L 196.082517 218.426092 
L 196.529591 217.988432 
L 196.976668 218.196821 
L 197.40718 221.154325 
L 197.854258 221.939756 
L 198.284769 215.561824 
L 198.731847 216.23713 
L 199.162351 219.047186 
L 199.592867 214.244849 
L 200.02339 213.477049 
L 200.470448 223.060459 
L 200.917529 226.083163 
L 201.364599 217.020896 
L 201.811677 222.624697 
L 202.258742 217.430266 
L 202.70582 215.186796 
L 203.152897 227.813482 
L 203.599971 216.724387 
L 204.030483 223.482429 
L 204.460998 213.335859 
L 204.908072 226.143014 
L 205.355153 225.341894 
L 205.802223 217.789109 
L 206.249293 222.05093 
L 206.746202 215.719171 
L 207.690026 220.818758 
L 208.153662 221.912976 
L 208.617293 226.708887 
L 209.064363 221.550328 
L 209.511448 218.836536 
L 209.958533 222.376022 
L 210.405619 217.520265 
L 210.869242 219.349518 
L 211.332909 215.766334 
L 211.796513 216.000244 
L 212.260149 217.402134 
L 212.723622 227.945259 
L 213.170708 229.254672 
L 213.601212 221.647121 
L 214.048289 222.271123 
L 214.49552 216.40722 
L 214.942582 223.131117 
L 215.406225 225.503556 
L 215.853137 220.125233 
L 216.300227 231.170603 
L 217.161227 217.191727 
L 217.6083 219.400851 
L 218.038816 226.214176 
L 218.469336 215.456989 
L 218.916409 226.015787 
L 219.363491 223.717321 
L 219.794002 220.093579 
L 220.241088 214.959902 
L 220.688154 218.884714 
L 221.135227 216.054444 
L 221.582297 225.221478 
L 222.029374 223.987382 
L 222.476444 224.466763 
L 222.923525 219.922571 
L 223.817811 227.731928 
L 224.281458 220.352817 
L 224.728374 219.121777 
L 225.175459 232.203595 
L 225.622525 229.628501 
L 226.06961 217.998679 
L 226.500126 224.159452 
L 226.930638 232.789815 
L 227.394431 222.240279 
L 227.841504 225.925952 
L 228.304978 216.702258 
L 229.182575 224.622793 
L 229.629649 215.700798 
L 230.076718 221.321816 
L 230.523788 231.237271 
L 230.97087 231.293182 
L 231.417943 224.203525 
L 231.865009 224.623339 
L 232.312075 229.166967 
L 232.742586 223.883319 
L 233.18966 226.887316 
L 233.620184 217.6945 
L 234.06723 224.270386 
L 234.497749 228.502996 
L 234.97795 226.371164 
L 235.425012 228.100747 
L 236.319159 222.33385 
L 236.766237 220.18261 
L 237.213306 227.650621 
L 237.660384 228.145563 
L 238.090911 219.161094 
L 238.521431 228.861029 
L 238.968509 230.061226 
L 239.862652 223.976119 
L 240.293164 232.183893 
L 240.740237 226.491136 
L 241.187311 217.256883 
L 241.634388 223.206653 
L 242.08147 225.4251 
L 242.51199 225.236274 
L 242.959071 230.450768 
L 243.406133 226.567326 
L 243.85321 229.619364 
L 244.300284 221.789184 
L 244.730804 234.867796 
L 245.177889 224.807857 
L 245.624951 227.782512 
L 246.072028 228.379225 
L 246.519106 231.638322 
L 246.966179 221.653605 
L 247.429815 225.220108 
L 247.860323 223.815267 
L 248.290838 236.584345 
L 248.721346 222.517477 
L 249.151866 218.501456 
L 249.598947 234.154635 
L 250.046013 230.645516 
L 250.493087 225.680608 
L 250.940164 222.064975 
L 251.387242 226.804548 
L 251.834319 229.993425 
L 252.297955 231.694026 
L 252.745162 226.832143 
L 253.208805 234.674868 
L 253.672303 224.596422 
L 254.135922 225.899628 
L 254.582988 236.960377 
L 255.030062 224.481819 
L 255.46057 231.455756 
L 255.891077 231.383057 
L 256.354713 220.520711 
L 256.801786 223.512006 
L 257.248872 233.133803 
L 257.695933 231.30526 
L 258.143011 224.772826 
L 258.590089 224.710981 
L 259.500797 232.876328 
L 259.931301 222.354786 
L 260.825594 226.947118 
L 261.272684 235.515883 
L 261.715687 232.301078 
L 262.162772 223.197493 
L 262.626254 228.675165 
L 263.073328 226.142781 
L 263.520389 228.719693 
L 263.967463 226.49567 
L 264.431094 227.178306 
L 264.87818 233.906903 
L 265.325245 225.388752 
L 265.755757 235.679905 
L 266.202831 222.473874 
L 266.650046 226.186961 
L 267.11369 238.224477 
L 267.577341 228.572664 
L 268.024395 232.267469 
L 268.471468 231.907993 
L 268.9351 222.372991 
L 269.398731 233.453884 
L 269.86237 234.689118 
L 270.325844 223.699566 
L 270.789471 227.58794 
L 271.253103 226.32707 
L 271.716896 234.764154 
L 272.16382 232.981168 
L 272.610881 227.110891 
L 273.057951 223.802753 
L 273.505175 226.014983 
L 273.952248 235.052179 
L 274.41588 230.838728 
L 274.879527 231.587515 
L 275.343158 226.836701 
L 275.790216 234.303306 
L 276.253859 231.406489 
L 276.700925 226.763122 
L 277.164556 228.434364 
L 277.611634 226.576261 
L 278.058719 225.561488 
L 278.522343 234.151451 
L 278.985978 236.465146 
L 279.449622 233.545249 
L 279.896549 229.765483 
L 280.327061 234.589498 
L 281.204788 223.947553 
L 281.668432 237.831707 
L 282.132055 229.271826 
L 282.578975 230.525259 
L 283.026064 233.434095 
L 283.473134 231.467629 
L 283.920207 233.36673 
L 284.367277 225.16031 
L 284.814351 228.490885 
L 285.26142 240.305482 
L 285.708494 239.144025 
L 286.155571 232.378584 
L 286.602641 229.244136 
L 287.049707 233.579323 
L 287.496796 228.633988 
L 287.943858 229.265113 
L 288.390935 237.159703 
L 288.838013 228.578893 
L 289.28509 228.194725 
L 289.732156 233.840967 
L 290.17923 234.157963 
L 290.626303 239.146239 
L 291.073373 230.15119 
L 291.503889 228.371879 
L 291.934397 235.706407 
L 292.38147 229.853215 
L 292.828548 230.928075 
L 293.275625 232.672968 
L 293.722699 228.290009 
L 294.169768 237.439789 
L 294.616826 232.253633 
L 295.047346 231.48081 
L 295.494423 229.354102 
L 296.388578 237.780866 
L 296.835664 227.05514 
L 297.282994 232.654125 
L 297.746365 233.300208 
L 298.193435 234.370935 
L 298.6405 236.322524 
L 299.08757 229.517969 
L 299.534643 235.781892 
L 299.981717 226.63518 
L 300.428802 231.59201 
L 300.875864 232.42273 
L 301.32295 228.862084 
L 301.770019 233.128683 
L 302.217101 233.680509 
L 302.664166 236.196842 
L 303.11124 232.659352 
L 303.541756 232.482698 
L 303.988814 235.441094 
L 304.419325 231.167085 
L 304.866407 228.770557 
L 305.760554 239.954418 
L 306.207628 229.288072 
L 306.654701 238.729026 
L 307.085229 234.023545 
L 307.515741 235.531285 
L 307.946244 229.30314 
L 308.376744 232.02555 
L 308.823814 239.520943 
L 309.254349 232.122765 
L 309.701427 230.735252 
L 310.165051 229.780526 
L 310.612124 238.647355 
L 311.04264 231.720383 
L 311.47316 240.670721 
L 311.903675 239.426169 
L 312.350741 230.716978 
L 312.797826 236.800923 
L 313.244888 231.52298 
L 313.691977 230.692472 
L 314.139043 236.018599 
L 314.586113 230.065954 
L 315.033194 236.125392 
L 315.480268 232.212895 
L 315.927345 237.745705 
L 316.374411 233.129316 
L 316.821485 232.585498 
L 317.268712 226.418085 
L 317.732355 237.845199 
L 318.179425 232.418569 
L 318.626483 233.167315 
L 319.073556 241.876215 
L 319.52063 233.619988 
L 319.951146 233.599105 
L 320.398215 232.266465 
L 320.845293 232.383471 
L 321.29237 238.980681 
L 321.739444 226.081297 
L 322.186518 233.480443 
L 323.097219 236.743686 
L 323.527738 233.044836 
L 323.991527 231.251643 
L 324.438597 238.591312 
L 324.902083 238.411801 
L 325.34916 233.146051 
L 325.796234 236.321384 
L 326.243307 236.953097 
L 326.7071 232.559206 
L 327.154004 238.977655 
L 327.617805 241.46229 
L 328.064883 239.362074 
L 328.511972 230.200748 
L 329.422677 232.882404 
L 329.886313 241.22208 
L 330.333382 244.333676 
L 330.780302 230.613365 
L 331.24393 241.532165 
L 331.690987 236.212797 
L 332.138061 234.359196 
L 332.585142 236.027462 
L 333.032212 239.858305 
L 333.479282 233.155903 
L 333.926359 234.271586 
L 334.373437 230.375736 
L 334.820506 235.506623 
L 335.267592 245.919358 
L 335.698096 235.655428 
L 336.128604 231.091433 
L 336.575689 235.498499 
L 337.022751 241.027594 
L 337.469828 235.729439 
L 337.91691 239.954635 
L 338.363991 231.742335 
L 338.811069 232.19471 
L 339.258138 254.023078 
L 339.705212 233.768771 
L 340.152278 240.510649 
L 340.599339 234.976005 
L 341.046413 233.285648 
L 341.49366 228.138847 
L 341.940738 233.095892 
L 342.404369 241.622688 
L 342.851427 239.348134 
L 343.298504 241.648116 
L 343.762148 233.331046 
L 344.209221 242.40404 
L 344.672699 235.287239 
L 345.11993 232.695055 
L 345.567008 234.746297 
L 346.014069 238.197575 
L 346.477713 236.847299 
L 346.924782 237.357891 
L 347.371698 236.132168 
L 347.818772 238.705741 
L 348.265845 240.436765 
L 348.712919 232.346419 
L 349.159989 235.031105 
L 349.607058 247.831746 
L 350.054136 236.200888 
L 350.501205 240.509594 
L 350.948283 241.848924 
L 351.395356 231.420244 
L 351.82588 236.378045 
L 352.256396 236.65182 
L 352.686912 235.56521 
L 353.133989 235.650423 
L 353.564489 233.866401 
L 354.011559 240.389848 
L 354.45866 234.359929 
L 354.90571 239.597822 
L 355.352791 235.249278 
L 355.799861 234.678865 
L 356.246942 246.916899 
L 356.694004 238.183704 
L 357.141078 246.155087 
L 357.588155 234.777599 
L 358.035229 236.228605 
L 358.465741 241.215635 
L 358.912822 238.912232 
L 359.359896 239.682598 
L 359.806969 238.996697 
L 360.254051 235.777134 
L 360.701124 234.070461 
L 361.148202 236.977087 
L 361.595264 251.116768 
L 362.042341 236.00937 
L 362.489411 234.808994 
L 362.936488 234.306802 
L 363.383562 241.626552 
L 363.830639 236.066233 
L 364.277709 246.24334 
L 364.708233 239.881163 
L 365.138744 238.298847 
L 366.016318 244.747927 
L 366.927177 232.668787 
L 367.37425 238.590343 
L 367.821324 239.905715 
L 368.284955 234.670835 
L 368.732041 244.592516 
L 369.179106 238.905036 
L 369.626176 241.608211 
L 370.073262 242.434554 
L 370.536893 234.740375 
L 370.983967 236.38582 
L 371.447752 243.17128 
L 371.894672 234.922025 
L 372.341753 238.031492 
L 372.772269 247.567393 
L 373.633288 236.116548 
L 374.0638 239.118498 
L 374.4943 246.14779 
L 374.941378 234.020874 
L 375.371893 238.004509 
L 375.818951 246.566674 
L 376.249475 242.575766 
L 376.696552 232.67373 
L 377.127056 238.395237 
L 377.57413 236.255973 
L 378.021207 239.87459 
L 378.468277 237.200397 
L 378.915351 243.048759 
L 379.362424 244.725029 
L 379.809498 234.586163 
L 380.256567 242.028323 
L 380.703649 239.500617 
L 381.150722 246.240121 
L 381.597788 244.939683 
L 382.491951 238.279299 
L 382.955571 238.618099 
L 383.40264 235.209125 
L 383.849722 238.923753 
L 384.296795 246.701126 
L 384.727307 237.504893 
L 385.190939 245.798764 
L 385.621462 239.127807 
L 386.068528 246.067988 
L 386.515605 233.705073 
L 386.962825 236.493294 
L 387.426468 237.074757 
L 387.890104 237.988602 
L 388.337019 241.440848 
L 388.784089 238.138047 
L 389.247728 245.586888 
L 389.67824 250.230896 
L 390.108756 242.579983 
L 390.555833 238.595268 
L 391.002915 241.090172 
L 391.449973 242.104426 
L 391.89705 236.012575 
L 392.344136 246.183426 
L 392.791213 245.243837 
L 393.668791 240.32389 
L 394.09931 232.13545 
L 394.529838 238.344999 
L 394.976915 247.759091 
L 395.423981 235.014675 
L 395.871055 241.062311 
L 396.318128 245.487041 
L 396.748644 240.282926 
L 397.179156 245.527747 
L 397.609668 236.800608 
L 398.040179 236.6281 
L 398.487273 256.881377 
L 398.487273 256.881377 
" clip-path="url(#pc59365df38)" style="fill: none; stroke: #1f77b4; stroke-width: 1.5; stroke-linecap: round"/>
   </g>
   <g id="patch_3">
    <path d="M 57.6 307.584 
L 57.6 41.472 
" style="fill: none; stroke: #262626; stroke-width: 0.8; stroke-linejoin: miter; stroke-linecap: square"/>
   </g>
   <g id="patch_4">
    <path d="M 414.72 307.584 
L 414.72 41.472 
" style="fill: none; stroke: #262626; stroke-width: 0.8; stroke-linejoin: miter; stroke-linecap: square"/>
   </g>
   <g id="patch_5">
    <path d="M 57.6 307.584 
L 414.72 307.584 
" style="fill: none; stroke: #262626; stroke-width: 0.8; stroke-linejoin: miter; stroke-linecap: square"/>
   </g>
   <g id="patch_6">
    <path d="M 57.6 41.472 
L 414.72 41.472 
" style="fill: none; stroke: #262626; stroke-width: 0.8; stroke-linejoin: miter; stroke-linecap: square"/>
   </g>
   <g id="legend_1">
    <g id="patch_7">
     <path d="M 320.693438 63.739188 
L 407.72 63.739188 
Q 409.72 63.739188 409.72 61.739188 
L 409.72 48.472 
Q 409.72 46.472 407.72 46.472 
L 320.693438 46.472 
Q 318.693438 46.472 318.693438 48.472 
L 318.693438 61.739188 
Q 318.693438 63.739188 320.693438 63.739188 
z
" style="fill: #ffffff; opacity: 0.8; stroke: #cccccc; stroke-linejoin: miter"/>
    </g>
    <g id="line2d_57">
     <path d="M 322.693438 54.251688 
L 332.693438 54.251688 
L 342.693438 54.251688 
" style="fill: none; stroke: #1f77b4; stroke-width: 1.5; stroke-linecap: round"/>
    </g>
    <g id="text_18">
     <!-- RelativeGap -->
     <g style="fill: #262626" transform="translate(350.693438 57.751688) scale(0.1 -0.1)">
      <use xlink:href="#ArialMT-52"/>
      <use xlink:href="#ArialMT-65" x="72.216797"/>
      <use xlink:href="#ArialMT-6c" x="127.832031"/>
      <use xlink:href="#ArialMT-61" x="150.048828"/>
      <use xlink:href="#ArialMT-74" x="205.664062"/>
      <use xlink:href="#ArialMT-69" x="233.447266"/>
      <use xlink:href="#ArialMT-76" x="255.664062"/>
      <use xlink:href="#ArialMT-65" x="305.664062"/>
      <use xlink:href="#ArialMT-47" x="361.279297"/>
      <use xlink:href="#ArialMT-61" x="439.0625"/>
      <use xlink:href="#ArialMT-70" x="494.677734"/>
     </g>
    </g>
   </g>
  </g>
 </g>
 <defs>
  <clipPath id="pc59365df38">
   <rect x="57.6" y="41.472" width="357.12" height="266.112"/>
  </clipPath>
 </defs>
</svg>
