<?xml version="1.0" encoding="utf-8" standalone="no"?>
<!DOCTYPE svg PUBLIC "-//W3C//DTD SVG 1.1//EN"
  "http://www.w3.org/Graphics/SVG/1.1/DTD/svg11.dtd">
<svg xmlns:xlink="http://www.w3.org/1999/xlink" width="460.8pt" height="345.6pt" viewBox="0 0 460.8 345.6" xmlns="http://www.w3.org/2000/svg" version="1.1">
 <metadata>
  <rdf:RDF xmlns:dc="http://purl.org/dc/elements/1.1/" xmlns:cc="http://creativecommons.org/ns#" xmlns:rdf="http://www.w3.org/1999/02/22-rdf-syntax-ns#">
   <cc:Work>
    <dc:type rdf:resource="http://purl.org/dc/dcmitype/StillImage"/>
    <dc:date>2023-08-06T13:37:30.178223</dc:date>
    <dc:format>image/svg+xml</dc:format>
    <dc:creator>
     <cc:Agent>
      <dc:title>Matplotlib v3.7.1, https://matplotlib.org/</dc:title>
     </cc:Agent>
    </dc:creator>
   </cc:Work>
  </rdf:RDF>
 </metadata>
 <defs>
  <style type="text/css">*{stroke-linejoin: round; stroke-linecap: butt}</style>
 </defs>
 <g id="figure_1">
  <g id="patch_1">
   <path d="M 0 345.6 
L 460.8 345.6 
L 460.8 0 
L 0 0 
z
" style="fill: #ffffff"/>
  </g>
  <g id="axes_1">
   <g id="patch_2">
    <path d="M 57.6 307.584 
L 414.72 307.584 
L 414.72 41.472 
L 57.6 41.472 
z
" style="fill: #ffffff"/>
   </g>
   <g id="matplotlib.axis_1">
    <g id="xtick_1">
     <g id="line2d_1">
      <defs>
       <path id="mbf67169466" d="M 0 0 
L 0 6 
" style="stroke: #262626; stroke-width: 1.25"/>
      </defs>
      <g>
       <use xlink:href="#mbf67169466" x="73.367621" y="307.584" style="fill: #262626; stroke: #262626; stroke-width: 1.25"/>
      </g>
     </g>
     <g id="text_1">
      <!-- 0.0 -->
      <g style="fill: #262626" transform="translate(65.722621 324.957594) scale(0.11 -0.11)">
       <defs>
        <path id="ArialMT-30" d="M 266 2259 
Q 266 3072 433 3567 
Q 600 4063 929 4331 
Q 1259 4600 1759 4600 
Q 2128 4600 2406 4451 
Q 2684 4303 2865 4023 
Q 3047 3744 3150 3342 
Q 3253 2941 3253 2259 
Q 3253 1453 3087 958 
Q 2922 463 2592 192 
Q 2263 -78 1759 -78 
Q 1097 -78 719 397 
Q 266 969 266 2259 
z
M 844 2259 
Q 844 1131 1108 757 
Q 1372 384 1759 384 
Q 2147 384 2411 759 
Q 2675 1134 2675 2259 
Q 2675 3391 2411 3762 
Q 2147 4134 1753 4134 
Q 1366 4134 1134 3806 
Q 844 3388 844 2259 
z
" transform="scale(0.015625)"/>
        <path id="ArialMT-2e" d="M 581 0 
L 581 641 
L 1222 641 
L 1222 0 
L 581 0 
z
" transform="scale(0.015625)"/>
       </defs>
       <use xlink:href="#ArialMT-30"/>
       <use xlink:href="#ArialMT-2e" x="55.615234"/>
       <use xlink:href="#ArialMT-30" x="83.398438"/>
      </g>
     </g>
    </g>
    <g id="xtick_2">
     <g id="line2d_2">
      <g>
       <use xlink:href="#mbf67169466" x="114.857032" y="307.584" style="fill: #262626; stroke: #262626; stroke-width: 1.25"/>
      </g>
     </g>
     <g id="text_2">
      <!-- 2.5 -->
      <g style="fill: #262626" transform="translate(107.212032 324.957594) scale(0.11 -0.11)">
       <defs>
        <path id="ArialMT-32" d="M 3222 541 
L 3222 0 
L 194 0 
Q 188 203 259 391 
Q 375 700 629 1000 
Q 884 1300 1366 1694 
Q 2113 2306 2375 2664 
Q 2638 3022 2638 3341 
Q 2638 3675 2398 3904 
Q 2159 4134 1775 4134 
Q 1369 4134 1125 3890 
Q 881 3647 878 3216 
L 300 3275 
Q 359 3922 746 4261 
Q 1134 4600 1788 4600 
Q 2447 4600 2831 4234 
Q 3216 3869 3216 3328 
Q 3216 3053 3103 2787 
Q 2991 2522 2730 2228 
Q 2469 1934 1863 1422 
Q 1356 997 1212 845 
Q 1069 694 975 541 
L 3222 541 
z
" transform="scale(0.015625)"/>
        <path id="ArialMT-35" d="M 266 1200 
L 856 1250 
Q 922 819 1161 601 
Q 1400 384 1738 384 
Q 2144 384 2425 690 
Q 2706 997 2706 1503 
Q 2706 1984 2436 2262 
Q 2166 2541 1728 2541 
Q 1456 2541 1237 2417 
Q 1019 2294 894 2097 
L 366 2166 
L 809 4519 
L 3088 4519 
L 3088 3981 
L 1259 3981 
L 1013 2750 
Q 1425 3038 1878 3038 
Q 2478 3038 2890 2622 
Q 3303 2206 3303 1553 
Q 3303 931 2941 478 
Q 2500 -78 1738 -78 
Q 1113 -78 717 272 
Q 322 622 266 1200 
z
" transform="scale(0.015625)"/>
       </defs>
       <use xlink:href="#ArialMT-32"/>
       <use xlink:href="#ArialMT-2e" x="55.615234"/>
       <use xlink:href="#ArialMT-35" x="83.398438"/>
      </g>
     </g>
    </g>
    <g id="xtick_3">
     <g id="line2d_3">
      <g>
       <use xlink:href="#mbf67169466" x="156.346443" y="307.584" style="fill: #262626; stroke: #262626; stroke-width: 1.25"/>
      </g>
     </g>
     <g id="text_3">
      <!-- 5.0 -->
      <g style="fill: #262626" transform="translate(148.701443 324.957594) scale(0.11 -0.11)">
       <use xlink:href="#ArialMT-35"/>
       <use xlink:href="#ArialMT-2e" x="55.615234"/>
       <use xlink:href="#ArialMT-30" x="83.398438"/>
      </g>
     </g>
    </g>
    <g id="xtick_4">
     <g id="line2d_4">
      <g>
       <use xlink:href="#mbf67169466" x="197.835855" y="307.584" style="fill: #262626; stroke: #262626; stroke-width: 1.25"/>
      </g>
     </g>
     <g id="text_4">
      <!-- 7.5 -->
      <g style="fill: #262626" transform="translate(190.190855 324.957594) scale(0.11 -0.11)">
       <defs>
        <path id="ArialMT-37" d="M 303 3981 
L 303 4522 
L 3269 4522 
L 3269 4084 
Q 2831 3619 2401 2847 
Q 1972 2075 1738 1259 
Q 1569 684 1522 0 
L 944 0 
Q 953 541 1156 1306 
Q 1359 2072 1739 2783 
Q 2119 3494 2547 3981 
L 303 3981 
z
" transform="scale(0.015625)"/>
       </defs>
       <use xlink:href="#ArialMT-37"/>
       <use xlink:href="#ArialMT-2e" x="55.615234"/>
       <use xlink:href="#ArialMT-35" x="83.398438"/>
      </g>
     </g>
    </g>
    <g id="xtick_5">
     <g id="line2d_5">
      <g>
       <use xlink:href="#mbf67169466" x="239.325266" y="307.584" style="fill: #262626; stroke: #262626; stroke-width: 1.25"/>
      </g>
     </g>
     <g id="text_5">
      <!-- 10.0 -->
      <g style="fill: #262626" transform="translate(228.621751 324.957594) scale(0.11 -0.11)">
       <defs>
        <path id="ArialMT-31" d="M 2384 0 
L 1822 0 
L 1822 3584 
Q 1619 3391 1289 3197 
Q 959 3003 697 2906 
L 697 3450 
Q 1169 3672 1522 3987 
Q 1875 4303 2022 4600 
L 2384 4600 
L 2384 0 
z
" transform="scale(0.015625)"/>
       </defs>
       <use xlink:href="#ArialMT-31"/>
       <use xlink:href="#ArialMT-30" x="55.615234"/>
       <use xlink:href="#ArialMT-2e" x="111.230469"/>
       <use xlink:href="#ArialMT-30" x="139.013672"/>
      </g>
     </g>
    </g>
    <g id="xtick_6">
     <g id="line2d_6">
      <g>
       <use xlink:href="#mbf67169466" x="280.814678" y="307.584" style="fill: #262626; stroke: #262626; stroke-width: 1.25"/>
      </g>
     </g>
     <g id="text_6">
      <!-- 12.5 -->
      <g style="fill: #262626" transform="translate(270.111162 324.957594) scale(0.11 -0.11)">
       <use xlink:href="#ArialMT-31"/>
       <use xlink:href="#ArialMT-32" x="55.615234"/>
       <use xlink:href="#ArialMT-2e" x="111.230469"/>
       <use xlink:href="#ArialMT-35" x="139.013672"/>
      </g>
     </g>
    </g>
    <g id="xtick_7">
     <g id="line2d_7">
      <g>
       <use xlink:href="#mbf67169466" x="322.304089" y="307.584" style="fill: #262626; stroke: #262626; stroke-width: 1.25"/>
      </g>
     </g>
     <g id="text_7">
      <!-- 15.0 -->
      <g style="fill: #262626" transform="translate(311.600573 324.957594) scale(0.11 -0.11)">
       <use xlink:href="#ArialMT-31"/>
       <use xlink:href="#ArialMT-35" x="55.615234"/>
       <use xlink:href="#ArialMT-2e" x="111.230469"/>
       <use xlink:href="#ArialMT-30" x="139.013672"/>
      </g>
     </g>
    </g>
    <g id="xtick_8">
     <g id="line2d_8">
      <g>
       <use xlink:href="#mbf67169466" x="363.793501" y="307.584" style="fill: #262626; stroke: #262626; stroke-width: 1.25"/>
      </g>
     </g>
     <g id="text_8">
      <!-- 17.5 -->
      <g style="fill: #262626" transform="translate(353.089985 324.957594) scale(0.11 -0.11)">
       <use xlink:href="#ArialMT-31"/>
       <use xlink:href="#ArialMT-37" x="55.615234"/>
       <use xlink:href="#ArialMT-2e" x="111.230469"/>
       <use xlink:href="#ArialMT-35" x="139.013672"/>
      </g>
     </g>
    </g>
    <g id="xtick_9">
     <g id="line2d_9">
      <g>
       <use xlink:href="#mbf67169466" x="405.282912" y="307.584" style="fill: #262626; stroke: #262626; stroke-width: 1.25"/>
      </g>
     </g>
     <g id="text_9">
      <!-- 20.0 -->
      <g style="fill: #262626" transform="translate(394.579396 324.957594) scale(0.11 -0.11)">
       <use xlink:href="#ArialMT-32"/>
       <use xlink:href="#ArialMT-30" x="55.615234"/>
       <use xlink:href="#ArialMT-2e" x="111.230469"/>
       <use xlink:href="#ArialMT-30" x="139.013672"/>
      </g>
     </g>
    </g>
    <g id="text_10">
     <!-- CPU time in seconds -->
     <g style="fill: #262626" transform="translate(180.140625 339.733219) scale(0.12 -0.12)">
      <defs>
       <path id="ArialMT-43" d="M 3763 1606 
L 4369 1453 
Q 4178 706 3683 314 
Q 3188 -78 2472 -78 
Q 1731 -78 1267 223 
Q 803 525 561 1097 
Q 319 1669 319 2325 
Q 319 3041 592 3573 
Q 866 4106 1370 4382 
Q 1875 4659 2481 4659 
Q 3169 4659 3637 4309 
Q 4106 3959 4291 3325 
L 3694 3184 
Q 3534 3684 3231 3912 
Q 2928 4141 2469 4141 
Q 1941 4141 1586 3887 
Q 1231 3634 1087 3207 
Q 944 2781 944 2328 
Q 944 1744 1114 1308 
Q 1284 872 1643 656 
Q 2003 441 2422 441 
Q 2931 441 3284 734 
Q 3638 1028 3763 1606 
z
" transform="scale(0.015625)"/>
       <path id="ArialMT-50" d="M 494 0 
L 494 4581 
L 2222 4581 
Q 2678 4581 2919 4538 
Q 3256 4481 3484 4323 
Q 3713 4166 3852 3881 
Q 3991 3597 3991 3256 
Q 3991 2672 3619 2267 
Q 3247 1863 2275 1863 
L 1100 1863 
L 1100 0 
L 494 0 
z
M 1100 2403 
L 2284 2403 
Q 2872 2403 3119 2622 
Q 3366 2841 3366 3238 
Q 3366 3525 3220 3729 
Q 3075 3934 2838 4000 
Q 2684 4041 2272 4041 
L 1100 4041 
L 1100 2403 
z
" transform="scale(0.015625)"/>
       <path id="ArialMT-55" d="M 3500 4581 
L 4106 4581 
L 4106 1934 
Q 4106 1244 3950 837 
Q 3794 431 3386 176 
Q 2978 -78 2316 -78 
Q 1672 -78 1262 144 
Q 853 366 678 786 
Q 503 1206 503 1934 
L 503 4581 
L 1109 4581 
L 1109 1938 
Q 1109 1341 1220 1058 
Q 1331 775 1601 622 
Q 1872 469 2263 469 
Q 2931 469 3215 772 
Q 3500 1075 3500 1938 
L 3500 4581 
z
" transform="scale(0.015625)"/>
       <path id="ArialMT-20" transform="scale(0.015625)"/>
       <path id="ArialMT-74" d="M 1650 503 
L 1731 6 
Q 1494 -44 1306 -44 
Q 1000 -44 831 53 
Q 663 150 594 308 
Q 525 466 525 972 
L 525 2881 
L 113 2881 
L 113 3319 
L 525 3319 
L 525 4141 
L 1084 4478 
L 1084 3319 
L 1650 3319 
L 1650 2881 
L 1084 2881 
L 1084 941 
Q 1084 700 1114 631 
Q 1144 563 1211 522 
Q 1278 481 1403 481 
Q 1497 481 1650 503 
z
" transform="scale(0.015625)"/>
       <path id="ArialMT-69" d="M 425 3934 
L 425 4581 
L 988 4581 
L 988 3934 
L 425 3934 
z
M 425 0 
L 425 3319 
L 988 3319 
L 988 0 
L 425 0 
z
" transform="scale(0.015625)"/>
       <path id="ArialMT-6d" d="M 422 0 
L 422 3319 
L 925 3319 
L 925 2853 
Q 1081 3097 1340 3245 
Q 1600 3394 1931 3394 
Q 2300 3394 2536 3241 
Q 2772 3088 2869 2813 
Q 3263 3394 3894 3394 
Q 4388 3394 4653 3120 
Q 4919 2847 4919 2278 
L 4919 0 
L 4359 0 
L 4359 2091 
Q 4359 2428 4304 2576 
Q 4250 2725 4106 2815 
Q 3963 2906 3769 2906 
Q 3419 2906 3187 2673 
Q 2956 2441 2956 1928 
L 2956 0 
L 2394 0 
L 2394 2156 
Q 2394 2531 2256 2718 
Q 2119 2906 1806 2906 
Q 1569 2906 1367 2781 
Q 1166 2656 1075 2415 
Q 984 2175 984 1722 
L 984 0 
L 422 0 
z
" transform="scale(0.015625)"/>
       <path id="ArialMT-65" d="M 2694 1069 
L 3275 997 
Q 3138 488 2766 206 
Q 2394 -75 1816 -75 
Q 1088 -75 661 373 
Q 234 822 234 1631 
Q 234 2469 665 2931 
Q 1097 3394 1784 3394 
Q 2450 3394 2872 2941 
Q 3294 2488 3294 1666 
Q 3294 1616 3291 1516 
L 816 1516 
Q 847 969 1125 678 
Q 1403 388 1819 388 
Q 2128 388 2347 550 
Q 2566 713 2694 1069 
z
M 847 1978 
L 2700 1978 
Q 2663 2397 2488 2606 
Q 2219 2931 1791 2931 
Q 1403 2931 1139 2672 
Q 875 2413 847 1978 
z
" transform="scale(0.015625)"/>
       <path id="ArialMT-6e" d="M 422 0 
L 422 3319 
L 928 3319 
L 928 2847 
Q 1294 3394 1984 3394 
Q 2284 3394 2536 3286 
Q 2788 3178 2913 3003 
Q 3038 2828 3088 2588 
Q 3119 2431 3119 2041 
L 3119 0 
L 2556 0 
L 2556 2019 
Q 2556 2363 2490 2533 
Q 2425 2703 2258 2804 
Q 2091 2906 1866 2906 
Q 1506 2906 1245 2678 
Q 984 2450 984 1813 
L 984 0 
L 422 0 
z
" transform="scale(0.015625)"/>
       <path id="ArialMT-73" d="M 197 991 
L 753 1078 
Q 800 744 1014 566 
Q 1228 388 1613 388 
Q 2000 388 2187 545 
Q 2375 703 2375 916 
Q 2375 1106 2209 1216 
Q 2094 1291 1634 1406 
Q 1016 1563 777 1677 
Q 538 1791 414 1992 
Q 291 2194 291 2438 
Q 291 2659 392 2848 
Q 494 3038 669 3163 
Q 800 3259 1026 3326 
Q 1253 3394 1513 3394 
Q 1903 3394 2198 3281 
Q 2494 3169 2634 2976 
Q 2775 2784 2828 2463 
L 2278 2388 
Q 2241 2644 2061 2787 
Q 1881 2931 1553 2931 
Q 1166 2931 1000 2803 
Q 834 2675 834 2503 
Q 834 2394 903 2306 
Q 972 2216 1119 2156 
Q 1203 2125 1616 2013 
Q 2213 1853 2448 1751 
Q 2684 1650 2818 1456 
Q 2953 1263 2953 975 
Q 2953 694 2789 445 
Q 2625 197 2315 61 
Q 2006 -75 1616 -75 
Q 969 -75 630 194 
Q 291 463 197 991 
z
" transform="scale(0.015625)"/>
       <path id="ArialMT-63" d="M 2588 1216 
L 3141 1144 
Q 3050 572 2676 248 
Q 2303 -75 1759 -75 
Q 1078 -75 664 370 
Q 250 816 250 1647 
Q 250 2184 428 2587 
Q 606 2991 970 3192 
Q 1334 3394 1763 3394 
Q 2303 3394 2647 3120 
Q 2991 2847 3088 2344 
L 2541 2259 
Q 2463 2594 2264 2762 
Q 2066 2931 1784 2931 
Q 1359 2931 1093 2626 
Q 828 2322 828 1663 
Q 828 994 1084 691 
Q 1341 388 1753 388 
Q 2084 388 2306 591 
Q 2528 794 2588 1216 
z
" transform="scale(0.015625)"/>
       <path id="ArialMT-6f" d="M 213 1659 
Q 213 2581 725 3025 
Q 1153 3394 1769 3394 
Q 2453 3394 2887 2945 
Q 3322 2497 3322 1706 
Q 3322 1066 3130 698 
Q 2938 331 2570 128 
Q 2203 -75 1769 -75 
Q 1072 -75 642 372 
Q 213 819 213 1659 
z
M 791 1659 
Q 791 1022 1069 705 
Q 1347 388 1769 388 
Q 2188 388 2466 706 
Q 2744 1025 2744 1678 
Q 2744 2294 2464 2611 
Q 2184 2928 1769 2928 
Q 1347 2928 1069 2612 
Q 791 2297 791 1659 
z
" transform="scale(0.015625)"/>
       <path id="ArialMT-64" d="M 2575 0 
L 2575 419 
Q 2259 -75 1647 -75 
Q 1250 -75 917 144 
Q 584 363 401 755 
Q 219 1147 219 1656 
Q 219 2153 384 2558 
Q 550 2963 881 3178 
Q 1213 3394 1622 3394 
Q 1922 3394 2156 3267 
Q 2391 3141 2538 2938 
L 2538 4581 
L 3097 4581 
L 3097 0 
L 2575 0 
z
M 797 1656 
Q 797 1019 1065 703 
Q 1334 388 1700 388 
Q 2069 388 2326 689 
Q 2584 991 2584 1609 
Q 2584 2291 2321 2609 
Q 2059 2928 1675 2928 
Q 1300 2928 1048 2622 
Q 797 2316 797 1656 
z
" transform="scale(0.015625)"/>
      </defs>
      <use xlink:href="#ArialMT-43"/>
      <use xlink:href="#ArialMT-50" x="72.216797"/>
      <use xlink:href="#ArialMT-55" x="138.916016"/>
      <use xlink:href="#ArialMT-20" x="211.132812"/>
      <use xlink:href="#ArialMT-74" x="238.916016"/>
      <use xlink:href="#ArialMT-69" x="266.699219"/>
      <use xlink:href="#ArialMT-6d" x="288.916016"/>
      <use xlink:href="#ArialMT-65" x="372.216797"/>
      <use xlink:href="#ArialMT-20" x="427.832031"/>
      <use xlink:href="#ArialMT-69" x="455.615234"/>
      <use xlink:href="#ArialMT-6e" x="477.832031"/>
      <use xlink:href="#ArialMT-20" x="533.447266"/>
      <use xlink:href="#ArialMT-73" x="561.230469"/>
      <use xlink:href="#ArialMT-65" x="611.230469"/>
      <use xlink:href="#ArialMT-63" x="666.845703"/>
      <use xlink:href="#ArialMT-6f" x="716.845703"/>
      <use xlink:href="#ArialMT-6e" x="772.460938"/>
      <use xlink:href="#ArialMT-64" x="828.076172"/>
      <use xlink:href="#ArialMT-73" x="883.691406"/>
     </g>
    </g>
   </g>
   <g id="matplotlib.axis_2">
    <g id="ytick_1">
     <g id="line2d_10">
      <defs>
       <path id="m61256fb274" d="M 0 0 
L -6 0 
" style="stroke: #262626; stroke-width: 1.25"/>
      </defs>
      <g>
       <use xlink:href="#m61256fb274" x="57.6" y="307.584" style="fill: #262626; stroke: #262626; stroke-width: 1.25"/>
      </g>
     </g>
     <g id="text_11">
      <!-- $\mathdefault{10^{-5}}$ -->
      <g style="fill: #262626" transform="translate(26.32 313.200875) scale(0.11 -0.11)">
       <defs>
        <path id="ArialMT-2212" d="M 3381 1997 
L 356 1997 
L 356 2522 
L 3381 2522 
L 3381 1997 
z
" transform="scale(0.015625)"/>
       </defs>
       <use xlink:href="#ArialMT-31" transform="translate(0 0.879688)"/>
       <use xlink:href="#ArialMT-30" transform="translate(55.615234 0.879688)"/>
       <use xlink:href="#ArialMT-2212" transform="translate(112.972813 70.573438) scale(0.7)"/>
       <use xlink:href="#ArialMT-35" transform="translate(153.851719 70.573438) scale(0.7)"/>
      </g>
     </g>
    </g>
    <g id="ytick_2">
     <g id="line2d_11">
      <g>
       <use xlink:href="#m61256fb274" x="57.6" y="254.3616" style="fill: #262626; stroke: #262626; stroke-width: 1.25"/>
      </g>
     </g>
     <g id="text_12">
      <!-- $\mathdefault{10^{-4}}$ -->
      <g style="fill: #262626" transform="translate(26.32 259.978475) scale(0.11 -0.11)">
       <defs>
        <path id="ArialMT-34" d="M 2069 0 
L 2069 1097 
L 81 1097 
L 81 1613 
L 2172 4581 
L 2631 4581 
L 2631 1613 
L 3250 1613 
L 3250 1097 
L 2631 1097 
L 2631 0 
L 2069 0 
z
M 2069 1613 
L 2069 3678 
L 634 1613 
L 2069 1613 
z
" transform="scale(0.015625)"/>
       </defs>
       <use xlink:href="#ArialMT-31" transform="translate(0 0.201563)"/>
       <use xlink:href="#ArialMT-30" transform="translate(55.615234 0.201563)"/>
       <use xlink:href="#ArialMT-2212" transform="translate(112.972813 69.895313) scale(0.7)"/>
       <use xlink:href="#ArialMT-34" transform="translate(153.851719 69.895313) scale(0.7)"/>
      </g>
     </g>
    </g>
    <g id="ytick_3">
     <g id="line2d_12">
      <g>
       <use xlink:href="#m61256fb274" x="57.6" y="201.1392" style="fill: #262626; stroke: #262626; stroke-width: 1.25"/>
      </g>
     </g>
     <g id="text_13">
      <!-- $\mathdefault{10^{-3}}$ -->
      <g style="fill: #262626" transform="translate(26.32 206.811075) scale(0.11 -0.11)">
       <defs>
        <path id="ArialMT-33" d="M 269 1209 
L 831 1284 
Q 928 806 1161 595 
Q 1394 384 1728 384 
Q 2125 384 2398 659 
Q 2672 934 2672 1341 
Q 2672 1728 2419 1979 
Q 2166 2231 1775 2231 
Q 1616 2231 1378 2169 
L 1441 2663 
Q 1497 2656 1531 2656 
Q 1891 2656 2178 2843 
Q 2466 3031 2466 3422 
Q 2466 3731 2256 3934 
Q 2047 4138 1716 4138 
Q 1388 4138 1169 3931 
Q 950 3725 888 3313 
L 325 3413 
Q 428 3978 793 4289 
Q 1159 4600 1703 4600 
Q 2078 4600 2393 4439 
Q 2709 4278 2876 4000 
Q 3044 3722 3044 3409 
Q 3044 3113 2884 2869 
Q 2725 2625 2413 2481 
Q 2819 2388 3044 2092 
Q 3269 1797 3269 1353 
Q 3269 753 2831 336 
Q 2394 -81 1725 -81 
Q 1122 -81 723 278 
Q 325 638 269 1209 
z
" transform="scale(0.015625)"/>
       </defs>
       <use xlink:href="#ArialMT-31" transform="translate(0 0.99375)"/>
       <use xlink:href="#ArialMT-30" transform="translate(55.615234 0.99375)"/>
       <use xlink:href="#ArialMT-2212" transform="translate(112.972813 70.6875) scale(0.7)"/>
       <use xlink:href="#ArialMT-33" transform="translate(153.851719 70.6875) scale(0.7)"/>
      </g>
     </g>
    </g>
    <g id="ytick_4">
     <g id="line2d_13">
      <g>
       <use xlink:href="#m61256fb274" x="57.6" y="147.9168" style="fill: #262626; stroke: #262626; stroke-width: 1.25"/>
      </g>
     </g>
     <g id="text_14">
      <!-- $\mathdefault{10^{-2}}$ -->
      <g style="fill: #262626" transform="translate(26.32 153.588675) scale(0.11 -0.11)">
       <use xlink:href="#ArialMT-31" transform="translate(0 0.99375)"/>
       <use xlink:href="#ArialMT-30" transform="translate(55.615234 0.99375)"/>
       <use xlink:href="#ArialMT-2212" transform="translate(112.972813 70.6875) scale(0.7)"/>
       <use xlink:href="#ArialMT-32" transform="translate(153.851719 70.6875) scale(0.7)"/>
      </g>
     </g>
    </g>
    <g id="ytick_5">
     <g id="line2d_14">
      <g>
       <use xlink:href="#m61256fb274" x="57.6" y="94.6944" style="fill: #262626; stroke: #262626; stroke-width: 1.25"/>
      </g>
     </g>
     <g id="text_15">
      <!-- $\mathdefault{10^{-1}}$ -->
      <g style="fill: #262626" transform="translate(26.32 100.366275) scale(0.11 -0.11)">
       <use xlink:href="#ArialMT-31" transform="translate(0 0.99375)"/>
       <use xlink:href="#ArialMT-30" transform="translate(55.615234 0.99375)"/>
       <use xlink:href="#ArialMT-2212" transform="translate(112.972813 70.6875) scale(0.7)"/>
       <use xlink:href="#ArialMT-31" transform="translate(153.851719 70.6875) scale(0.7)"/>
      </g>
     </g>
    </g>
    <g id="ytick_6">
     <g id="line2d_15">
      <g>
       <use xlink:href="#m61256fb274" x="57.6" y="41.472" style="fill: #262626; stroke: #262626; stroke-width: 1.25"/>
      </g>
     </g>
     <g id="text_16">
      <!-- $\mathdefault{10^{0}}$ -->
      <g style="fill: #262626" transform="translate(30.83 47.143875) scale(0.11 -0.11)">
       <use xlink:href="#ArialMT-31" transform="translate(0 0.99375)"/>
       <use xlink:href="#ArialMT-30" transform="translate(55.615234 0.99375)"/>
       <use xlink:href="#ArialMT-30" transform="translate(112.972813 70.6875) scale(0.7)"/>
      </g>
     </g>
    </g>
    <g id="ytick_7">
     <g id="line2d_16">
      <defs>
       <path id="md20a42c7ae" d="M 0 0 
L -4 0 
" style="stroke: #262626"/>
      </defs>
      <g>
       <use xlink:href="#md20a42c7ae" x="57.6" y="291.562461" style="fill: #262626; stroke: #262626"/>
      </g>
     </g>
    </g>
    <g id="ytick_8">
     <g id="line2d_17">
      <g>
       <use xlink:href="#md20a42c7ae" x="57.6" y="282.190462" style="fill: #262626; stroke: #262626"/>
      </g>
     </g>
    </g>
    <g id="ytick_9">
     <g id="line2d_18">
      <g>
       <use xlink:href="#md20a42c7ae" x="57.6" y="275.540922" style="fill: #262626; stroke: #262626"/>
      </g>
     </g>
    </g>
    <g id="ytick_10">
     <g id="line2d_19">
      <g>
       <use xlink:href="#md20a42c7ae" x="57.6" y="270.383139" style="fill: #262626; stroke: #262626"/>
      </g>
     </g>
    </g>
    <g id="ytick_11">
     <g id="line2d_20">
      <g>
       <use xlink:href="#md20a42c7ae" x="57.6" y="266.168923" style="fill: #262626; stroke: #262626"/>
      </g>
     </g>
    </g>
    <g id="ytick_12">
     <g id="line2d_21">
      <g>
       <use xlink:href="#md20a42c7ae" x="57.6" y="262.605854" style="fill: #262626; stroke: #262626"/>
      </g>
     </g>
    </g>
    <g id="ytick_13">
     <g id="line2d_22">
      <g>
       <use xlink:href="#md20a42c7ae" x="57.6" y="259.519383" style="fill: #262626; stroke: #262626"/>
      </g>
     </g>
    </g>
    <g id="ytick_14">
     <g id="line2d_23">
      <g>
       <use xlink:href="#md20a42c7ae" x="57.6" y="256.796923" style="fill: #262626; stroke: #262626"/>
      </g>
     </g>
    </g>
    <g id="ytick_15">
     <g id="line2d_24">
      <g>
       <use xlink:href="#md20a42c7ae" x="57.6" y="238.340061" style="fill: #262626; stroke: #262626"/>
      </g>
     </g>
    </g>
    <g id="ytick_16">
     <g id="line2d_25">
      <g>
       <use xlink:href="#md20a42c7ae" x="57.6" y="228.968062" style="fill: #262626; stroke: #262626"/>
      </g>
     </g>
    </g>
    <g id="ytick_17">
     <g id="line2d_26">
      <g>
       <use xlink:href="#md20a42c7ae" x="57.6" y="222.318522" style="fill: #262626; stroke: #262626"/>
      </g>
     </g>
    </g>
    <g id="ytick_18">
     <g id="line2d_27">
      <g>
       <use xlink:href="#md20a42c7ae" x="57.6" y="217.160739" style="fill: #262626; stroke: #262626"/>
      </g>
     </g>
    </g>
    <g id="ytick_19">
     <g id="line2d_28">
      <g>
       <use xlink:href="#md20a42c7ae" x="57.6" y="212.946523" style="fill: #262626; stroke: #262626"/>
      </g>
     </g>
    </g>
    <g id="ytick_20">
     <g id="line2d_29">
      <g>
       <use xlink:href="#md20a42c7ae" x="57.6" y="209.383454" style="fill: #262626; stroke: #262626"/>
      </g>
     </g>
    </g>
    <g id="ytick_21">
     <g id="line2d_30">
      <g>
       <use xlink:href="#md20a42c7ae" x="57.6" y="206.296983" style="fill: #262626; stroke: #262626"/>
      </g>
     </g>
    </g>
    <g id="ytick_22">
     <g id="line2d_31">
      <g>
       <use xlink:href="#md20a42c7ae" x="57.6" y="203.574523" style="fill: #262626; stroke: #262626"/>
      </g>
     </g>
    </g>
    <g id="ytick_23">
     <g id="line2d_32">
      <g>
       <use xlink:href="#md20a42c7ae" x="57.6" y="185.117661" style="fill: #262626; stroke: #262626"/>
      </g>
     </g>
    </g>
    <g id="ytick_24">
     <g id="line2d_33">
      <g>
       <use xlink:href="#md20a42c7ae" x="57.6" y="175.745662" style="fill: #262626; stroke: #262626"/>
      </g>
     </g>
    </g>
    <g id="ytick_25">
     <g id="line2d_34">
      <g>
       <use xlink:href="#md20a42c7ae" x="57.6" y="169.096122" style="fill: #262626; stroke: #262626"/>
      </g>
     </g>
    </g>
    <g id="ytick_26">
     <g id="line2d_35">
      <g>
       <use xlink:href="#md20a42c7ae" x="57.6" y="163.938339" style="fill: #262626; stroke: #262626"/>
      </g>
     </g>
    </g>
    <g id="ytick_27">
     <g id="line2d_36">
      <g>
       <use xlink:href="#md20a42c7ae" x="57.6" y="159.724123" style="fill: #262626; stroke: #262626"/>
      </g>
     </g>
    </g>
    <g id="ytick_28">
     <g id="line2d_37">
      <g>
       <use xlink:href="#md20a42c7ae" x="57.6" y="156.161054" style="fill: #262626; stroke: #262626"/>
      </g>
     </g>
    </g>
    <g id="ytick_29">
     <g id="line2d_38">
      <g>
       <use xlink:href="#md20a42c7ae" x="57.6" y="153.074583" style="fill: #262626; stroke: #262626"/>
      </g>
     </g>
    </g>
    <g id="ytick_30">
     <g id="line2d_39">
      <g>
       <use xlink:href="#md20a42c7ae" x="57.6" y="150.352123" style="fill: #262626; stroke: #262626"/>
      </g>
     </g>
    </g>
    <g id="ytick_31">
     <g id="line2d_40">
      <g>
       <use xlink:href="#md20a42c7ae" x="57.6" y="131.895261" style="fill: #262626; stroke: #262626"/>
      </g>
     </g>
    </g>
    <g id="ytick_32">
     <g id="line2d_41">
      <g>
       <use xlink:href="#md20a42c7ae" x="57.6" y="122.523262" style="fill: #262626; stroke: #262626"/>
      </g>
     </g>
    </g>
    <g id="ytick_33">
     <g id="line2d_42">
      <g>
       <use xlink:href="#md20a42c7ae" x="57.6" y="115.873722" style="fill: #262626; stroke: #262626"/>
      </g>
     </g>
    </g>
    <g id="ytick_34">
     <g id="line2d_43">
      <g>
       <use xlink:href="#md20a42c7ae" x="57.6" y="110.715939" style="fill: #262626; stroke: #262626"/>
      </g>
     </g>
    </g>
    <g id="ytick_35">
     <g id="line2d_44">
      <g>
       <use xlink:href="#md20a42c7ae" x="57.6" y="106.501723" style="fill: #262626; stroke: #262626"/>
      </g>
     </g>
    </g>
    <g id="ytick_36">
     <g id="line2d_45">
      <g>
       <use xlink:href="#md20a42c7ae" x="57.6" y="102.938654" style="fill: #262626; stroke: #262626"/>
      </g>
     </g>
    </g>
    <g id="ytick_37">
     <g id="line2d_46">
      <g>
       <use xlink:href="#md20a42c7ae" x="57.6" y="99.852183" style="fill: #262626; stroke: #262626"/>
      </g>
     </g>
    </g>
    <g id="ytick_38">
     <g id="line2d_47">
      <g>
       <use xlink:href="#md20a42c7ae" x="57.6" y="97.129723" style="fill: #262626; stroke: #262626"/>
      </g>
     </g>
    </g>
    <g id="ytick_39">
     <g id="line2d_48">
      <g>
       <use xlink:href="#md20a42c7ae" x="57.6" y="78.672861" style="fill: #262626; stroke: #262626"/>
      </g>
     </g>
    </g>
    <g id="ytick_40">
     <g id="line2d_49">
      <g>
       <use xlink:href="#md20a42c7ae" x="57.6" y="69.300862" style="fill: #262626; stroke: #262626"/>
      </g>
     </g>
    </g>
    <g id="ytick_41">
     <g id="line2d_50">
      <g>
       <use xlink:href="#md20a42c7ae" x="57.6" y="62.651322" style="fill: #262626; stroke: #262626"/>
      </g>
     </g>
    </g>
    <g id="ytick_42">
     <g id="line2d_51">
      <g>
       <use xlink:href="#md20a42c7ae" x="57.6" y="57.493539" style="fill: #262626; stroke: #262626"/>
      </g>
     </g>
    </g>
    <g id="ytick_43">
     <g id="line2d_52">
      <g>
       <use xlink:href="#md20a42c7ae" x="57.6" y="53.279323" style="fill: #262626; stroke: #262626"/>
      </g>
     </g>
    </g>
    <g id="ytick_44">
     <g id="line2d_53">
      <g>
       <use xlink:href="#md20a42c7ae" x="57.6" y="49.716254" style="fill: #262626; stroke: #262626"/>
      </g>
     </g>
    </g>
    <g id="ytick_45">
     <g id="line2d_54">
      <g>
       <use xlink:href="#md20a42c7ae" x="57.6" y="46.629783" style="fill: #262626; stroke: #262626"/>
      </g>
     </g>
    </g>
    <g id="ytick_46">
     <g id="line2d_55">
      <g>
       <use xlink:href="#md20a42c7ae" x="57.6" y="43.907323" style="fill: #262626; stroke: #262626"/>
      </g>
     </g>
    </g>
    <g id="text_17">
     <!-- Accuracy -->
     <g style="fill: #262626" transform="translate(19.794375 199.201125) rotate(-90) scale(0.12 -0.12)">
      <defs>
       <path id="ArialMT-41" d="M -9 0 
L 1750 4581 
L 2403 4581 
L 4278 0 
L 3588 0 
L 3053 1388 
L 1138 1388 
L 634 0 
L -9 0 
z
M 1313 1881 
L 2866 1881 
L 2388 3150 
Q 2169 3728 2063 4100 
Q 1975 3659 1816 3225 
L 1313 1881 
z
" transform="scale(0.015625)"/>
       <path id="ArialMT-75" d="M 2597 0 
L 2597 488 
Q 2209 -75 1544 -75 
Q 1250 -75 995 37 
Q 741 150 617 320 
Q 494 491 444 738 
Q 409 903 409 1263 
L 409 3319 
L 972 3319 
L 972 1478 
Q 972 1038 1006 884 
Q 1059 663 1231 536 
Q 1403 409 1656 409 
Q 1909 409 2131 539 
Q 2353 669 2445 892 
Q 2538 1116 2538 1541 
L 2538 3319 
L 3100 3319 
L 3100 0 
L 2597 0 
z
" transform="scale(0.015625)"/>
       <path id="ArialMT-72" d="M 416 0 
L 416 3319 
L 922 3319 
L 922 2816 
Q 1116 3169 1280 3281 
Q 1444 3394 1641 3394 
Q 1925 3394 2219 3213 
L 2025 2691 
Q 1819 2813 1613 2813 
Q 1428 2813 1281 2702 
Q 1134 2591 1072 2394 
Q 978 2094 978 1738 
L 978 0 
L 416 0 
z
" transform="scale(0.015625)"/>
       <path id="ArialMT-61" d="M 2588 409 
Q 2275 144 1986 34 
Q 1697 -75 1366 -75 
Q 819 -75 525 192 
Q 231 459 231 875 
Q 231 1119 342 1320 
Q 453 1522 633 1644 
Q 813 1766 1038 1828 
Q 1203 1872 1538 1913 
Q 2219 1994 2541 2106 
Q 2544 2222 2544 2253 
Q 2544 2597 2384 2738 
Q 2169 2928 1744 2928 
Q 1347 2928 1158 2789 
Q 969 2650 878 2297 
L 328 2372 
Q 403 2725 575 2942 
Q 747 3159 1072 3276 
Q 1397 3394 1825 3394 
Q 2250 3394 2515 3294 
Q 2781 3194 2906 3042 
Q 3031 2891 3081 2659 
Q 3109 2516 3109 2141 
L 3109 1391 
Q 3109 606 3145 398 
Q 3181 191 3288 0 
L 2700 0 
Q 2613 175 2588 409 
z
M 2541 1666 
Q 2234 1541 1622 1453 
Q 1275 1403 1131 1340 
Q 988 1278 909 1158 
Q 831 1038 831 891 
Q 831 666 1001 516 
Q 1172 366 1500 366 
Q 1825 366 2078 508 
Q 2331 650 2450 897 
Q 2541 1088 2541 1459 
L 2541 1666 
z
" transform="scale(0.015625)"/>
       <path id="ArialMT-79" d="M 397 -1278 
L 334 -750 
Q 519 -800 656 -800 
Q 844 -800 956 -737 
Q 1069 -675 1141 -563 
Q 1194 -478 1313 -144 
Q 1328 -97 1363 -6 
L 103 3319 
L 709 3319 
L 1400 1397 
Q 1534 1031 1641 628 
Q 1738 1016 1872 1384 
L 2581 3319 
L 3144 3319 
L 1881 -56 
Q 1678 -603 1566 -809 
Q 1416 -1088 1222 -1217 
Q 1028 -1347 759 -1347 
Q 597 -1347 397 -1278 
z
" transform="scale(0.015625)"/>
      </defs>
      <use xlink:href="#ArialMT-41"/>
      <use xlink:href="#ArialMT-63" x="66.699219"/>
      <use xlink:href="#ArialMT-63" x="116.699219"/>
      <use xlink:href="#ArialMT-75" x="166.699219"/>
      <use xlink:href="#ArialMT-72" x="222.314453"/>
      <use xlink:href="#ArialMT-61" x="255.615234"/>
      <use xlink:href="#ArialMT-63" x="311.230469"/>
      <use xlink:href="#ArialMT-79" x="361.230469"/>
     </g>
    </g>
   </g>
   <g id="line2d_56">
    <path d="M 73.832727 27.068978 
L 74.297834 58.235163 
L 75.194645 96.976115 
L 75.659914 87.609368 
L 76.108406 103.978334 
L 76.573505 90.352191 
L 77.021997 111.372458 
L 77.486953 101.937602 
L 77.935442 111.289159 
L 78.383776 112.593992 
L 78.848883 116.502187 
L 79.313981 122.526383 
L 79.762494 124.505986 
L 80.210994 125.24039 
L 80.659486 134.915564 
L 81.107828 134.580397 
L 81.573093 136.027684 
L 82.021427 136.591645 
L 82.469765 147.169944 
L 82.93503 137.916143 
L 83.384191 147.344544 
L 83.848483 149.606206 
L 84.297142 146.408838 
L 84.745796 147.32937 
L 85.194304 150.071659 
L 85.642599 154.35094 
L 86.107686 149.325555 
L 86.556178 155.606151 
L 87.021273 145.610124 
L 87.486376 158.648642 
L 87.934884 156.317649 
L 88.383376 157.803696 
L 88.83228 165.781418 
L 89.280911 171.087234 
L 89.746018 159.102885 
L 90.194518 161.694783 
L 90.64301 165.91376 
L 91.091495 164.812052 
L 91.556598 164.656626 
L 92.005094 162.020504 
L 92.453582 163.616504 
L 92.902091 170.632555 
L 93.350583 166.44963 
L 94.69606 177.377831 
L 95.144548 169.131749 
L 95.576434 167.96077 
L 96.008316 185.453553 
L 96.440198 171.168695 
L 96.888691 165.301675 
L 97.337195 179.988794 
L 97.785683 174.47348 
L 98.234176 177.262152 
L 98.666058 173.35342 
L 99.097947 179.232269 
L 99.563046 176.922875 
L 99.994932 172.137335 
L 100.443429 174.919332 
L 100.908527 183.046833 
L 101.357024 181.354602 
L 101.805516 178.957067 
L 102.254012 173.861587 
L 102.702509 187.495183 
L 103.134387 188.120478 
L 103.582879 179.81997 
L 104.031379 173.739475 
L 104.47986 193.690809 
L 105.360238 180.159927 
L 105.792124 183.929395 
L 106.257227 181.046603 
L 106.705719 190.348586 
L 107.154215 182.619252 
L 107.602716 185.599706 
L 108.051208 179.502632 
L 108.483086 184.820527 
L 108.931586 188.484789 
L 109.380079 185.291395 
L 110.277071 190.94793 
L 110.72556 187.351504 
L 111.157442 185.317392 
L 111.605942 190.240396 
L 112.054431 188.172456 
L 112.502923 192.878912 
L 112.934809 191.259384 
L 113.366695 188.232397 
L 113.815187 186.498985 
L 114.263683 198.891986 
L 114.695569 187.376608 
L 115.144058 184.310574 
L 115.592554 184.392716 
L 116.024436 197.702208 
L 116.456318 188.410141 
L 116.904806 189.18816 
L 117.353307 199.6851 
L 117.801799 187.090798 
L 118.250295 194.575875 
L 118.698792 198.647541 
L 119.14728 191.390982 
L 119.595772 187.658475 
L 120.027658 193.529098 
L 120.459536 190.445519 
L 120.908037 198.785611 
L 121.356533 192.567017 
L 121.788411 196.163225 
L 122.220289 205.505237 
L 122.668785 197.560409 
L 123.117278 193.417887 
L 123.565774 200.881339 
L 124.014413 196.353795 
L 124.462913 193.344371 
L 124.911425 193.24516 
L 125.37652 191.557027 
L 126.290119 198.152299 
L 126.738619 192.973562 
L 127.20371 198.643358 
L 127.652215 197.188822 
L 128.100553 198.799656 
L 128.549045 202.065317 
L 128.99751 196.695293 
L 129.445852 198.384271 
L 129.89449 196.095819 
L 130.359597 211.76899 
L 130.808082 194.525033 
L 131.256574 199.105445 
L 131.705066 208.564907 
L 132.153547 198.43056 
L 132.618665 194.147595 
L 133.067154 203.980564 
L 133.515804 203.912203 
L 133.980895 198.239371 
L 134.429392 208.98553 
L 134.877888 196.153388 
L 135.343003 195.448607 
L 135.791495 197.760382 
L 136.239983 206.261256 
L 136.688492 202.377577 
L 137.153598 203.99401 
L 137.618701 204.144509 
L 138.083808 205.051863 
L 138.5323 197.651811 
L 138.997391 196.420617 
L 139.445899 204.258446 
L 139.911006 207.220317 
L 140.359498 196.22171 
L 140.824601 198.677503 
L 141.272939 202.629441 
L 141.721431 203.86465 
L 142.186538 202.484603 
L 142.651645 203.823205 
L 143.100137 206.93051 
L 143.56524 204.4172 
L 144.030347 210.722691 
L 144.927331 198.298436 
L 145.377438 201.807782 
L 145.824474 213.947628 
L 146.273109 204.715961 
L 146.721602 200.232031 
L 147.170086 211.332589 
L 147.618594 202.895087 
L 148.067083 199.682005 
L 148.49898 209.864247 
L 148.947461 205.490408 
L 149.395969 212.834779 
L 149.861072 210.621908 
L 150.309552 202.133134 
L 150.758053 200.154006 
L 151.206399 219.705679 
L 151.638142 206.805269 
L 152.08648 204.642842 
L 152.518505 214.345341 
L 152.963056 200.340444 
L 153.411564 202.918812 
L 153.860064 207.95112 
L 154.325159 205.683129 
L 154.773648 211.1529 
L 155.221982 206.325376 
L 155.670474 211.799409 
L 156.102325 206.377517 
L 156.534206 205.549351 
L 156.982711 200.351046 
L 157.414585 212.880851 
L 157.846463 206.961563 
L 158.294963 209.565883 
L 158.726837 207.163067 
L 159.175333 206.665145 
L 159.607215 216.747944 
L 160.055704 203.985845 
L 160.5042 211.489389 
L 160.952696 214.407463 
L 161.384571 214.082683 
L 161.833059 210.526865 
L 162.281555 204.063689 
L 163.161938 215.949133 
L 163.610422 203.484674 
L 164.042304 203.481072 
L 164.474194 212.024816 
L 164.906072 210.995268 
L 165.354564 212.120786 
L 165.78645 212.519246 
L 166.218332 210.918723 
L 166.650214 216.253173 
L 167.513986 209.678555 
L 167.962482 213.607525 
L 168.394356 212.695079 
L 168.826238 212.915956 
L 169.25812 213.61313 
L 169.690006 212.551907 
L 170.121892 213.018782 
L 170.570392 208.980018 
L 171.002263 218.924815 
L 171.434141 204.691841 
L 171.86603 215.183546 
L 172.297905 210.506209 
L 172.729783 213.905005 
L 173.178283 214.906639 
L 173.610161 215.140524 
L 174.058657 218.524396 
L 174.50715 211.929266 
L 174.955646 215.736953 
L 175.404134 209.023664 
L 175.836178 218.900838 
L 176.284683 207.291393 
L 176.749789 213.368814 
L 177.198286 221.777366 
L 177.663385 209.529149 
L 178.128491 209.663527 
L 178.576988 215.714791 
L 179.042094 219.962298 
L 179.507193 214.691425 
L 179.955693 213.12863 
L 180.420796 213.595507 
L 180.869138 216.587347 
L 181.317642 210.584951 
L 181.765984 215.656047 
L 182.214326 211.351317 
L 182.662969 214.434945 
L 183.128072 214.397203 
L 183.576568 217.793526 
L 184.025199 211.589733 
L 184.473695 218.961007 
L 184.938802 219.340878 
L 185.38731 218.73931 
L 185.835803 213.495105 
L 186.284283 221.60158 
L 186.749386 214.707651 
L 187.197894 215.459979 
L 187.646386 219.09148 
L 188.094871 207.660812 
L 188.543209 228.024739 
L 188.991856 223.61336 
L 189.456974 210.710611 
L 189.905459 220.403878 
L 190.353963 213.668836 
L 190.802455 219.021501 
L 191.250936 212.271076 
L 191.716038 226.298239 
L 192.164547 212.003092 
L 192.629649 211.635976 
L 193.094776 224.254456 
L 193.543248 227.975423 
L 194.008351 217.102986 
L 194.473458 216.710955 
L 194.921974 217.253203 
L 195.387057 209.983999 
L 195.852164 218.426092 
L 196.317266 217.988432 
L 196.765763 218.196821 
L 197.214263 221.154325 
L 197.679366 221.939756 
L 198.144469 215.561824 
L 198.592965 216.23713 
L 199.058068 219.047186 
L 199.506406 214.244849 
L 199.954918 213.477049 
L 200.403256 223.060459 
L 200.85159 226.083163 
L 201.316697 217.020896 
L 201.781958 222.624697 
L 202.230292 217.430266 
L 202.678634 215.186796 
L 203.143737 227.813482 
L 203.592213 216.724387 
L 204.040876 223.482429 
L 204.489526 213.335859 
L 204.938007 226.143014 
L 205.369877 225.341894 
L 205.818369 217.789109 
L 206.283472 222.05093 
L 206.731952 215.719171 
L 207.628945 220.818758 
L 208.077426 221.912976 
L 208.525934 226.708887 
L 208.991029 221.550328 
L 209.439529 218.836536 
L 209.888017 222.376022 
L 210.353124 217.520265 
L 210.818219 219.349518 
L 211.266711 215.766334 
L 211.731814 216.000244 
L 212.196921 217.402134 
L 212.645271 227.945259 
L 213.093747 229.254672 
L 213.55887 221.647121 
L 214.023992 222.271123 
L 214.489075 216.40722 
L 214.937572 223.131117 
L 215.38608 225.503556 
L 215.851182 220.125233 
L 216.316285 231.170603 
L 217.21325 217.191727 
L 217.661746 219.400851 
L 218.110243 226.214176 
L 218.575361 215.456989 
L 219.040452 226.015787 
L 219.488949 223.717321 
L 219.937441 220.093579 
L 220.402544 214.959902 
L 220.86765 218.884714 
L 221.316147 216.054444 
L 221.764627 225.221478 
L 222.21312 223.987382 
L 222.678226 224.466763 
L 223.126731 219.922571 
L 224.023727 227.731928 
L 224.472235 220.352817 
L 224.920728 219.121777 
L 225.385823 232.203595 
L 225.850937 229.628501 
L 226.316044 217.998679 
L 226.764536 224.159452 
L 227.212874 232.789815 
L 227.661371 222.240279 
L 228.109859 225.925952 
L 228.558347 216.702258 
L 229.45534 224.622793 
L 229.903832 215.700798 
L 230.335718 221.321816 
L 230.767608 231.237271 
L 231.216101 231.293182 
L 231.664597 224.203525 
L 232.113081 224.623339 
L 232.544963 229.166967 
L 232.993456 223.883319 
L 233.425338 226.887316 
L 233.873834 217.6945 
L 234.32233 224.270386 
L 234.770827 228.502996 
L 235.219327 226.371164 
L 235.667807 228.100747 
L 236.564792 222.33385 
L 237.013288 220.18261 
L 237.445174 227.650621 
L 237.893671 228.145563 
L 238.342167 219.161094 
L 238.774041 228.861029 
L 239.222537 230.061226 
L 240.119526 223.976119 
L 240.551408 232.183893 
L 240.999904 226.491136 
L 241.431786 217.256883 
L 241.863657 223.206653 
L 242.295523 225.4251 
L 242.744023 225.236274 
L 243.192527 230.450768 
L 243.624393 226.567326 
L 244.073056 229.619364 
L 244.538159 221.789184 
L 244.986505 234.867796 
L 245.451777 224.807857 
L 245.9001 227.782512 
L 246.348742 228.379225 
L 246.813849 231.638322 
L 247.278944 221.653605 
L 247.727444 225.220108 
L 248.192551 223.815267 
L 248.657646 236.584345 
L 249.106154 222.517477 
L 249.571091 218.501456 
L 250.036201 234.154635 
L 250.501454 230.645516 
L 251.415049 222.064975 
L 251.880164 226.804548 
L 252.328652 229.993425 
L 252.777153 231.694026 
L 253.242244 226.832143 
L 253.707346 234.674868 
L 254.155843 224.596422 
L 254.604339 225.899628 
L 255.069458 236.960377 
L 255.517938 224.481819 
L 255.966442 231.455756 
L 256.414947 231.383057 
L 256.863427 220.520711 
L 257.311908 223.512006 
L 257.760404 233.133803 
L 258.208892 231.30526 
L 258.674015 224.772826 
L 259.122495 224.710981 
L 260.052705 232.876328 
L 260.501209 222.354786 
L 261.398178 226.947118 
L 261.863285 235.515883 
L 262.311793 232.301078 
L 262.760277 223.197493 
L 263.208781 228.675165 
L 263.657266 226.142781 
L 264.122369 228.719693 
L 264.570865 226.49567 
L 265.035972 227.178306 
L 265.501074 233.906903 
L 265.949567 225.388752 
L 266.398067 235.679905 
L 266.846405 222.473874 
L 267.294898 226.186961 
L 267.760028 238.224477 
L 268.225111 228.572664 
L 268.673754 232.267469 
L 269.122226 231.907993 
L 269.570719 222.372991 
L 270.019211 233.453884 
L 270.467549 234.689118 
L 270.916045 223.699566 
L 271.381152 227.58794 
L 271.829486 226.32707 
L 272.294589 234.764154 
L 272.759854 232.981168 
L 273.208196 227.110891 
L 273.673291 223.802753 
L 274.121945 226.014983 
L 274.570584 235.052179 
L 275.035552 230.838728 
L 275.484183 231.587515 
L 275.932834 226.836701 
L 276.381314 234.303306 
L 276.829807 231.406489 
L 277.278291 226.763122 
L 277.726795 228.434364 
L 278.175288 226.576261 
L 278.623772 225.561488 
L 279.088871 234.151451 
L 279.537379 236.465146 
L 279.98586 233.545249 
L 280.43436 229.765483 
L 280.882844 234.589498 
L 281.796467 223.947553 
L 282.244963 237.831707 
L 282.693456 229.271826 
L 283.141798 230.525259 
L 283.590136 233.434095 
L 284.038624 231.467629 
L 284.486939 233.36673 
L 284.935277 225.16031 
L 285.400538 228.490885 
L 285.848872 240.305482 
L 286.297206 239.144025 
L 286.762305 232.378584 
L 287.194179 229.244136 
L 287.626073 233.579323 
L 288.057955 228.633988 
L 288.489841 229.265113 
L 288.938329 237.159703 
L 289.370215 228.578893 
L 289.818715 228.194725 
L 290.2672 233.840967 
L 290.699086 234.157963 
L 291.130964 239.146239 
L 291.562842 230.15119 
L 292.011334 228.371879 
L 292.45983 235.706407 
L 292.891712 229.853215 
L 293.340209 230.928075 
L 293.788701 232.672968 
L 294.220579 228.290009 
L 294.669071 237.439789 
L 295.100961 232.253633 
L 295.54945 231.48081 
L 295.99795 229.354102 
L 296.87832 237.780866 
L 297.326817 227.05514 
L 297.792074 232.654125 
L 298.240586 233.300208 
L 298.689082 234.370935 
L 299.120814 236.322524 
L 299.56931 229.517969 
L 300.017814 235.781892 
L 300.466299 226.63518 
L 300.898177 231.59201 
L 301.346677 232.42273 
L 301.778555 228.862084 
L 302.227055 233.128683 
L 302.675548 233.680509 
L 303.10743 236.196842 
L 303.539308 232.659352 
L 303.987804 232.482698 
L 304.436288 235.441094 
L 304.884785 231.167085 
L 305.333277 228.770557 
L 306.213663 239.954418 
L 306.645541 229.288072 
L 307.077415 238.729026 
L 307.525916 234.023545 
L 307.974404 235.531285 
L 308.422896 229.30314 
L 308.871389 232.02555 
L 309.319885 239.520943 
L 309.751775 232.122765 
L 310.183649 230.735252 
L 310.615523 229.780526 
L 311.064023 238.647355 
L 311.512512 231.720383 
L 311.961004 240.670721 
L 312.409505 239.426169 
L 312.84139 230.716978 
L 313.273276 236.800923 
L 313.721777 231.52298 
L 314.170265 230.692472 
L 314.618753 236.018599 
L 315.050639 230.065954 
L 315.482513 236.125392 
L 315.931006 232.212895 
L 316.36288 237.745705 
L 316.81138 233.129316 
L 317.243258 232.585498 
L 317.691751 226.418085 
L 318.140247 237.845199 
L 318.572125 232.418569 
L 319.020617 233.167315 
L 319.469133 241.876215 
L 319.917622 233.619988 
L 320.349492 233.599105 
L 320.797996 232.266465 
L 321.246481 232.383471 
L 321.694977 238.980681 
L 322.143477 226.081297 
L 322.591966 233.480443 
L 323.455737 236.743686 
L 323.904226 233.044836 
L 324.352718 231.251643 
L 324.784608 238.591312 
L 325.216486 238.411801 
L 325.665145 233.146051 
L 326.130251 236.321384 
L 326.578593 236.953097 
L 327.043846 232.559206 
L 327.492351 238.977655 
L 327.957457 241.46229 
L 328.405942 239.362074 
L 328.854272 230.200748 
L 329.734658 232.882404 
L 330.16654 241.22208 
L 330.615029 244.333676 
L 331.046915 230.613365 
L 331.478793 241.532165 
L 331.927285 236.212797 
L 332.375781 234.359196 
L 332.807821 236.027462 
L 333.256171 239.858305 
L 333.70483 233.155903 
L 334.153485 234.271586 
L 334.601973 230.375736 
L 335.033843 235.506623 
L 335.482335 245.919358 
L 335.930832 235.655428 
L 336.395946 231.091433 
L 336.861053 235.498499 
L 337.309545 241.027594 
L 337.774648 235.729439 
L 338.239743 239.954635 
L 338.688235 231.742335 
L 339.136744 232.19471 
L 339.585252 254.023078 
L 340.033764 233.768771 
L 340.498847 240.510649 
L 340.947331 234.976005 
L 341.41247 233.285648 
L 341.877569 228.138847 
L 342.325895 233.095892 
L 342.79099 241.622688 
L 343.239486 239.348134 
L 343.687982 241.648116 
L 344.136471 233.331046 
L 344.584963 242.40404 
L 345.016853 235.287239 
L 345.448735 232.695055 
L 345.897231 234.746297 
L 346.34572 238.197575 
L 346.777613 236.847299 
L 347.22611 237.357891 
L 347.657988 236.132168 
L 348.089878 238.705741 
L 348.538366 240.436765 
L 348.986858 232.346419 
L 349.41874 235.031105 
L 349.867241 247.831746 
L 350.299119 236.200888 
L 350.747599 240.509594 
L 351.179489 241.848924 
L 351.611371 231.420244 
L 352.059859 236.378045 
L 352.491749 236.65182 
L 352.923639 235.56521 
L 353.372139 235.650423 
L 353.80401 233.866401 
L 354.252502 240.389848 
L 354.6844 234.359929 
L 355.116274 239.597822 
L 355.548164 235.249278 
L 355.99666 234.678865 
L 356.42853 246.916899 
L 356.860416 238.183704 
L 357.308916 246.155087 
L 357.74079 234.777599 
L 358.17268 236.228605 
L 358.604566 241.215635 
L 359.053063 238.912232 
L 359.501551 239.682598 
L 359.933437 238.996697 
L 360.381925 235.777134 
L 360.830418 234.070461 
L 361.278914 236.977087 
L 361.727414 251.116768 
L 362.159292 236.00937 
L 362.607785 234.808994 
L 363.056281 234.306802 
L 363.488159 241.626552 
L 363.920045 236.066233 
L 364.351927 246.24334 
L 364.800423 239.881163 
L 365.248924 238.298847 
L 366.12929 244.747927 
L 366.577786 237.759033 
L 367.026279 232.668787 
L 367.474775 238.590343 
L 367.906653 239.905715 
L 368.355161 234.670835 
L 368.787031 244.592516 
L 369.235524 238.905036 
L 369.66741 241.608211 
L 370.099284 242.434554 
L 370.54778 234.740375 
L 370.979674 236.38582 
L 371.411544 243.17128 
L 371.860036 234.922025 
L 372.308537 238.031492 
L 372.757025 247.567393 
L 373.654014 236.116548 
L 374.085904 239.118498 
L 374.534396 246.14779 
L 374.982888 234.020874 
L 375.431377 238.004509 
L 375.879877 246.566674 
L 376.328365 242.575766 
L 376.776862 232.67373 
L 377.22535 238.395237 
L 377.673846 236.255973 
L 378.105736 239.87459 
L 378.570843 237.200397 
L 379.019335 243.048759 
L 379.451217 244.725029 
L 379.883099 234.586163 
L 380.331592 242.028323 
L 380.780092 239.500617 
L 381.22858 246.240121 
L 381.660474 244.939683 
L 382.540852 238.279299 
L 382.989345 238.618099 
L 383.437837 235.209125 
L 383.869727 238.923753 
L 384.301601 246.701126 
L 384.750105 237.504893 
L 385.198598 245.798764 
L 385.647086 239.127807 
L 386.095579 246.067988 
L 386.527468 233.705073 
L 386.95935 236.493294 
L 387.407847 237.074757 
L 387.856335 237.988602 
L 388.304843 241.440848 
L 388.736713 238.138047 
L 389.168584 245.586888 
L 389.600466 250.230896 
L 390.048962 242.579983 
L 390.497454 238.595268 
L 390.945954 241.090172 
L 391.394443 242.104426 
L 391.826325 236.012575 
L 392.258203 246.183426 
L 392.690077 245.243837 
L 393.570455 240.32389 
L 394.018944 232.13545 
L 394.46744 238.344999 
L 394.899326 247.759091 
L 395.347814 235.014675 
L 395.796311 241.062311 
L 396.244807 245.487041 
L 396.693295 240.282926 
L 397.141792 245.527747 
L 397.590284 236.800608 
L 398.038784 236.6281 
L 398.487273 256.881377 
L 398.487273 256.881377 
" clip-path="url(#paa9a93cff2)" style="fill: none; stroke: #4c72b0; stroke-width: 1.5; stroke-linecap: round"/>
   </g>
   <g id="patch_3">
    <path d="M 57.6 307.584 
L 57.6 41.472 
" style="fill: none; stroke: #262626; stroke-width: 1.25; stroke-linejoin: miter; stroke-linecap: square"/>
   </g>
   <g id="patch_4">
    <path d="M 414.72 307.584 
L 414.72 41.472 
" style="fill: none; stroke: #262626; stroke-width: 1.25; stroke-linejoin: miter; stroke-linecap: square"/>
   </g>
   <g id="patch_5">
    <path d="M 57.6 307.584 
L 414.72 307.584 
" style="fill: none; stroke: #262626; stroke-width: 1.25; stroke-linejoin: miter; stroke-linecap: square"/>
   </g>
   <g id="patch_6">
    <path d="M 57.6 41.472 
L 414.72 41.472 
" style="fill: none; stroke: #262626; stroke-width: 1.25; stroke-linejoin: miter; stroke-linecap: square"/>
   </g>
   <g id="legend_1">
    <g id="patch_7">
     <path d="M 311.290781 65.965906 
L 407.02 65.965906 
Q 409.22 65.965906 409.22 63.765906 
L 409.22 49.172 
Q 409.22 46.972 407.02 46.972 
L 311.290781 46.972 
Q 309.090781 46.972 309.090781 49.172 
L 309.090781 63.765906 
Q 309.090781 65.965906 311.290781 65.965906 
z
" style="fill: #ffffff; opacity: 0.8; stroke: #cccccc; stroke-linejoin: miter"/>
    </g>
    <g id="line2d_57">
     <path d="M 313.490781 55.529656 
L 324.490781 55.529656 
L 335.490781 55.529656 
" style="fill: none; stroke: #4c72b0; stroke-width: 1.5; stroke-linecap: round"/>
    </g>
    <g id="text_18">
     <!-- RelativeGap -->
     <g style="fill: #262626" transform="translate(344.290781 59.379656) scale(0.11 -0.11)">
      <defs>
       <path id="ArialMT-52" d="M 503 0 
L 503 4581 
L 2534 4581 
Q 3147 4581 3465 4457 
Q 3784 4334 3975 4021 
Q 4166 3709 4166 3331 
Q 4166 2844 3850 2509 
Q 3534 2175 2875 2084 
Q 3116 1969 3241 1856 
Q 3506 1613 3744 1247 
L 4541 0 
L 3778 0 
L 3172 953 
Q 2906 1366 2734 1584 
Q 2563 1803 2427 1890 
Q 2291 1978 2150 2013 
Q 2047 2034 1813 2034 
L 1109 2034 
L 1109 0 
L 503 0 
z
M 1109 2559 
L 2413 2559 
Q 2828 2559 3062 2645 
Q 3297 2731 3419 2920 
Q 3541 3109 3541 3331 
Q 3541 3656 3305 3865 
Q 3069 4075 2559 4075 
L 1109 4075 
L 1109 2559 
z
" transform="scale(0.015625)"/>
       <path id="ArialMT-6c" d="M 409 0 
L 409 4581 
L 972 4581 
L 972 0 
L 409 0 
z
" transform="scale(0.015625)"/>
       <path id="ArialMT-76" d="M 1344 0 
L 81 3319 
L 675 3319 
L 1388 1331 
Q 1503 1009 1600 663 
Q 1675 925 1809 1294 
L 2547 3319 
L 3125 3319 
L 1869 0 
L 1344 0 
z
" transform="scale(0.015625)"/>
       <path id="ArialMT-47" d="M 2638 1797 
L 2638 2334 
L 4578 2338 
L 4578 638 
Q 4131 281 3656 101 
Q 3181 -78 2681 -78 
Q 2006 -78 1454 211 
Q 903 500 622 1047 
Q 341 1594 341 2269 
Q 341 2938 620 3517 
Q 900 4097 1425 4378 
Q 1950 4659 2634 4659 
Q 3131 4659 3532 4498 
Q 3934 4338 4162 4050 
Q 4391 3763 4509 3300 
L 3963 3150 
Q 3859 3500 3706 3700 
Q 3553 3900 3268 4020 
Q 2984 4141 2638 4141 
Q 2222 4141 1919 4014 
Q 1616 3888 1430 3681 
Q 1244 3475 1141 3228 
Q 966 2803 966 2306 
Q 966 1694 1177 1281 
Q 1388 869 1791 669 
Q 2194 469 2647 469 
Q 3041 469 3416 620 
Q 3791 772 3984 944 
L 3984 1797 
L 2638 1797 
z
" transform="scale(0.015625)"/>
       <path id="ArialMT-70" d="M 422 -1272 
L 422 3319 
L 934 3319 
L 934 2888 
Q 1116 3141 1344 3267 
Q 1572 3394 1897 3394 
Q 2322 3394 2647 3175 
Q 2972 2956 3137 2557 
Q 3303 2159 3303 1684 
Q 3303 1175 3120 767 
Q 2938 359 2589 142 
Q 2241 -75 1856 -75 
Q 1575 -75 1351 44 
Q 1128 163 984 344 
L 984 -1272 
L 422 -1272 
z
M 931 1641 
Q 931 1000 1190 694 
Q 1450 388 1819 388 
Q 2194 388 2461 705 
Q 2728 1022 2728 1688 
Q 2728 2322 2467 2637 
Q 2206 2953 1844 2953 
Q 1484 2953 1207 2617 
Q 931 2281 931 1641 
z
" transform="scale(0.015625)"/>
      </defs>
      <use xlink:href="#ArialMT-52"/>
      <use xlink:href="#ArialMT-65" x="72.216797"/>
      <use xlink:href="#ArialMT-6c" x="127.832031"/>
      <use xlink:href="#ArialMT-61" x="150.048828"/>
      <use xlink:href="#ArialMT-74" x="205.664062"/>
      <use xlink:href="#ArialMT-69" x="233.447266"/>
      <use xlink:href="#ArialMT-76" x="255.664062"/>
      <use xlink:href="#ArialMT-65" x="305.664062"/>
      <use xlink:href="#ArialMT-47" x="361.279297"/>
      <use xlink:href="#ArialMT-61" x="439.0625"/>
      <use xlink:href="#ArialMT-70" x="494.677734"/>
     </g>
    </g>
   </g>
  </g>
 </g>
 <defs>
  <clipPath id="paa9a93cff2">
   <rect x="57.6" y="41.472" width="357.12" height="266.112"/>
  </clipPath>
 </defs>
</svg>
